<mxfile host="Electron" agent="Mozilla/5.0 (X11; Linux x86_64) AppleWebKit/537.36 (KHTML, like Gecko) draw.io/24.6.4 Chrome/124.0.6367.207 Electron/30.0.6 Safari/537.36" modified="2024-11-26T18:19:52.153Z" etag="4Ci2k3f9YfyLx0hpo12v" version="24.6.4" type="device">
  <diagram id="OHagz_9Yiikdr4rXO1yo" name="Страница 1">
    <mxGraphModel dx="2077" dy="1601" grid="0" gridSize="10" guides="1" tooltips="1" connect="1" arrows="1" fold="1" page="0" pageScale="1" pageWidth="827" pageHeight="1169" math="0" shadow="0">
      <root>
        <mxCell id="0" />
        <mxCell id="1" parent="0" />
        <mxCell id="B0YOqnxowSEeAvgDbwUn-8" style="rounded=0;orthogonalLoop=1;jettySize=auto;html=1;exitX=0.5;exitY=0.5;exitDx=0;exitDy=0;exitPerimeter=0;entryX=0;entryY=0.5;entryDx=0;entryDy=0;endArrow=none;endFill=0;strokeWidth=2;" parent="1" source="aujBNVwlEjMIlrqZJZry-2" target="B0YOqnxowSEeAvgDbwUn-6" edge="1">
          <mxGeometry relative="1" as="geometry" />
        </mxCell>
        <mxCell id="B0YOqnxowSEeAvgDbwUn-9" style="rounded=0;orthogonalLoop=1;jettySize=auto;html=1;exitX=0.5;exitY=0.5;exitDx=0;exitDy=0;exitPerimeter=0;entryX=0;entryY=0.5;entryDx=0;entryDy=0;endArrow=none;endFill=0;strokeWidth=2;" parent="1" source="aujBNVwlEjMIlrqZJZry-2" target="B0YOqnxowSEeAvgDbwUn-7" edge="1">
          <mxGeometry relative="1" as="geometry" />
        </mxCell>
        <mxCell id="swKSyLilngYRSPFbwZbI-2" style="rounded=0;orthogonalLoop=1;jettySize=auto;html=1;exitX=0.5;exitY=0.5;exitDx=0;exitDy=0;exitPerimeter=0;entryX=0;entryY=0.5;entryDx=0;entryDy=0;endArrow=none;endFill=0;strokeWidth=2;" parent="1" source="aujBNVwlEjMIlrqZJZry-2" target="swKSyLilngYRSPFbwZbI-1" edge="1">
          <mxGeometry relative="1" as="geometry" />
        </mxCell>
        <mxCell id="swKSyLilngYRSPFbwZbI-4" style="rounded=0;orthogonalLoop=1;jettySize=auto;html=1;exitX=0.5;exitY=0.5;exitDx=0;exitDy=0;exitPerimeter=0;entryX=0;entryY=0.5;entryDx=0;entryDy=0;endArrow=none;endFill=0;strokeWidth=2;" parent="1" source="aujBNVwlEjMIlrqZJZry-2" target="swKSyLilngYRSPFbwZbI-3" edge="1">
          <mxGeometry relative="1" as="geometry" />
        </mxCell>
        <mxCell id="aujBNVwlEjMIlrqZJZry-2" value="Неавторизированный&lt;br&gt;пользователь" style="shape=umlActor;verticalLabelPosition=bottom;verticalAlign=top;html=1;outlineConnect=0;gradientColor=none;" parent="1" vertex="1">
          <mxGeometry x="40" y="121" width="45" height="87" as="geometry" />
        </mxCell>
        <mxCell id="B0YOqnxowSEeAvgDbwUn-10" style="edgeStyle=orthogonalEdgeStyle;rounded=0;orthogonalLoop=1;jettySize=auto;html=1;entryX=0.5;entryY=0.5;entryDx=0;entryDy=0;entryPerimeter=0;endArrow=block;endFill=0;exitX=0.5;exitY=0;exitDx=0;exitDy=0;exitPerimeter=0;strokeWidth=2;endSize=13;" parent="1" source="B0YOqnxowSEeAvgDbwUn-1" target="aujBNVwlEjMIlrqZJZry-2" edge="1">
          <mxGeometry relative="1" as="geometry">
            <Array as="points">
              <mxPoint x="61" y="368" />
              <mxPoint x="-40" y="368" />
              <mxPoint x="-40" y="164" />
            </Array>
          </mxGeometry>
        </mxCell>
        <mxCell id="B0YOqnxowSEeAvgDbwUn-13" style="rounded=0;orthogonalLoop=1;jettySize=auto;html=1;exitX=0.5;exitY=0.5;exitDx=0;exitDy=0;exitPerimeter=0;entryX=0;entryY=0.5;entryDx=0;entryDy=0;endArrow=none;endFill=0;strokeWidth=2;" parent="1" source="B0YOqnxowSEeAvgDbwUn-1" target="B0YOqnxowSEeAvgDbwUn-11" edge="1">
          <mxGeometry relative="1" as="geometry" />
        </mxCell>
        <mxCell id="B0YOqnxowSEeAvgDbwUn-14" style="rounded=0;orthogonalLoop=1;jettySize=auto;html=1;exitX=0.5;exitY=0.5;exitDx=0;exitDy=0;exitPerimeter=0;entryX=0;entryY=0.5;entryDx=0;entryDy=0;endArrow=none;endFill=0;strokeWidth=2;" parent="1" source="B0YOqnxowSEeAvgDbwUn-1" target="B0YOqnxowSEeAvgDbwUn-12" edge="1">
          <mxGeometry relative="1" as="geometry" />
        </mxCell>
        <mxCell id="swKSyLilngYRSPFbwZbI-5" style="rounded=0;orthogonalLoop=1;jettySize=auto;html=1;exitX=0.5;exitY=0.5;exitDx=0;exitDy=0;exitPerimeter=0;entryX=0;entryY=0.5;entryDx=0;entryDy=0;endArrow=none;endFill=0;strokeWidth=2;" parent="1" source="B0YOqnxowSEeAvgDbwUn-1" target="B0YOqnxowSEeAvgDbwUn-15" edge="1">
          <mxGeometry relative="1" as="geometry" />
        </mxCell>
        <mxCell id="B0YOqnxowSEeAvgDbwUn-1" value="Авторизированный&lt;br&gt;пользователь" style="shape=umlActor;verticalLabelPosition=bottom;verticalAlign=top;html=1;outlineConnect=0;gradientColor=none;" parent="1" vertex="1">
          <mxGeometry x="40" y="355" width="42" height="93" as="geometry" />
        </mxCell>
        <mxCell id="B0YOqnxowSEeAvgDbwUn-3" value="" style="rounded=0;whiteSpace=wrap;html=1;fillColor=none;" parent="1" vertex="1">
          <mxGeometry x="215" y="74" width="309" height="700" as="geometry" />
        </mxCell>
        <mxCell id="swKSyLilngYRSPFbwZbI-9" style="rounded=0;orthogonalLoop=1;jettySize=auto;html=1;exitX=0.5;exitY=1;exitDx=0;exitDy=0;dashed=1;endArrow=open;endFill=0;endSize=14;strokeWidth=2;" parent="1" source="B0YOqnxowSEeAvgDbwUn-6" target="swKSyLilngYRSPFbwZbI-7" edge="1">
          <mxGeometry relative="1" as="geometry" />
        </mxCell>
        <mxCell id="B0YOqnxowSEeAvgDbwUn-6" value="Смотреть &lt;br&gt;открытые&lt;br&gt;публикации" style="ellipse;whiteSpace=wrap;html=1;" parent="1" vertex="1">
          <mxGeometry x="396" y="276" width="103" height="60" as="geometry" />
        </mxCell>
        <mxCell id="B0YOqnxowSEeAvgDbwUn-7" value="Смотреть&lt;br&gt;комментарии" style="ellipse;whiteSpace=wrap;html=1;" parent="1" vertex="1">
          <mxGeometry x="391" y="131" width="101" height="53" as="geometry" />
        </mxCell>
        <mxCell id="B0YOqnxowSEeAvgDbwUn-11" value="Оставлять&lt;br&gt;комментарии" style="ellipse;whiteSpace=wrap;html=1;" parent="1" vertex="1">
          <mxGeometry x="242" y="331" width="110" height="54" as="geometry" />
        </mxCell>
        <mxCell id="B0YOqnxowSEeAvgDbwUn-12" value="Создавать публикации" style="ellipse;whiteSpace=wrap;html=1;" parent="1" vertex="1">
          <mxGeometry x="316.5" y="412" width="106" height="57" as="geometry" />
        </mxCell>
        <mxCell id="B0YOqnxowSEeAvgDbwUn-15" value="Подписываться&lt;br&gt;на пользователя" style="ellipse;whiteSpace=wrap;html=1;" parent="1" vertex="1">
          <mxGeometry x="253.5" y="484" width="118" height="60" as="geometry" />
        </mxCell>
        <mxCell id="swKSyLilngYRSPFbwZbI-1" value="Поиск &lt;br&gt;публикаций и пользователей" style="ellipse;whiteSpace=wrap;html=1;" parent="1" vertex="1">
          <mxGeometry x="285" y="184" width="127" height="57" as="geometry" />
        </mxCell>
        <mxCell id="swKSyLilngYRSPFbwZbI-3" value="Просмотр &lt;br&gt;профиля&lt;br&gt;пользоватей" style="ellipse;whiteSpace=wrap;html=1;" parent="1" vertex="1">
          <mxGeometry x="249" y="86" width="127" height="57" as="geometry" />
        </mxCell>
        <mxCell id="swKSyLilngYRSPFbwZbI-8" style="rounded=0;orthogonalLoop=1;jettySize=auto;html=1;exitX=0.5;exitY=0.5;exitDx=0;exitDy=0;exitPerimeter=0;endArrow=none;endFill=0;strokeWidth=2;" parent="1" source="swKSyLilngYRSPFbwZbI-6" target="swKSyLilngYRSPFbwZbI-7" edge="1">
          <mxGeometry relative="1" as="geometry" />
        </mxCell>
        <mxCell id="swKSyLilngYRSPFbwZbI-6" value="Подписанный&amp;nbsp;&lt;br&gt;на другого пользователя А" style="shape=umlActor;verticalLabelPosition=bottom;verticalAlign=top;html=1;outlineConnect=0;gradientColor=none;" parent="1" vertex="1">
          <mxGeometry x="41.5" y="579" width="42" height="93" as="geometry" />
        </mxCell>
        <mxCell id="swKSyLilngYRSPFbwZbI-7" value="Просмотр закрытых постов пользователя А&amp;nbsp;" style="ellipse;whiteSpace=wrap;html=1;" parent="1" vertex="1">
          <mxGeometry x="341" y="633" width="146" height="66" as="geometry" />
        </mxCell>
        <mxCell id="swKSyLilngYRSPFbwZbI-11" style="edgeStyle=orthogonalEdgeStyle;rounded=0;orthogonalLoop=1;jettySize=auto;html=1;entryX=0.5;entryY=0.5;entryDx=0;entryDy=0;entryPerimeter=0;exitX=0.25;exitY=0.1;exitDx=0;exitDy=0;exitPerimeter=0;strokeWidth=2;endArrow=block;endFill=0;endSize=12;" parent="1" source="swKSyLilngYRSPFbwZbI-6" target="B0YOqnxowSEeAvgDbwUn-1" edge="1">
          <mxGeometry relative="1" as="geometry">
            <Array as="points">
              <mxPoint x="-39" y="588" />
              <mxPoint x="-39" y="402" />
            </Array>
          </mxGeometry>
        </mxCell>
        <mxCell id="KGTOnmqjt0JSs_JX547H-1" value="" style="shape=image;verticalLabelPosition=bottom;labelBackgroundColor=default;verticalAlign=top;aspect=fixed;imageAspect=0;image=data:image/png,iVBORw0KGgoAAAANSUhEUgAADBgAAAOnCAIAAAC/e4NVAACAAElEQVR4Xuzde7xNdf4/8COXGl3UMJMYkzu5lEbSNCMjhfhqFJJI6cZ0mxrCz/yqUaKbW9KESReVkEkhXSSEKcrQnJxiSuVe7opcz2/9rK/dts52OpyLfY7n8w+Ptd6fz/rstdbZ9tpnrddZKyUdAAAAAAAAAAA46qVECwAAAAAAAAAAwNFHkAgAAAAAAAAAABAkAgAAAAAAAAAABIkAAAAAAAAAAID0gwWJvvrqq3fJ/+bOnbt79+7oTxcAAAAAAAAAADJIECTq27dv4cKFUygQypcvP3/+/OjPGAAAAAAAAAAADhQNEq1Zs6Zw4cIdO3aM3tyGfGjChAmVKlWqUKGC+xIBAAAAAAAAAJC5aJBo9uzZKSkp06ZNi9TJp1577bXgBzplypRoAwAAAAAAAAAAxIkGid59992UlJTg30idfGrnzp2lSpXq0KFDtAEAAAAAAAAAAOL8dJBoyZIl8/f76KOPVq1atXfv3h8XOHS9evXq0KHD8OHDow05Krba//3vf+Prn332WVj/4osv4usFWNeuXU844YTvv/8+2gAAAAAAAAAAAPv9dJCoadOmKQcqW7bsqFGjflzmENWsWTMY5Jprrok2ZNl9990XDNKyZctoQ5zYav/yl7/csWNHWNy8efMJJ5wQ1pPqJj1Z2aLDNnPmzGB7x4wZE20AAAAAAAAAAID9shokKlq0aIsWLS666KLjjz8+DOJMnjz5x8UOxaRJk0aPHj137txoQ5Z16dIlWIFq1apFG+LE55+ClwuLgwYNihWTKkiUlS06bHv37i1Xrtyll14abQAAAAAAAAAAgP2yGiQqWbJkOPv++++HQZzOnTsHs927d2/Xrt0TTzzx8ssvN2zYsEWLFmG3SZMmXXbZZWeeeea555572223LVu2bP94Py4Sq7z++uutW7c+66yzzjvvvF69eq1fvz7WNG3atPbt25999tl169a96qqrUlNTe/bsWalSpWAFTjzxxHb7zJgxI9Y/JlztMPYUrEP6vjxN5cqVY8X4INHB1vYvf/lLuKrPPPNMsG4XXHDBa6+9tnPnzj59+gTr06xZs5kzZ8YGSc90Q2JbPXHixAsvvLB+/frBILt27QqaEm5Rly5dgolnn302XHzIkCHBbO/evcPZQ12x4NWLFSu2YcOG+CIAAAAAAAAAAMQccpDoq6++CoNE7du3T9//nLIKFSoUKlQomKhUqVJQvP/++8M+xx13XFg/+eSTU1NTwxEijzbr379/2LlatWqnnHJKMFG1atWNGzcGTQ899FDYFAwSPpJs9OjRZ511VliMefrpp8Oh4oWrXb9+/bPPPjuYmDdv3qRJk4KJCy+8MHihlLggUSZrG/Y89dRT979USuHChYMRYrPFixdftWpVOE4mG5K+f6vLlCkTWzYQbGDQlHCLwhe94447wsXbtWsXzNatWzecPaQVCyxYsCAojhw5MlYBAAAAAAAAAIB4WQ0SFS9e/JFHHnnggQd+85vfhFGV8JZCYT4mcO+99y5cuDBYcOXKlUWKFAkq7dq127Vr1xdffFGqVKlgNnazovgg0apVq4oWLRrM9u3bN5jdsGFDGI655557Yk2/+93v1q5dG7SmpqZ+/PHH69at69SpU1CvXLny6n22bdsWW9uYWJBo1KhRwcTVV1998cUXBxMTJ06MDxJlvrZhz5/97GcffPBB8OqxmFGwGnPmzEnZJ4wxZbIh4fqEWx281htvvBFsTvXq1VP2bVrQlHCLwsW7desWLp4wSJSVFYsJXrFRo0bxFQAAAAAAAAAAiMlqkCheoUKFOnXqtHPnzvT9+Zh69erF+o8bNy7s9t5774WV66+/PmXfA8XC2fgg0fjx48POzZo1C5/qFQZoGjZsGGt6++2394/9v7p06ZKy78Y/kXq8WJBo+/btJUuWLFq0aLDa5cuX37NnT3yQKPO1DXs2b948bDr55JOD2Y4dO4azYQKpX79+6ZluSNg53OomTZqEs9ddd10wW7FixXA24xZlJUiUlRWL6dOnT+HChVeuXBlfBAAAAAAAAACAUFaDROEdiQYMGPDCCy98+umnsdYwHxOLsASee+65MFKzYMGCsHL77ben7LsZT/wiYZAo1rlSpUrV4rRq1SrWNG/evP1j/6+MsZuMYkGiYLpXr17hUMEmpO9P4YRBoszXNuwZewpbJNxTuHDhYPb++++PHyfjhoSdIw90Czfh9NNPj5+N36Lwte68885w9n/+539SMgSJsrJiMUuWLAmKAwcOjC8CAAAAAAAAAEAoq0GikiVL/tgpTiQfE5g/f34YqRk6dGgwu3fv3nPOOSeYDXpmXOTDDz8MO0+cODE2wvbt27/66qtYU+/evWNNW7duTd+f9YmlcBKKDxJ9/fXXhQsXLl68+IYNG9IPDBJlvrZZz+tksiHhdOZBooxbFL5069atg+mNGzf+/Oc/T8lekChQb59IEQAAAAAAAAAA0nMjSBRo0KBBUDzuuOM6d+7csGHDMGEzatSohIs0atQomD3llFN69OjRv3//6667Lnit8NZBjRs3DpcN1qFr165169YdPXp0UH/88cfDep06dYLxY2GdePFBosAPP/ywY8eOcDo+SJSe6doeUl4nkw1Jz7DVkSBRxi1q3759WLn44ovLlStXqFChlGwHiQYOHBjUlyxZEqkDAAAAAAAAAECuBInWrVvXtm3bMM4SLjt48OBYa7jItddeG85u2LChY8eORYsWDTsXKlSoTp06b731VtC0adOmoFuxYsXCpmOPPXbSpElB/bvvvmvTps3JJ58c1tPS0mKDx0SCRPEiQaJM1vaQ8jqZbEh6hh0VCRJl3KKlS5dWqVIlnL3yyitbtWqVku0g0cqVK4OmPn36ROoAAAAAAAAAAPDTQaLDtnnz5kWLFn322We7d++Or5cuXTp4iR49esQXv//++9TU1E8//XTLli3x9cC2bduCprS0tGAi0pSDDra2hyqTDTlUe/bsWbp06cqVK6MN2dCoUaPq1atHqwAAAAAAAAAAHPVyMUiU0VtvvdW8efPwLjuxW/WQl0aOHBns/AULFkQbAAAAAAAAAAA4uuVpkKh///7B4GXLln3ooYeibeSJDRs2FCtWrHv37tEGAAAAAAAAAACObnkaJNq7d282HxxG9l166aXlypULfhbRBgAAAAAAAAAAjmJ5GiQiGYwZMyb4Ec+cOTPaAAAAAAAAAADAUUyQ6Kjz/fffn3DCCV27do02AAAAAAAAAABwFIsGiSZNmpSSkjJo0KB3KbguuuiiEiVKTJ48OdoAAAAAAAAAAEBBt2LFikhkKBQNEg0aNCgFAAAAAAAAAAAouOrUqTN79uxIcCgaJJo8eXLQdfDgwTMouKZNmxb8iN2RCAAAAAAAAADgKDRs2LAKFSqUKFFi06ZN8cGhaJAo6JqSkhL8G6kDAAAAAAAAAAAFw5QpU1JSUiI3JRIkAgAAAAAAAACAo0vCjJAgEQAAAAAAAAAAHF0SZoQEiQAAAAAAAAAA4OiSMCMkSAQAAAAAAAAAAEeXhBkhQSIAAAAAAAAAADi6JMwICRIBAAAAAAAAAMDRJWFGSJAIAAAAAAAAAACOLgkzQoJEAAAAAAAAAABwdEmYERIkAgAAAAAAAACAo0vCjJAgEQAAAAAAAAAAHF0SZoQEiQAAAAAAgDyycePGhx9+uF+/fg8cIX369HnyySe3bNkSXTMAADjKJMwICRIBAAAAAAB55JFHHlm+fPnmI2rRokX33nvv4sWLoysHAABHk4QZIUEiAAAAAAAgjzzwwAPRXM8R0qdPn+jKAQDA0SRhRkiQCAAAAAAAyCPJEyR69tlnly1bFl0/AAA4aiTMCAkSAQAAAAAAeSR5gkSrV69+7LHHousHAABHjYQZIUEiAAAAAAAgjyRPkCjQt2/fvXv3RlcRAACODgkzQoJEAAAAAABAHkmqINHUqVPff//96CoCAMDRIWFGSJAIAAAAAADII0kVJNq4cWP//v2jqwgAAEeHhBkhQSIAAAAAACCPJFWQKPDwww9v3749upYAAHAUSJgREiQCAAAAAADySLIFiT766KNXXnklupYAAHAUSJgREiQCAAAAAADySLIFiQLBKkXXEgAAjgIJM0KCRAAAAAAAQB5JwiDR3//+97Vr10ZXFAAACrqEGSFBIgAAAAAAII8kYZBo2bJlI0aMiK4oAAAUdAkzQoJEAAAAAABAHknCIFGgb9++0RUFAICCLmFGSJAIAAAAAADII8kZJBo3blxqamp0XQEAoEBLmBESJAIAAAAAAPJIcgaJvvnmm0cffTS6rgAAUKAlzAgJEgEAAAAAAHkkOYNEgWDFdu3aFV1dAAAouBJmhASJAAAAAACAPJK0QaKZM2dOmzYturoAAFBwJcwICRIBAAAAAAB5JGmDRJs2bQrWLbq6AABQcCXMCAkSAQAAAAAAeSRpg0SBQYMGBf9G1xgAAAqohBkhQSIAAAAAACCPJHOQaPHixc8//3x0jQEAoIBKmBESJAIAAAAAAPJIx44dH0hiV111VbSUlPr16/fII49sdv8kAACyIWFGSJAIAAAAAADIIw8k8R2J8pfly5cPGDAgun8BACDLEmaEBIkAAAAAAIA8IkiUg/r37x/dvwAAkGUJM0KCRAAAAAAAQB4RJMpBgkQAAGRHwoyQIBEAAAAAAJBHBIlykCARAADZkTAjJEgEAAAAAADkEUGiHCRIBABAdiTMCAkSAQAAAAAAeUSQKAcJEgEAkB0JM0KCRAAAAAAAQB4RJMpBgkQAAGRHwoyQIBEAAAAAAJBHBIlykCARAADZkTAjJEgEAAAAAADkkcyDRJ9++uncuXPjK8HsggULYrMbN26cMWPGl19+Gdcl6m9/+9vTTz8drR7E2rVrJ02aNGLEiHHjxn3yySfR5uQmSAQAQHYkzAgJEgEAAAAAAHkk8yDRiBEjihQpsmrVqnA2mAhmy5UrF+vw3nvvpaSkTJ8+PVbJqGHDhnfccUe0msjbb7992mmn/eIXvzjvvPMqVqx4zDHH9OnTJ9opiQkSAQCQHQkzQoJEAAAAAABAHsk8SJSWlpaSkvLPf/4znJ0wYUL58uWLFy+empoaVvr373/CCSds2LDhx2UyyHqQqHLlyq1atVq3bl04u3jx4tmzZx/YJakJEgEAkB0JM0KCRAAAAAAAQB7JPEgUqFChwp133hlO33HHHddcc03Dhg3//ve/h5UWLVpcfPHFsc7jxo1r2rRp7dq1W7VqNWvWrLAYBokefPDBc845p379+sOGDYv1j7d27dqUlJSRI0dGG/ZLOPjdd9/9j3/8Y8CAAcHIV1999dixY7t06RK/1NChQ3v37h1OJxxhc4ZBYvVDJUgEAEB2JMwICRIBAAAAAAB55CeDRJ06dapXr144fc4554wcObJ3794dOnQIZjdt2nTKKafcd999YeuwYcOOP/74Pn36vPbaa7169frZz342d+7czfuCRKeeeuof//jHCRMmBK1Fixb9xz/+sX/4A5x++ul169Z95513Mt7iKJPBy5Qp06JFi2eeeWb8+PEfffRRSkpK2BTYuHFj0Nq/f/9MRsg4yP7XPGSCRAAAZEfCjJAgEQAAAAAAkEd+Mkg0YsSIIkWKrN4nmEhLS5s8efLpp58eNM2ZMye8hBFMr1+/vlSpUg8//HBswQ4dOrRp02bzvphO+fLlN27cGNb//Oc/V61aNdYt3rRp0ypUqBCMWbx48caNG8fyRpkPXr169U2bNsWazj333FtvvTWcfuWVV4oWLfr5559nMsLmRIMcHkEiAACyI2FGSJAIAAAAAADIIz8ZJEpLS0tJSXnllVf++c9/hvmhNWvWFCtW7JNPPnnwwQdPPPHE8O5B//rXv4Ju1113Xa9evXr27NmjR48LL7ywZs2am/fFdK655prYgBMnTixUqFAwSKwSb9OmTe+++27//v2DpYIBb7/99s0/Nfj1118fP8LgwYN/+ctfrl+/Pphu27ZtixYtMh8h4SCHR5AIAIDsSJgREiQCAAAAAADyyE8GiQIVKlTo1q3bX/7yl/CJZoH69esPHz68ZcuWTZs2DSvTp09PSUn585///Lc4AwcO3LwvptO1a9fYaG+99VbQc9myZbHKwQRLFS1adP369ZkPfscdd8QvtXz58uOOO27cuHErVqz42c9+9sILL2zOdPUSDnJ4BIkAAMiOhBkhQSIAAAAAACCPZCVI1KlTp/r165977rlPPPFEWLnzzjs7duz485///P777w8rX3755THHHDN69OgfF9uv4T6x2SFDhpx00klx7Qf12GOPFSpUaNWqVZkPnjED1Lp16z/+8Y/B4qVKlVq3bt3mTFdv80EGOQyCRAAAZEfCjJAgEQAAAAAAkEeyEiQaMWJE0X0+/vjjsPLyyy8XL148JSVlxowZsW5XXnll+fLl586dG87Omzfv1Vdf3bwvplO4cOHwzkCLFy+uUKHCrbfeGlsq5ttvv73iiivefvvttWvXBrMffPDBGWecUa9evbA1k8EzZoAmTJhw7LHH1q5d+09/+lOseLARNh9kkMMgSAQAQHYkzAgJEgEAAAAAAHkkK0GitLS0lJSUMmXKxCorVqwoXLjwSSedtGHDhlhx9erVHTt2LFKkyCmnnFK8ePHg38GDB2/eF9Pp1KnTWWedVbJkyWOOOaZBgwbB4rGlYtavX9+kSZOf/exnQZ/g3+AVGzVq9J///CdszWTwjBmgYK1OO+20YITZs2fHigcbYfNBBjkMgkQAAGRHwoyQIBEAAAAAAJBHshIkOiQrV66cO3duampqfMYotGDBgkWLFkWKEd9++23Q54MPPkgYNspk8CzK/giZECQCACA7EmaEBIkAAAAAAIA8kuNBoqOZIBEAANmRMCMkSAQAAAAAAOQRQaIcJEgEAEB2JMwICRIBAAAAAAB5RJAoBwkSAQCQHQkzQoJEAAAAAABAHhEkykGCRAAAZEfCjJAgEQAAAAAAkEcEiXKQIBEAANmRMCMkSAQAAAAAAOQRQaIcJEgEAEB2JMwICRIBAAAAAAB5RJAoBwkSAQCQHQkzQoJEAAAAAABAHhEkykGCRAAAZEfCjJAgEQAAAAAAkEcEiXKQIBEAANmRMCMkSAQAAAAAAOQRQaIcJEgEAEB2JMwICRIBAAAAAAB5pG/fvps2bYomYjh0wW7s169fdP8CAECWJcwICRIBAAAAAAB5ZMaMGePGjYuGYjh048ePnzVrVnT/AgBAliXMCAkSAQAAAAAAeefll19+OOmVLl06WkomDzzwwNixY6N7FgAADkXCjJAgEQAAAAAAwAFKly4dLQEAQMGSMCMkSAQAAAAAAHAAQSIAAAq8hBkhQSIAAAAAAIADCBIBAFDgJcwICRIBAAAAAAAcQJAIAIACL2FGSJAIAAAAAADgAIJEAAAUeAkzQoJEAAAAAAAABxAkAgCgwEuYERIkAgAAAAAAOIAgEQAABV7CjJAgEQAAAAAAwAEEiQAAKPASZoQEiQAAAAAAAA4gSAQAQIGXMCMkSAQAAAAAAHAAQSIAAAq8hBkhQSIAAAAAAIADCBIBAFDgJcwICRIBAAAAAAAcQJAIAIACL2FGSJAIAAAAAADgAIJEAAAUeAkzQoJEAAAAAAAABxAkAgCgwEuYERIkAgAAAAAAOIAgEQAABV7CjJAgEQAAAAAAwAEEiQAAKPASZoQEiQAAAAAAAA4gSAQAQIGXMCMkSAQAAAAAAHAAQSIAAAq8hBkhQSIAAAAAAIADCBIBAFDgJcwICRIBAAAAAAAcQJAIAIACL2FGSJAIAAAAAADgAIJEAAAUeAkzQoJEAAAAAAAABxAkAgCgwEuYERIkAgAAAAAAOIAgEQAABV7CjJAgEQAAAAAAwAEEiQAAKPASZoQEiQAAAAAAAA4gSAQAQIGXMCMkSAQAAAAAAHAAQSIAAAq8hBkhQSIAAAAAAIADCBIBAFDgJcwICRIBAAAAAAAcQJAIAIACL2FGSJAIAAAAAADgAIJEAAAUeAkzQoJEAAAAAAAABxAkAgCgwEuYERIkAgAAAAAAOIAgEQAABV7CjNCRCRJ99dVX75L/zZ07d/fu3dGfLgAAAAAA5HOCRAAAFHjvJsoIHYEgUd++fQsXLpxCgVC+fPn58+dHf8YAAAAAAJCfCRIBAFDgJcwI5XWQaM2aNYULF+7YsWN4SxvytQkTJlSqVKlChQruSwQAAAAAQEEiSAQAQIH3bqKMUF4HiWbPnh2MP23atGgD+dNrr70W/ECnTJkSbQAAAAAAgHxLkAgAgAIvYUYor4NEuT0+eWznzp2lSpXq0KFDtAEAAAAAAPItQSIAAAq8hBmeIx8kWrJkyfx9FixYkJaWtnHjxh9779erV68OHToMHz482nBEff/99+Gaf/jhh3v37o02H67IxubStufgsF27dj3hhBOCvRFtAAAAAACA/EmQCACAAi9jhic9GYJETZs2TTlQlSpVHnvssfhoTs2aNYP6NddcE6skg8cffzy2zjNnzow2H67IxubItt93333BOC1btoxVcmTYULDtwVBjxoyJNgAAAAAAQP4kSAQAQIGXMcOTnjxBoiJFitSvX798+fLHHHNMGM1p165dLEs0adKk0aNHz507N7ZUMqhXr164qoHrrrsu2ny4IhGfHNn2Ll26BGNWq1YtVsmRYUPBj6lcuXKXXnpptAEAAAAAAPInQSIAAAq8jBme9OQJEpUsWTKc/eKLL37729+G6ZwXXnghLHbv3r1du3ZPPPFEMD1q1Kg2bdqcd955tWrVatCgQe/evTds2BAbLdZz4sSJF154Yf369fv06bNr166wNZjo169fUAyaxo4dO3z48KDzX/7yl9jikyZNuuyyy84888xzzz33tttuW7ZsWawpIi0tLVzJ888/P/j3xBNP3LZtW6w1thrBqzRs2PA3v/nN3/72t507d2alNRIkit/20LRp09q3b3/22WfXrVv3qquuSk1NTc90t/Ts2bNSpUrhSrbbZ8aMGRmHzWTbM9+rYYdixYrF/yAAAAAAACD/EiQCAKDAy5jhSU/CIFFg2bJlYUanefPmYSU+W9O4cePjjz/+jDPOqFWrVnj7orp168buXRT2LFOmTDhC6KGHHgpbb7/99rBSpEiRWLfYfXruv//+sPW4444rVKhQMHHyySeHMZ2MevXqFXQoUaLE4sWLw6Visaf0/atx2mmnxV4rcMstt2S99WCPNgu2JewfrOEJJ5wQTIwePTo9091y1llnhYvEPP3005FhM9/2zPdqYMGCBUFl5MiRsQoAAAAAAORfgkQAABR4GTM86ckZJAqULVs2KFauXDmcjU+9zJs3b8eOHWF96tSpYajlgw8+iO9ZpEiRN954Y+3atdWrVw9mf/e73wVNK1asCFM7bdq0CUZYuHBh8eLFU/YHiVauXBm2tmvXbteuXV988UWpUqWC2RYtWoQjx9uzZ8+vfvWroLVz587p+59x1qRJk1iHcDWOO+64jz76aOfOne3btw/XKliHLLYmDBKtWrWqaNGi4RYFWxdUUlNTP/744/RMd8u6des6deqUsm9/rt5n27Zt8cP+5LZnsldjgmKjRo3iKwAAAAAAkE8JEgEAUOBlzPCkJ22Q6Oc//3lQPOOMM8LZ+NTLBx980KZNm6pVq5522mlh3iUwfvz4+J6xTM91110XzFasWDGYnjx5cth55syZYWurVq1S9geJxo0bF7a+9957Yev1118fzB5//PHhbLy33nor7Pzmm28GswMGDAimjznmmDAJlL5/NWJBnH/9619h/2AdstiaMEgUbGbY8+233w5bYzLfLV26dEmJu/dS+oHD/uS2Z7JXY/r06VO4cOGVK1fGFwEAAAAAID8SJAIAoMDLmOFJT84g0ezZs8Ncy5VXXhlWYqmX5cuXn3jiicF07dq1//znP99www1hzzFjxkR6hrNhgOb0008Ppl955ZWw8/vvvx+2XnHFFSn74zXPPfdc2LpgwYKwNXwOWpEiRcLZeB06dAg7//73v2/YsOHZZ58dzj744INhh3A1gvHD2UWLFoUdxo4dm8XWhEGi2ErOmzcvbA395G7JPEj0k9ueyV6NWbJkSVAcOHBgfBEAAAAAAPKFpUuXxs9GgkSRVgAAKAAyZnjSky1ItG7dupdffjl8alhK3K2DYkGW2L1zvvzyy/S4mwxlJUgUfMsPO/fs2TOYXbt2bfCiKfvjNfPnzw9bhw4dGszu3bv3nHPOCWaDAcOhYrZs2RI+Ey2jyC2Ufv3rX4ePG3v88cfDDmFSJyutCYNEH374Ydizd+/eYWtg69atP7lbwmBQfPQnftif3PZM9mq8evtEigAAAAAAkPyefPLJuXPnxmbjg0RBPWiNzQIAQMGQMcOTnjxBokDhwoXDiUChQoUeeuihWJ9YkCX4sh52uPzyy++///4yZcqEs1kJEgVat24d9q9WrVqJEiXCPFDsPj0NGjQIZo877rjOnTs3bNgw7Dlq1KiwNeapp54KmyZMmLB0v4cffjgshvcKClcj2Io6depcddVVxx57bDB77rnnhiNkpTVhkCjQuHHj8IWC/da1a9e6deuOHj36J3dLLKsUvGKwaV999VVk2My3PfO9GjNw4MCgvmTJkkgdAAAAAACS3Lp166pUqRLLEsWCRMOHD69Ro0bQ+mNXAAAoEDJmeNKTKkhUqFCh4sWLV6pUqX379rNnz/5xmf1BlmuvvTaYvuOOO4KewWyJEiWGDBkSLpvFINHGjRuDwYNX+cUvfnH33Xe3a9cuaD3zzDPD1uDXgLZt28byTCVLlhw8eHDYFO+CCy4IWsuVK7d3795Ycf369UWLFg3qt9xyS/r+1QhGa9GiRTha1apV09LSws5ZaT1YkGjTpk3BfihWrFi44LHHHjtp0qT0n9ot3333XZs2bU4++eSwHrxWZNjMtz3zvRqzcuXKYIQ+ffpE6gAAAAAAkPxat25drly5MEsUBonuuuuu008/vVu3btGuAACQ/2XM8KQnQ5AoK4Lv68FSPXr0CGfXrVv3n//8Z/v27Qf2+mmrVq3atWtXOL1p06bwzj3t27eP77N58+ZFixZ99tlnu3fvjq8fkvjkzddff7148eI9e/ZksTUrtm3blpqampaWFkzEioe9W2Kyv+2NGjWqXr16tAoAAAAAAEkvLS2tdOnS5cuXnzt3bjBx1113lSlT5rTTTnMnfgAACqSEGZ5kDxK99dZbzZs3D2+TE0xHmw/RoEGDypYt26ZNm/bt24fhpOLFiy9atCjaL9sit/CJyLw1Xxs5cmSwaQsWLIg2AAAAAABA0vv9739funTpSpUqld6nadOmV111VbQTAAAUCAkzPMkeJOrfv3/Qv2zZsg899FC07dC9+eabZ5999vHHH1+oUKFf/OIXbdq0yY0UUaBhw4annnrq7bffHm3YJ/PWfG3Dhg3FihXr3r17tAEAAAAAAJLe1KlTy5QpE6aIKlSo0LBhw5kzZ0Y7AQBAgZAww5PsQaK9e/ce9mO2OCIuvfTScuXKBT+4aAMAAAAAACS9GjVqhEGizp07N2rUKNoMAAAFRcIMT7IHich3xowZE/yI/YkGAAAAAAD50eOPP37aaaeVLVv2sssuGzNmTLQZAAAKioQZHkEictj3339/wgkndO3aNdoAAAAAAABJb8eOHeXLl2/evPlZZ50VTEebAQCgoEiY4cnrINGkSZOC8QcNGvQuBddFF11UokSJyZMnRxsAAAAAACDptW/f/le/+tVtt90WbQBy2YoVK6IXFwGAXPNuooxQXgeJBg0alAIAAAAAAJCsjjnmmF/+8pfBv9EGIPfVqVNn9uzZ0UuMAEAuSJgRyusg0eTJk4PxBw8ePIOCa9q0acGP2B2JAAAAAADIp5588sloCch9w4YNq1ChQokSJTZt2hS9yggA5LR3E2WE8jpIlNvjAwAAAAAAAPnUlClTUlJS3JQIAPJAwgyPIBEAAAAAAACQFFxMBIA8k/CwK0gEAAAAAADwo23btkVLQF5xMREA8kzCw64gEQAAAAAktZUrV36dmxYuXDgnT0yYMGFsnhs+fPijSeDPSax169aX52fnnntuPfarW7duaXJI2bJl9+7dG/1EBnKfi4kAkGcSHnYFiQAAAADywvr166Pxjaz55JNPonGMQzFx4sRosCLLXnrppWga4rB07949mlw4dF26dInGB7KhVatW0cvv2VOnTp3oJegcVatWrehL5rRLL700uptyx7XXXhv96eaJvn37Rt+aR8JTTz0V/Z+WTGbNmhX9EMlXFi5cGP0MPbpt2bIlejQ6OmzcuHHx4sXTp09/8cUXg/933bp169ixY7NmzcKgVfCJesEFFwQfR7fcckvv3r2DDs8///wrr7wSvIVSU1MnTZpUs2bNefPmVapU6bvvvosODeS+fHcxcfny5bEP3g0bNkSbASCJJTzsChIBAADA0Wj16tVx1xkP6uOPP45epD2I8ePHRy9HH8Q//vGP6HX1g+vTp080C5Cp9u3bRzMLmWrZsmU0TJEFv/71r6Mpj0xVqVIlOkTWnHvuudE1PkS33nprdB8digceeCD6Izl0Q4cOjb4JDsukSZOib7vsWbp0afQdnz3r1q2L/k8DIDcFn73B53lwjBg4cGC3bt2uvPLKBg0aVKxYsVq1ag0bNmzXrl1wLAuORKNHj37zzTcXLFiwfPny6BAH+vzzz2vXrj1r1qxg+swzz/zmm2+iPYDcF7uYGP1WnazOOeec2Bf4GjVqRJsPLvicifvu/79+//vfR7/TX375TTfdFPmi3qtXr8i37hEjRkS+P8+YMSP+229qamr8d1cfcQCkHyTDI0gEAADAUWTPnj3xZ04jFi1aFH+aNeL111+PnJaNN2rUqMhp3Ih77703cuY34vrrr4+eLc6gUaNG0dPMGVStWjV6fnq/8uXLR3sfxGWXXRZ97UTatGkT3YyD+z//5/9Ed8rBDR48OLqLM/Xqq69Gf2A/5eOPP46+A7Jg586d0XcVAJDLNmzY8NFHH02YMCH4htCtW7e2bdvWr1//tNNOO+ecc4IvLbfddttDDz30/PPPz5gxY8mSJYd9G6EtW7acf/75Y8aMCWfPO++8ZcuWHdADyBNHz8XEtWvXRn/f+PrrpUuXRn91mTMn+H0n8hvQM888E/kd6u677478CtauXbv4X98aN24c/0tf7dq1439brFChQnxrw4YN45e94YYb4kcOPnVjrzts2LD4FZs+fXpstT/88MP4Tfvhhx+iuwCAIy3hYVeQCAAAgEPw7bffxp8HDC1YsCDuDOf/evPNN+NPJsYMHjw47lTnjw725KMrr7wy/vRlzB//+Mf4s5zxIn8DWq1atWiPOC1btowOHefmm2+OrlCc8FkYmcj4J6ER4UM0Mrdo0aLoHs/A35ICAAXD+vXr58+fP378+P79+3ft2rVp06bBd7nq1as3a9YsmO3Xr9/zzz8/a9asr776au/evdGFs+fGG2+86667YrONGzf+5JNP4tqBPOJi4hGxbdu2+N8xP/300/hfSydNmhT/m+zAgQNjv/bed9998b8mx98jtkWLFvG/fZ9++umx39MrVqwYq0fuwxr/a/iDDz4Ye6ExY8aEr/7aa6/FVmzJkiXhCn/77bfRTQIgCxIedgWJAAAAkt2qVaviT+d9+OGHcWfz5rzxxhvxp/PGHnhGL9C/f/+4c3r/35/+9Kf4k3Sh+vXrx53f+/+qV69eunTpcuXKRer1DnKv9csP8hCljHdcDw0fPjyy5qEJEybEb2C8zz77LH5XxNu+fXt0xwEAkMR27969ZMmSqVOnDhs27M4772zRokX1fZo3b37zzTcPGjRo4sSJCxcu3LRpU3TJXBB8Cz3//PO///77WKVly5bz5s2L6wLkERcTjwbB523s1/kvv/wy/hf/l19+OXZ+YMCAAeEJhEceeSR2kuG6666LnYUIPrrD0xThGYxQ7NxFcGQJu3Xt2jVctl+/fuGAL7300ti4W9umpaUFa7J69eroigIUdAkPu4JEAAAAh2/Lli2xM1/vv/9+ePpp5syZsXNezz33XCw3Ewn0XHHFFbEzX02bNo2d56q379FU8bPnn39+rGcoktfp2bNn7FVCTz31VGwdQu+8886Pp+X2yXifm5UrV0a3EAAAcsLOnTsXL1786quvBt+KO3fufMEFF5QrV+73v//9tddee//997/wwgvz58/fsGFDdLE88c0339SqVevf//53fLFdu3YzZsyIrwB5w8VEsiM43MTOcsRO1IwbNy48NxKeM4mdnwmOR+Fplt/97nf16tWrWbNmGEWqU6dOMHvhhRcGTR06dAh63nXXXY/ufwZ3GD9KTU0NXiI+gQqQHyU87AoSAQAAR6ldu3aF55Xmz58/Z86ct99+Ozyp9Nhjj4XnlcKTSrfcckt4UqlVq1ZhrOe8886L/cVbs2bNYuGeWKyne/fusUDPkCFDYlGeQHyOZ/HixbFzW4Ho+gEAQL61d+/ezz77bMqUKQMGDLjhhhv+8Ic/lCtXrmHDhtdff/0jjzwyefLktLS0nTt3Rhc7Qu655577778/UuzcufPrr78eKQJ5wMVEjrgVK1Z8/fXX//nPf+bMmfPWW2+NHTv22WefjSWQbrrppssvv/ziiy+uV69elSpVypQpE0w0btz48n1/9xUcU8JzQbNmzQoOhVu3bo2ODpBMEh52BYkAAICCZt26dYsXL549e/bYsWOffPLJRx999M4777z55psvv/zy5s2bhyd3gn8vvvjioNK+ffsw/dO/f//43M+UKVPCuE/4F2aB9evXR18JAADYZ8uWLfPmzXvqqafuuuuupk2bVqhQ4fzzz7/22mv79ev36quvfvLJJ8kTG4pYu3Zt3bp1g/WP1G+99daXX345UgTygIuJ5DvLly//9NNP58yZM3HixFGjRoV/nNapU6eLL764du3aVatWbdSoUefOne+///7nn39+0aJFP/zwQ3QIgCMk4WFXkAgAAMjf1q9fP2HChLvvvrtDhw7n7/PHP/7xpptu+utf//roo4+++OKLr7322pz9T7t3pgYAAHLE6tWrp06dOmDAgM6dO5933nkVK1Zs1qxZz549R40a9eGHH3733XfRBZLVPffcM2jQoGg1Pb1Hjx7PPvtstArkvnfeeefUU08NnzAVKFeu3CWXXBL8V502bZrHSJEf7dy58/PPP58+ffrTTz999913t27dumbNms2bN3/00UfXrl0b7Q2QtxJmeASJAACAfGzevHm1atXq2bPnlClTli5dunv37mgPAAAgJ6xZs+aNN954+OGHO3XqVHOfq6+++oEHHpg0adKSJUuivfOJzZs3V69ePeHNR//2t7/9/e9/j1aB3Be5mLh9+/b333//sccea9OmTdWqVW+88cbgsyhpb3IGWZSamhocQ2vVqrVw4cJoG0AeSpjhESQCAADyq4ULF9auXXvWrFnRBgAAINvWrVv35ptvPvroo9dcc82ZZ555xhlndOzYsX///lOnTl21alW0d/704osvXn/99dHqPo888kiw7dEqkPsyuZi4efPm559/vlWrVjVq1PjrX/+6dOnSaA/IV95+++2zzjrryy+/jDYA5JWEh11BIgAAIF/6/PPPzzzzzLfeeivaAAAAHJadO3cuXLhw5MiRf/rTn+rXr1+1atX27dv369fv9ddfX7FiRbR3gdC2bdspU6ZEq/sMGzbsvvvui1aB3JeVi4nLly9/+OGHa9eu3bFjx5kzZ0abIf945plnLrroIjfZAo6UhIddQSIAACD/2bp16wUXXPD8889HGwAAgEOxatWqyZMn33PPPS1btqxQoULjxo179uz50ksv5d+nlWXdmjVrqlevvmPHjmjDPs8880ywK6JVIPdl/WJi8P/3xRdfbNSo0YUXXvj6669HmyGf6Nix48CBA6NVgDyR8LArSAQAAOQ/1157rXP6AABweFJTU//xj3/cdNNNderUqVWrVvDteujQoXPmzPnuu++iXQu04cOH33nnndHqfuPGjbvtttuiVSD3HcbFxGnTpl188cVNmjSZPn16tA2S3urVq2vUqJHxsaE7duxYt25dpAiQsxIedgWJAACAfGb06NHNmjVzz2cAAMii4MvzvHnzhg4d2rFjx6pVqzZo0KBbt27jx4//6quvol2PJpdccsmsWbOi1f2mTJly/fXXR6tA7jvsi4mTJ09u2LBhq1atUlNTo22Q3B599NGMfzI3ePDg1atXR4oAOSvhYVeQCAAAyE++/vrrmjVrHg3PWQAAgOz47rvv3n333f79+1922WWVKlVq2rTp3Xff/frrr69fvz7a9ai0cuXKGjVq7N69O9qwX7D3rrzyymgVyH3ZuZi4Z8+eF1988cwzz+zRo8fGjRujzZCsgqN2nTp1VqxYEassX768cuXKmRynAHJEwsOuIBEAAJCftG/fftiwYdEqAACw7xkoc+bMeeihh1q2bFm5cuXLL788mJ4xY8bR9syyrBg1atSf//znaDXOvHnzLr300mgVyH3Zv5i4efPmu+++u1atWqNHj462QbIaPHhw9+7dY7OdO3c+44wz4toBckXCw64gEQAAkG+88847DRo02LVrV7QBAACOVrt37/7oo4+GDBlyxRVXVK5c+X/+53/69+//3nvv/fDDD9GuxAl219SpU6PVOKmpqY0bN45WgdyXUxcT09LSWrRo0bp166P8MY4kszVr1jz//PPh3bM2b95co0aN5cuXB9PTp0//1a9+Vbdu3egCADkt4WFXkAgAAMgfdu3a1aBBg7fffjvaAAAAR5+0tLQRI0Z06tSpSpUqjRs3vvfee4Ovylu3bo32I5FNmzZVrVp127Zt0YY4X3zxxfnnnx+tArkvBy8m7tmzZ/jw4TVr1hw5cmQwHW2GJDB37twzzjijbdu206dPf+CBB3r37r1jx47gAFS7du1mzZpFewPktISHXUEiAAAgf3j55Zcvv/zyaBUAAI4amzdvnjhx4h133FGnTp3f/va3PXr0eO211zZs2BDtx0+ZMGHCtddeG60eaM2aNWeddVa0CuS+HL+YuGzZslatWrVu3Xr16tXRNkgCc+fOrVChwmmnnVazZs2KFStWqVKlSZMmpUuXvuGGG6JdAXJawsOuIBEAAJAP7N279w9/+MOMGTOiDQAAUNB99NFHAwcObNmyZZUqVTp27Pj0008vW7Ys2olD0bVr1zFjxkSrB9qyZUuww6NVIPflxsXEPXv2DBkypHbt2pk/0xCOlLlz59aoUaNy5cq/+tWvSpcuXbNmzeDfvn37RvsB5LSEh11BIgAAIB946623mjRpEq0CAEAB9e23344fP/7mm2+uUaNGw4YN77vvvlmzZu3YsSPaj0O3Z8+eYK/+5I1Jdu/eXbZs2WgVyH25dzFxwYIF9evX79Gjxw8//BBtgyNt7ty51atXL1++fOl9ypUrN3r06GgngJyW8LArSAQAAOQDV1999dixY6NVAAAoWFJTUwcOHHjJJZdUqVLlxhtvfOGFF1atWhXtRPZ89NFHF154YbSaSPny5bdv3x6tArksVy8mbt26tUuXLhdffPHy5cujbXCkzZ07t2rVqmXKlCldunTFihXffPPNaA+AnJbwsCtIBAAAJLvVq1dXr15927Zt0QYAAMj/du7cOWvWrL/+9a/nnHPOeeedd++9986dO3f37t3RfuSQAQMG3HfffdFqIjVr1ly3bl20CuSyPLiYOHTo0OA/eK6+BBye4DtA5cqVwzsSLVq0KNoMkNMSHnYFiQAAgGQ3dOjQu+66K1oFAID8bPPmzRMmTLj55purVq3asmXLIUOGLFmyJNqJXBDs7VmzZkWridSrV+/rr7+OVoFcljcXE6dPn169evVBgwZFGyD3ffvtt+8e3BNPPPHrX//6tNNO++c//xltOwr861//iu4vIDe9m+iwK0gEAAAku0suueS9996LVgEAIB9asWLFyJEj27ZtW6VKlU6dOr344ovffPNNtBO5ZtOmTcGe37lzZ7QhkT/84Q9paWnRKpDL8uxi4ueff37BBRd07drVQwzJS3PmzClRokRKpooVK3bqqadGq0eNxo0b+18JeSbhYVeQCAAASGqrVq2qUaPGrl27og0AAJB/rFix4u9//3uLFi2CL7d33nnnG2+84QrZETF16tQOHTpEqwfRvHnzjz76KFoFclleXkzcunXrtddee8kll6xZsybaBrnj7LPPrlix4pQpU97N1NNPPx0tHR2efPLJwoUL9+rVK7rjgNzxbqLDriARAACQ1J577rnbbrstWgUAgPxg+fLlTzzxRIsWLWrWrNmtW7dZs2aJyB9Zd99997Bhw6LVg2jbtq17o0Ley+OLiXv37n3kkUd+85vffPLJJ9E2yGlffvll8PZ+8sknow3Ead++/SmnnLJjx45oA5ALEh52BYkAAICk1qVLl3HjxkWrAACQxL7++uthw4Y1b948lh/avXt3tBNHwoUXXrhgwYJo9SCuueaaN954I1oFctkRuZj42muv1a5de+7cudEGyFHvvfde8PaeNm1atIE4r7/+erCXJk+eHG0AckHCw64gEQAAkNRq1669YsWKaBUAAJJP8MX18ccfv+SSS2rVqtW9e/f33ntPfiipbNiwoWrVqln/odx8883//Oc/o1Uglx2pi4lz5swJPr2nTJkSbYCcc6Te3vnLzp07S5UqlfVHkQLZkfBzSZAIAABIXsuWLTvnnHOiVQAASCabN29+/vnnL7vssho1atx1112zZ8/OelSFvPT6668f0lXJbt26BT/ZaBXIZUfwYmJqamqdOnWee+65aAPkkEze3sHbb9y4cS+88MKsWbN++OGHaPNh+fDDD3v06HH11VcHh7///ve/vXr1CiaGDx8e7ZcFS5YsmZ/Bt99+GzRFhs3Oq8R07dr1hBNO+P7776MNQE5L+LkkSAQAACSvqVOnXn311dEqAAAkgZ07dwbfV2+44YaqVaveeOONb7zxRlCJdiKZ/N//+3+HDRsWrR7cPffcM2LEiGgVyGVH9mLil19++dvf/nbAgAHRBsgJCd/ec+bMqV27dkqcn//85++88058n8OwcOHCIkWKBKMdc8wxxx577AcffFCzZs1g9pprrol2zYKmTZvGr2Fo5MiRQVNk2Oy8SszMmTODQcaMGRNtAHJaws8lQSIAACB5DRkypG/fvtEqAAAcUfPnz+/Vq1eNGjUuv/zyF154YfPmzdEeJKXGjRv/+9//jlYP7sEHHxw0aFC0CuSyI34x8dtvv23SpEnPnj337NkTbYPsyfj2njNnzrHHHhsUCxcufOmll95xxx2tWrU66aSTnn766VifwxMcxYJhixUrtnHjxrAyadKk0aNHz50798COWRIGiYoUKVI/zquvvpqeYdgcCRLt3bu3XLlywQ6JNgA5LePnUrogEQAAkMxuvvnmcePGRasAAHAkLFu27JFHHqlfv/4FF1wwZMiQFStWRHuQxLZu3Vq5cuVDumvU0KFDH3jggWgVyGXJcDEx+MRo27btDTfcsGPHjmgbZEPGt3edOnVS9t00KP4WRJs2bVq6dGk4PWnSpMsuu+zMM88899xzb7vttuDbSKxb9+7d27Vr98QTT0ycOPHCCy8MvqL06dNn165dQVPfvn1r1KgRjFy0aNF2++zZsyfWP1w86NmvX79gqWDZsWPHDh8+PGj9y1/+Ehs/XhgkKlmyZLQhbjXC2YxBotdff71169ZnnXXWeeed16tXr/Xr14f1RYsWXXvttcEKBDuhSZMmwTgbNmyILRXMFitWLL4C5IaMn0vpgkQAAEAya9y48aJFi6JVAADIQ9u3b3/ppZdatmx55pln3nPPPR9//HG0B/nBzJkzL7vssmg1U0899VTv3r2jVSCXJcnFxJ07d95www1XXXXVDz/8EG2DwxV5e3/++ecp+7Rp0+aAfvvdf//9YYfjjjuuUKFCwcTJJ5+cmpoatoaRnTJlyoR9Qg899FD6vlNq8cXArl27IhGf22+/PWwKn4AWjlOtWrX9L36AMEh04oknvhLn+++/T8+QHIrM9u/fP3yVYORTTjklmKhaterGjRs3bNgQzpYtWzb4inXSSScF02lpaf/7eunpCxYsSNn/9DQg9yQ87AoSAQAASWr37t0VK1bctm1btAEAAPLExx9/3LNnz+rVq19zzTVvvvlm8AU12oP8Y8CAAf369YtWM/XSSy/dcccd0SqQy5LnYmLwsf+nP/2pXbt227dvj7bBYYm8vd9+++0wZJPwBngrV64MIz7Bm3DXrl1ffPFFqVKlgtkWLVqEHcLITtDnjTfeWLt2bfCNJZj93e9+FzRt2LAhOIQFsyeddNLqfWL9w4jPihUrwsHbtGmzY8eOhQsXFi9ePOWngkQR4e2RMgkSrVq1qmjRosFs37590/et1amnnhrM3nPPPe+9917KvoBUmEbau3fv7NmzY09hCwVb1KhRo/gKkOMSHnYFiQAAgCS1fPnyunXrRqsAAJDLtmzZ8uyzzzZp0qRevXqDBw8Or72R31155ZVvvvlmtJqp11577cYbb4xWgVyWVBcTd+/efcstt1xxxRX+zIkcEXl7T58+PUzk3HPPPQf022fcuHFh63vvvRdWrr/++mD2+OOPD2fDyE7wjSWcve6664LZihUrhrN//etfg9kSJUqEs7H+YcRn8uTJ4eAzZ84MW1u1apXyU0GiYsWKtY7zzTffpGcaJBo/fnz4Ks2aNQufsBYGiRo2bBh8vzr22GOD6VKlSl1wwQW33nprxv/1ffr0KVy48MqVKyN1IAclPOwKEgEAAEnq448/vvjii6NVAADINfPmzbvjjjuqVq160003zZgxY+/evdEe5E979uypVq3a+vXrow2Zeueddzp06BCtArks2S4mBh8gt99+e+vWrcP7pkB2RN7ea9asCR9YlvC+O88991yYwlmwYEFYCR9GVqRIkXA2kuDp0qVLMHv66aeHs5kHiV555ZVw8Pfffz9sveKKK1J+KkhUsmTJaEOG1YifjW1CpUqVqsVp1apV+r4bMl100UXhQ81CEyZM+HHc9PQlS5YExYEDB8YXgZyV8LArSAQAACSpmTNnXnHFFdEqAADktA0bNowYMeKCCy5o0KDBk08+uW7dumgP8rm0tLTzzz8/Wv0p//rXv8IrnUBeSsKLiXv27LnzzjuDDwRZIrIp49u7WbNmYYZm8ODBseK///3vefPmzZ8/P2waOnRo+r6Hf51zzjnBbM2aNcNu2QkSLV26NBy8Z8+ewezatWtLliyZktNBog8//DB8lYkTJ8b6b9++/auvvtq1a1fwPyt933Z9+eWXtWvXDrp17tw51i1Ub59IEchBGT+X0gWJAACApPXqq6/edNNN0SoAAOSc1NTUbt26Va1a9bbbbps3b160mYLihRdeuP3226PVn/Lxxx/HnhcD5JnkvJi4d+/e7t27X3rppVu3bo22QZZlfHt/8cUX4dO+UvZlgBo1alShQoVg+umnnw5aGzRoEEwfd9xxnTt3btiwYdht1KhR4bLZCRIFWrduHQ5YrVq1oFvx4sXD6Vj/eIcXJAoEWxTMnnLKKT169Ojfv/91110XDPLII4+kpaWVLVu2a9euDz744N/+9reTTz456Hbvvff+76D7DRw4MKgvWbIkUgdySsbPpXRBIgAAIGk9++yz4R9FAQBAztq9e/eUKVMuu+yys88++7HHHjvUJ16R7/To0eOpp56KVn/Kf//7/9i783gq9vh/4FfLvd+2W/d2lzbSniwRSkkbrdKVSNq0uHLbKCW30oa0KEqrpE2LNinty6WicitXCSktspQSp4UI/T4/822+p49zTgczOcvr+YfHOe/PZz7zmTmfM3Nm5m3mobGxMR0FAJ7J7MXE0tLSefPmWVhYvHv3ji4DkI7I4Z2enj5mzJg6deowaT1E9+7d4+LiSNGrV69sbGxq1qzJxBs3bix846IqJhLl5uba2dnVrVv3119/9fDwsLW1JaU6OjpsfWGVTiR6/fr12LFja9euzSyCioqKrq7uuXPn0tLSWrduzQSJGjVqkB9m5b9cGRkZZPGXLl1KxQGAKyK3S0gkAgAAAAAAGeXv7+/j40NHAQAAAACq4PXr1xs2bOjSpcsff/xx4sSJjx8/0jVAEQ0cOPDmzZt09GuysrL09PToKADwTMYvJrq5uQ0fPjw/P58uAJCChOFdWFh4//79hIQEgUBAFZFIfHw8KS0uLqaKqiIzM5P9IZSXl9esWTPSNzs7uy9rceP9+/dk0ZKTk9+8eSMcz83NTSxTfqlZffv27dixIx0FAI6I3C4hkQgAAAAAAGSUp6fnxo0b6SgAAAAAQKXcu3fP1dW1Q4cOs2bNSkhIoItBcRUWFrZu3frDhw90wdcIBIL27dvTUQDgmYxfTCwtLZ05c6atrS3ZttBlAF8jU8Pbz8+vefPm1tbWdnZ2TZo0IR2rW7dufHw8Xa+6bdu2jfTt9u3bdAEAcEHkdgmJRAAAAAAAIKO8vLw2bNhARwEAAAAAKkL4KWYBAQF4ipkSiouLMzMzo6NS+Pjxo6qqKh0FAJ7J/sVEsmdxdHS0t7fHbe2gomRqeJ89e5b8OqpXr56Kisqvv/5qbW0tg1lEn8puJ/n999/PmTOHLgAALojcLiGRCAAAAAAAZNTy5cvXrVtHRwEAAAAApPPhw4ft27d37doVTzFTcjt37nR1daWj0lFTU8NNRwC+Mbm4mEj2Kfb29o6Ojtw+agoUnlwMbxk0bNgwVVXV0tJSugAAqkzkdgmJRAAAAAAAIKNWrFjh7+9PRwEAAAAAviYvL4/8ktTW1p44cSIehAGzZs3as2cPHZWOhobG69ev6SgA8EleLiYWFhaOGjVq5syZSG4A6cnL8JY1+/fvJ+stKiqKLgCAKhO5XUIiEQAAAAAAyKjVq1evWbOGjgIAAAAAiJeVlbVkyRINDY1Zs2Y9ePCALgalZGpqWulntejr66enp9NRAOCTHF1MLCgoGD58uJubG10AIIYcDW+Z8v79+/r16zs5OdEFAFBlIrdLSCQCAAAAAAAZtWbNmtWrV9NRAAAAAABRHj58OHv2bA0NjcWLF2dlZdHFoKyKiopatWr14cMHukA6vXr1un//Ph0FAD7J18XEd+/emZubL1myhC4AEOXEiRNkePv5+f0DFWRmZtawYcOIiAi6AEChfYOM9n9E7XaRSAQAAAAAADLK39/fx8eHjgIAAAAAfOm///6bNGmStra2n59fXl4eXQzKLSEhoU+fPnRUaoMGDYqLi6OjAMAnubuYSHY9pqamZB9EFwCUQ8bJdwAAFaGrq3v16lV6a8IdkbtdJBIBAAAAAICM2r1799y5c+koAAAAAMBnV65csba2NjQ03L59e0FBAV0M8OlTaGjotGnT6KjURowYweuVGwAoTx4vJmZnZ/fo0SM4OJguAPhSREQEGd7+/v6RUEEXLlwg6w13JAJls3HjxlatWjVs2JC//5f4R9RuF4lEAAAAAAAgoyIiIiZPnkxHAQAAAAA+fbpx44aVlZWxsfHhw4c/fvxIFwN8tmjRok2bNtFRqY0bN+7cuXN0FAD4JKcXE589e6avr0/2SnQBgBA5Hd4AUI1OnjxJthv8pbaL3C4hkQgAAAAAAGTUtWvXLC0t6SgAAAAAKLfbt2/b2toaGRmFhoYWFxfTxQBfGjFiRFRUFB2VmpOTU1hYGB0FAD7J78XEBw8edO7c+cyZM3QBwGfyO7wBoLrwvd0Q2T4SiQAAAAAAQEalpKSYmJjQUQAAAABQVnfv3h03bpy+vn5ISEhRURFdDCBKx44dX716RUel5urqunfvXjoKAHyS64uJ8fHxWlpa/N03AuSdXA9vAKgWfG83RLaPRCIAAAAAAJBRr1690tTUpKMAAAAAoHySkpImT56sq6u7Y8cOpBCB9DIyMsiwoaMV4eHhERgYSEcBgE/yfjHx2rVrWlpacXFxdAGA/A9vAPj2+N5uiGwfiUQAAAAAACCjSkpK1NXVCwoK6AIAAAAAUBoPHz50cnLS0dHZunVrYWEhXQwg0cWLF21tbeloRfj4+Pj7+9NRAOCTAlxMvHDhAtlzJScn0wWg9BRgeAPAN8b3dkNk+0gkAgAAAAAA2WVjYxMREUFHAQAAAEAJPHv2bMaMGdra2hs2bMjPz6eLAaSwadOmRYsW0dGKWLdu3fLly+koAPBJMS4mhoWF6enpPX36lC4A5aYYwxsAviW+txsi20ciEQAAAAAAyK6wsLBRo0bRUQAAAABQaG/evFm+fLmGhsaaNWvevn1LFwNIzdnZee/evXS0IoKCghYsWEBHAYBPCnMxcffu3UZGRs+fP6cLQIkpzPAGgG+G7+2GyPaRSAQAAAAAALIrPz9fTU2NjgIAAACAgiouLt69e7eOjs7s2bNx5RWqbtCgQbdu3aKjFbFv375Zs2bRUQDgkyJdTAwICOjTp09ubi5dAMpKkYY3AHwbfG83RLavXIlET58+/eebi46OxqO7AQAAAAAq58OHD+rq6nQUAAAAABTRpUuXevXqNXLkyHv37tFlABVXWlrapk2bKt7UKjw83NHRkY4CAJ/+qdaLiZzz8vIaMmTIu3fv6AJQSgo2vAHgG+B7uyGyfSVKJCL76Zo1a35XHRo1auTu7l5QUED3CQAAAAAAJHr58qWWlhYdBQAAAADFkpSUZGtra2JicuHCBboMoLKePHliYGBARyuIjMmxY8fSUQDgE7cXE4uKijZv3rxy5cpV1WT58uUODg42Nja47wB84np4A4Ay4Hu7IbJ9ZUkkev78ec2aNcnP/X++uWPHjtnZ2ZG5m5qa0t0CAAAAAACJHj161L17dzoKAAAAAIoiOzvb1dVVR0dn586dHz9+pIsBquDs2bNjxoyhoxUUExMzfPhwOgoAfPqHu4uJhYWFbm5uKSkpguqTl5e3ZMkSBweHCRMmYE8HHA5vAFASfG83RLavLIlEV69eJfOtxn9nCQ4OJh04deoUXQAAAAAAAOLFx8cPGDCAjgIAAACA/CsoKPDz8+vUqZOXl5dAIKCLAaosICBg2bJldLSCyCHJwIED6SgA8InDi4mbN2+u3iwiRnJyckhIyPjx452cnIqLi+legjLhcHgDgJLge7shsn1lSSSqrvmyioqKfvnll6r/9wMAAAAAgFK5cuWKtbU1HQUAAAAAOXf27FlDQ0MnJ6e0tDS6DIAjzs7Oe/fupaMV9ODBg549e9JRAOAThxf1VqxYQSf1VJNly5YVFhba2tqSTVNpaSndUVAaHA5vAFASfG83RLavvIlE7u7uY8aM2bp16/9VqjLJbZKj4vr1679//54uAAAAAAAAMU6dOjVx4kQ6CgAAAAByKyMjg/zAMzY2jo6OpssAOGVhYREbG0tHKygzM7NLly50FAD4VP6iXqXJTiLRzp07U1JS8vPzLS0t582bR3cUlAaHwxsAlATf2w2R7StvIpGmpiaJ2Nvbs5Gqk9xmVFQUKd2/fz9dAAAAAAAAYpDfzy4uLnQUAAAAAOTQx48fN2/e3KlTJz8/v6KiIroYgGsdO3bMycmhoxWUl5fXoUMHOgoAfCp/Ua/SZCeR6Pnz56tXryZdevv27ZAhQ5YsWUL3FZQDh8MbAJQE39sNke0jkciejVSd5DZLS0tVVVWHDRtGFwAAAAAAgBiBgYGLFi2iowAAAAAgb/79999+/frZ2dk9efKELgPgwcuXLzt16kRHK66oqEhVVZWOAgCfyl/UqzTZSSQiPD09mTxa8trMzGzlypV0d0EJcDi8AUBJ8L3dENk+EonsQ0NDe/fu3aVLlyVLlrD/BxMcHGxtbW1kZKSlpWViYjJ//vzXr1+z0164cIEc8erp6enr648ePTohIYFqk7wuLCx0cXGxtbWdPn16fn4+U2HOnDnff/+9cFMAAAAAACDB6tWrfX196SgAAAAAyI+8vDxXV1c9Pb3jx4/TZQC8uX79uoWFBR2tFFVVVdxDC+BbKn9Rr9JkKpHoypUrERERTMdycnJ69+69Zs2aL/sLio/D4Q0ASoLv7YbI9pU9kahp06bkb61atb4rM23aNKbU1NS0Xr16GhoaWlpaNWrUIEX6+vqlpaWkaOXKlUxlFRWV+vXrkxd79uwRbtPe3r6wsHDYsGHkdfPmzRMTE9mZ3r59mwS3bdvGRgAAAAAAQAIPD4/AwEA6CgAAAABy4uDBgzo6OuRH3Zs3b+gyAD6FhITMmjWLjlZKx44dc3Nz6SgA8Kb8Rb1Kk6lEIkL4iWYvX77s06cP6aFQf0HxcTi8AUBJ8L3dENm+sicS/c///M+tW7eKiors7Oy+K8soSk9PJ6WxsbGFhYVMzdOnT5clDn1348aNzMzM2rVrk9fGxsYvXrwgpQkJCXfu3BFukzTFZBG1adPm8ePH/zu/z8ghR9++fakgAAAAAACI5OzsfODAAToKAAAAADLvwYMHw4cPHzx4MHv6FOBbWrJkycaNG+lopejr6zMXDgDg2yh/Ua/SZC2RaNOmTRkZGWz3cnJyTE1Nvby8hLr8v4qLi+kQKAQOh3dVFBUVbd68eZXSGDt2LPkC0muhmhw4cMDb25vuIsitcePG8T26+N5uiGxf2ROJzM3NmbfXrl1jsoWYmwreuHHD2tq6ffv2TZs2/eWXX5iiQ2WY1+fPn2ebYjFt1qxZk/wl02ZmZtI1Pn1aunQpqSD8KwEAAAAAAMSZOHHi6dOn6SgAAAAAyLCPHz/6+/tramru2LGjpKSELgb4JsaPH3/mzBk6WikmJiYpKSl0FAB4U/6iXqXJWiLR06dP169fL9zD3NzcAQMGLF68WDhIREdHv337lgqCAuBweFdaYWGhm5sb2bXRA1RxLVu2bO3atQKesz2kERkZefDgQbp/IM88PT29vLwEfI4uvrcbIttX9kSikSNHMm/j4+OZDKHQ0NBnz541aNCAvNbW1nZ2dnZwcGCK9u/fv3v3buZ1bGws2xSLaZN5UBpp4dq1a3SNT5/IRpmUkk0VXQAAAAAAAOWMGDHi6tWrzGuRmfoAAAAAIFMSExMHDBhgY2ODO7hA9TIxMbl//z4drZRBgwbFxcXRUQDgTfmLepUma4lExNKlS0tLS4U7SYKDBw9esGCBcDApKQlPPVNIHA7vStu8ebNSZRER3t7eeXl5spBL5OXlRXpC9w/kGTO6eM0l4nu7IbJ9ZU8kUlNTYx5htmHDBiZD6Pbt2wcPHmReP3nyhBRFREQwb/fv33/z5k3m9fz589mm2Ixgps3Ro0eT/T150bBhQ1KfrcYyLENHAQAAAACUG/twYWH9+/dnnoURGhp648YNuhgAAAAAZMbHjx/Xrl3boUOH4OBg6hIpwDdWUlKirq7+4cMHuqBSrKysoqOj6SgA8Kb8Rb1Kk8FEotOnT0dGRlL9fPPmjYWFxZw5c9gnmhUVFbVr1w7/UqV4OBzelbZ8+XJ6XCo6b29v8lcWcomYdBNQJOzo4i+XiO/thsj2lT2RSEVFRVdXd/To0T/88AN527VrV1IUExPDZAuRwwNPT89mzZoxb/fv309KTU1NmbcDBw50cnLS19ffs2ePcJv29vb5+fkmJibk9c8///zff/+xM2WQLRQpwq1QAQAAAACEkV/RK1asePbsmXDQyMjo8ePH9+/fb9OmDVeXAQAAAACAc/fu3TMzM7OwsCA/3ugygG8uLS1NX1+fjlbWuHHjzp07R0cBgDflL+pVmgwmEuXl5Xl6etId/fTp3bt3tra2EyZMyM/PZyLGxsbjx4//shbIPQ6Hd6XJ4PeCb0yqh0AGconYnoDCEB5dPOUS8b3dENm+sicS2djYmJubM4lB7du3T0pKYkpdXFxUVFS+K7ur0Lp165gKTCIRGQFkL/79998zwR9++OHEiRPCbdrb238quw9hly5dyNtffvklISHhf+daJiMjo2bNmkuXLhUOAgAAAADA/fv3yY9qDw+PoqIiJkLepqend+vWzcDA4Mu6AAAAACATSkpKNm3a1K5dO/KXvKaLAapDVFSUtbU1Ha0sJyenY8eO0VEA4E35i3qVJpsJE2vXrn39+jXd17J7+82cOdPc3DwnJ4e8dXBwaNq0KXWREeQdh8O70mTze8Er4fSd6s0lQiKR4qFGFx+5RHxvN0S2r7yJRMLS0tISExOpo9xXr17dvXu3oKBAOMjKz88ne+6kpCQ2L7hC+vbt27FjRzoKAAAAAKD0QkNDmzRpoqGhceHCBfK2ZcuWTk5OTZs2/euvv+iqAAAAAFDd0tPTraysBgwYkJycTJcBVJ9du3bNmTOHjlbW7Nmz9+7dS0cBgDeSL+pViGwmTNy/fz8oKIju62ekzz169Hj8+PGqVatatGgxePBgugbIMw6Hd6XJ5veCV1T6TjXmEiGRSPGUH12c5xLxvd0Q2T4SiarHtm3bSH9u375NFwAAAAAAKD1nZ+dWrVqpq6vb2dk1b968ffv2ampqR48epesBAAAAQLU6fPhwp06dfH19P378SJcBVKslS5Zs3LiRjlaWh4dHYGAgHQUA3nB4UU9mEybIZoruq5CQkBBdXd1169Z17Nixbdu258+fp2uA3OJweFeazH4v+FM+fae6conK9wTkXfnPlPNcIr63GyLbRyJR9Xj9+vX333/P4b9EAAAAAAAojPz8fGNj41Zl1NXVmzRpQl48e/aMrgcAAAAA1UQgEDg6Ovbp0+fOnTt0GYAMmDBhwunTp+loZfn4+Pj7+9NRAOANhxf1ZDZh4siRI5JvN3D+/HldXd02bdo0bdq0W7duxcXFdA2QTxwO70qT2e8Ff8qnegiqKZdIZE9Aron8TLnNJeJ7uyGyfSQSVZthw4apqqqWlpbSBQAAAAAASu/+/ftt2rRp8lmHDh3oGgAAAABQTW7dumVoaPj3338XFhbSZQCyoXfv3omJiXS0statW7d8+XI6CgC84fCinswmTLx69ar8hqWoqIhsu3bs2DFr1iwLCwttbe2mTZs2adJEU1Nz9+7dVGWQUxwO70qT2e8Ff1auXPns2TM6Wh25RCKTTkCuSRhdXOUS8b3dENk+Eomqzf79+0mXoqKi6AIAAAAAAPj06cCBA61atWISicaMGUMXAwAAAMA3V1paGhAQoKGhcfz4cboMQJa0bt363bt3dLSygoKCFixYQEcBgDccXtST5YSJlStXvn///lNZ/tClS5emTp2qpqbGnAZp0aIF+79VRNOmTTU1Nd++fUsvHsghDod3pcny94In6enpZKmXL1/uXY6np+f48ePpdcQbbyQSKRwJo2vZsmVjx46lB0HF8b3dENk+EomqDflxUL9+fScnJ7oAAAAAAADKTJo0qXnz5p06ddq0aRNdBgAAAADfVnZ2tq2trZmZ2aNHj+gyAFlCxqqWlhYdrYJ9+/bNmjWLjgIAbzi8qCfLCRNxcXH79+8X7m1hYWF8fHxwcLCrq2vv3r1VVVU7dOjQsmXLJk2aaGhokGURrgxyisPhXWmy/L2oFitXrqTXEW+8kUikZFatWkUPgorje7shsn1lSSQ6ceIEma+fn98/soQcdTds2DAiIoIuAAAAAACAf/45e/Zshw4dWrRosWXLFroMAAAAQKJr164VFBTQZwmhsqKjo3V0dNzc3PA4M5B9N2/eHDJkCB2tgvDwcEdHRzoKALz5h7uLiePHj6dvECFLxo4du0o8Hx8fV1fX0aNH9+zZs02bNmpqaosWLaIrAW+2bNlSVFRED6kq43B4VxoSiShIJAL+rEIikZT4bl8cPz+/7wAAAAAAQN7UqlXrt99+U1FRoQsAAAAAvuZ//ud/1q5dW1paSp8rhAoKCAjo0KFDWFgYXQAgk44ePcrtowAuXLjAyWMpAEBKHF5MVKSEiZcvX2ZkZNBR4E1KSgofKdQcDu9Kk+Z7cffu3cgy0dHR9+7dy8vLo2tU0JIlS3bs2EFHK+jEiRNTpkwZOXLknTt3fHx8tmzZwsSFX1eCLCcSkcMZ8lOcjkqHk3UO4kg56pBIJC2+2xcnIiKCzNff35/Z5MkIcvhBuoQ7EgEAAAAASLBt2zY6BAAAAPA1p0+ftrW1/e6779auXUufKwSpCQSCCRMmmJqapqam0mUAssrf33/58uV0tApiYmKGDx9ORwGAN/9wdzFRmoQJAHFSUlK2bNlCj6qq4XB4V5o034vRo0fXqlXr559/btSoUY0aNX788Ud7e/uHDx/S9aTWu3dvFxcXOloR0dHRtWvXdnNz8/PzIz9NR4wYMX36dKbI3Nz8zz///LJ6BchyItHIkSPHjx9PR6VT9XUOEkg56pBIJC2+2xenuuYLAAAAAAAAAAAA1WXkyJF16tTBM84qJyEhoXv37q6urliBIF/IoA0JCaGjVRAfHz9gwAA6CgC84fCinjQJEwASkCFEj6qq4XB4V5o03wvmmXrM6+zs7LCwMA0NDTU1tcePH39ZUVpVT2pZtWqVpqYmHS0jZUqHOEgkgkqQctQhkUhafLcvTnXNFwAAAAAAAAAAAKrLqVOnvvvuu2vXrtEF8DVHjhzR0tIif+kCAJlnY2MTFRVFR6vgwYMHPXv2pKMAwBsOL+pJkzABIAHnKSYcDu9Kk+Z7IZxIxEhJSalbt+6sWbOYtxs3biQVyM/FUaNGxcXFCdc8fPjw4MGDNTU1e/XqtXbtWiYonNTy8OHDsWPH7ty5k3l78ODBgQMHamtrW1paXr58mQl6eHgEBQWtWbOmW7du48aN8/HxIQ02atTIysrqr7/+IhW8vLxIH5jKVEqHyAYl4PxTluCriUR5eXlk0bp06dK9e/ctW7ZQiUTiVjsn61xQbrWzcWEi5yWuY6TB7du3kwYNDQ3JEoWGhpIFJJ+mvr5+nz59IiIihGuSWZPBaWBgQObOfrgC8Y2Tozzyq09HR4c0TpaODFEmLm7pWIcOHXJ0dBSOrF+/fuHChcxrKfuMRCKO8d2+ONU1XwAAAAAAAAAAAKguOCtYCSUlJZ6enkZGRsnJyXQZgDzo1q3b48eP6WgVZGZm6unp0VEA4A2Hu29pEiYAJOA8xYTD4V1p0nwvyicSEVZWVtra2oKy1VKnTh0fH58jR44MGTKkcePGT548YeqsX7++du3arq6u4eHh27dvZxNZ2KSWmzdvtmzZ0snJKTc3V1CWI1KvXr2lS5ceP37c3d2dNBsTE8PUb9asmbm5+c6dOw8dOnThwoWRI0eqq6vv3r2bzFTwZRqH8GtxDUrA+acswVcTiUjP69evv3bt2oMHD5KP4Pfff2cTicStdq7WOTOJ8GpngsJEzktcxwSfGyTD6cCBA9OmTatVq9a4cePs7e3J28mTJ9etWzc1NZWtSRb2jz/+II2QvpG5BAUFSWg8Ozv7119/JY1ERESQrrq5ud2+fVsgcelYiYmJNWvWvHTpEvP21atXpCk/Pz/mrZR9RiIRx/huX5zqmi8AAAAAAHCuqKiIDgEAAACIgrOCFSUou240cuTI3NxcugxAHhQXF6upqXF7yEC+F+3bt6ejAMAbDnff0iRMAEjAeYoJh8O70qT5XohMJJo9e/bPP/+ck5PTqFEjT09PJkjeqqqqurm5CcoSMn766af58+d/MVkZJqnlzJkzjRs39vLyYoJk2l9++WXVqlVstTFjxlhbWzP1O3bsmJeXxxYtWbJEV1eXfSsykUhCgxJw/ilLIDmRiKxAsm59fX2Zt+np6T/++COTSCRutXO4zplJqNUuTOS8xHWMeUsa1NfXZ16TZps1a2ZsbMy8ff36NWktODiYramurs6kOhHOzs7k15eExuPi4shXKSkpiSliK0hYOmFDhgxhM7R27dpVr169jIwM5q2UfUYiEcf4bl+c6povAAAAAICCeffuXdqXYmNjw4QEBQV5f7Zs2TJXV1cnJ6eJZezs7KzKDBgwwMzMzMTEpPtnnTt31tDQ6CCkZcuWLb7URAi3FwYAAABAUeGsYIU8fPjQ2NjYw8OjuLiYLgOQE5mZmbq6unS0asjRh6qqKh0FAN5wuPuWJmECQALOU0w4HN6VJs33QmQikbOz82+//cYkcFy7do2Njxs3btCgQeRFTEwMKSp/AxhBWXKGnp5e/fr12adrCcoeTUXqT5o0yd3dfd68eW5ubv369dPU1GTqT548+f+mly6RSEKDEnD+KUsgOZHo9u3bpP83b95kI6T/TL6LuNXO4TpnJhFe7QkJCes/I30TOS9xHWNekwaZR9Exunbtyt4wiSDzXb58OfOa1LS3t2eLjh07pqKiwvRWZOM5OTmdOnVSU1MjwzI8PPzVq1eCry2dsCNHjtStW5dJHurTp8+ECRPYIin7jEQijvHdvjjVNV8AAAAAAM4VFRUJ5/E8fvw4WsiVK1dCv7R27VpyPOzxmYODg91nlpaW/fv379mzp7GxsWEZfX39du3atfmsdevWzZo1E87gIVq0aNG8eXPhCDlma/lZ27ZtdYR07969V69eZmUGDx7MJBKRQ76JEydOnTrV9bNly5b5+fkFCjl+/PiNL2VnZ5PFv3PnjqmpKb1SAAAAAETBWUHpRUZGamlp7d+/ny4AkCuxsbEWFhZ0tMrIIU9hYSEdBQB+cLj7liZhAkACzlNMOBzelSbN90JkIpGpqWm3bt2io6PJIsTHx7NxR0dHExMT8oJZuri4OLaI1bt37+7du9etW5esUjZ46dIlUt/Z2XmJkLVr1zL1hbM3BNIlEkloUALOP2UJJCcSMes2MTGRjZBfNUwikbjVzuE6ZyYRXu3nz583/ezYsWMi5yWuY8xrqkEjIyN3d3f2LTn6YO82RGo6OTmxRefOnSPNnjp1SkLjmZmZ/v7+Q4cObdCggbq6OqkmeemE5eXlkUn8/PzIVCoqKlFRUWyRlH1GIhHH+G5fnOqaLwAAAAAoPHLUIZzWc/36dTanh/z+FE7oCQwM9BXi5ubmLGTkyJFMkg0xfPjwLl266JXp3LmzpqamcNYO0a5dO+a2PUy6DzmA6dSpExNp3749mwYknO5D4kwFHR2dnp8xmT1MUtGMGTOYnpDjq82fkT6TAzBmcWJjY9nFTE9Pp1fEt3L06NEpU6bQUQAAAABRcFZQSiEhIeRnJ/m9RxcAyBtyvODk5ERHq0xDQ+P169d0FAD4weHuW5qECQAJOE8x4XB4V5o034vyiURRUVE1a9b08fHJyMhQUVHZt28fW2RsbMzcS+bp06c1atQQvv8Ni0nOOH36dIMGDZYuXcoEnzx5Qurv2bPny7r/X+USiSQ0KAHnn7IEkhOJ0tPTybo9cuQIG2nbti2TSCRutXO4zgWiVrswkfMS1zHmtZRJOYKymgRbtG7duh9//FFy46zMzMz27ds7OztLXjoKWSfa2tqke3p6esJxKfuMRCKO8d2+ONU1XwAAAACoFgUFBUK5PWnXrl1jk3siIiLYzJ6QkBBxmT1OTk5sWg9hYmLC3LCHIIesQik9TVq2bMkWEQMGDDAvM2jQIFNT01GjRpHJ/yjD3o9n4MCBzO15+vTpwyT0kIMWchCio6PDpv60a9eOSSQiR0ekNUtLS1tbW7Z7bJ937drFLAtZLnYZ2QUnxyr0qpF/5DBy+fLldBQAAABAFJwV/KrS0lJvb+8ePXo8evSILgOQQwEBAZ6ennS0ygwMDKrxvykAlA2Hu29pEibu3r0bWSY6OvrevXt5eXl0jSpbsmTJjh076CjPcnNznZycmFubCC/j06dP6aoy4MWLFydOnAgMDDx48CD5FKjS58+fh4WFbdmy5ejRo1lZWcJFZNGEnwPF8vLyOnXqFB2tOM5TTDgc3pUmzfdi9OjR+vr6cXFxt27dOnv27IIFCxo0aNCzZ8/s7GxSam1traWllZKSQl5v27ZNRUXl0qVLzIQ2NjatWrW6fv26oOzhU2fOnGHibHIGqdmoUSM2M2PUqFHq6urs07JiY2PDw8OF67OkSSQSiG9QAs4/ZQkkJxIRlpaWZM0z31PSsRo1ajCJRALxq52rdS48iTgi5yWuY4JyDYpLyhGU1axZs+bevXvJa7LhInOZPn26QHzjCQkJZINANnSCsuwoUp9JlpKwdGQbQoYK85oghz8//PBDnTp11q9fzwYFUvcZiUQc47t9caprvgAAAABQHjngZDNdyLEom/5y8uRJNsWHHBWwuTLLli1jE2jI8YNwfk/37t3ZDJ42bdoI5/cI5fYYDho0iJ1kzJgxbGsEOXJmZ7R161Yy63379jE349m1a1dgYCB5QQ7w1qxZwz4dzMHBYebMmZMnT2Ya7NOnDzOXFi1aMLM2MDAgb42NjZkKEyZMYOa1aNEiZkZBQUHMYp47d45Z9uTkZGaFFBQU0OsLvkSO3IKDg+koAAAAgCg4KyjZhw8fHB0dLS0tc3Nz6TIA+TRv3jw+jhd69ep1//59OgoA/OBw9y1lwkStWrV+/vnnRo0a1ahR48cff7S3t3/48CFdrxwHBwf2Jh+SffXaPB8CAgKMjIyY1+wyNmjQgKzbPn36MFflK0H6pZbe+fPnmzZt+uuvv5IOt27dmnwKwrPYsWMH6XmTJk169OhBqv3000/CWVnlb5zD2LdvX8eOHV+/fk0XVBDnKSYcDu9Kk/J78V2ZmjVrNm7c2MTExM/PLycnhyklXxCy2skn1bBhwzp16vj4+LATZmRkDB8+XEVFhUz1/fffDxo0iIkLfwuio6N/+eUXZ2dn8jorK2vs2LFkfJJPtm7duuSvv78/VZ8hZSKRuAYl4PxTluCriUTJycna2tq1a9cmWySyEthHmwnEr3au1jk1iUgi5yWuY4JyDYpLyhGU1SRL2rlzZ9IyaYoMufT0dIH4xmNiYn777TfSh+bNm//www9Dhw59/vy5QOLSkVmTLTzzmmFjY0O2ilR6opR9RiIRx/huX5zqmi8AAACAPCopKWETfVJSUthEn9OnT7OJPps3b2bzb+bPn8/m5ZCf6WzKDvnNzabytGrVik3xad++PRs3NTVl6wun+MyZM4dtf82aNex8CebfpxiJiYlsV1+9eiW8FO/evWPiTM0TJ06QaXft2sW0OXv2bDIXe3t7Ml9yPMZ0pmXLlqR75NiDeWtmZsZ0bObMmaTyggULmGlDQkJIU2FhYUzLCQkJzIw+fPgg3AHgiYODA/k06SgAAACAKDgrKEFOTg75JTx16tTCwkK6DEBukWPSc+fO0dEqGzx48O3bt+koAPCDw923lAkTbCZKdnZ2WFiYhoaGmpra48ePv6xIGzhw4F9//UVHRfnqtXnO5eXlqaur79q1i3krvIw3btxo0qSJpaXl/9WuCOmXWnpt27Yl/Xn16hXzNjEx8erVq8zr48ePq6iouLm5MSlBubm58+fPJxH2FiPiEonIGmjRooWUTziSgPMUEw6Hd6VJ872QRlJSUkxMDJO9QSFfH1Ikfb5aRkYGqZ+QkFD13C9GhRrk/FOW4KuJRIKy0Xvz5s07d+7QBWXErfZvuc5Fzktcx6TEbifJL674+HiqVFzjTPzJkydUXMqlMzExcXBwoKOcQiKRtPhuX5zqmi8AAAAAr3JycpgUFvJbmc2tEU73Wbt2LZP74uPjw+bosLfSsRK6mw6hqqrK5vro6ekxQSMjI7aycKIPm1VDBAYGsnM8c+YM2xPhLB9B1Z6x9erVK9JIXFwcu4A7d+4ksybHvUx/rK2tSQ979uxJ+tyuXTuyCK1atWIWwdLSkhRNmjTJWSg/iUkGOnXqFGnw+vXrTCffv39Pzxhkj42NzeXLl+koAAAAgCg4KyhOenq6sbExOUygCwDkXN++fe/du0dHq2zEiBFXr16lowDADw5339IkTJTPRElJSalbt+6sWbPI6zNnzjDPeOrWrduMGTOYc1zE2rVrmzZt2rZtW+akWXJysriags8XyElnDAwMSOnGjRvZInFTXbt2zcbGRkdHx9DQcOzYscIX7A8ePDhw4EBtbW1LS8vLly+zcWHh4eFkEZinUAnKLePMmTN///139i3pDynV0tIaNWpUXFwcExTZgfJLnZubu3TpUj09ve7du2/ZssXX13fdunVMCx4eHkFBQWvWrCGLNm7cOCZYvvMvXrwgH/e2bduYCpQuXbp07tyZCpLVyN6ZpvzHxyLr09TUlI5WEOcpJhwO70qT5nuhVDj/lCWQJpFIOX3jhMu7d++SjVWtWrVu375Nl3EKiUTS4rt9caprvgAAAACsvLw8JlslNTWVTbU5evQok39DjqvZvJxZs2YxyTEODg6fc3isjI2NmbQYcvDMpvsI39qHSZchyLE9m+5DjkzYZtlcHzJTtgN37txhevWN02g+fvzIropLly6RXu3YsYN0csmSJaTbEydOJAtCDvXJcrVt25Ysqba2tuHnJ5QxTwpzc3Mj9deuXcss1OXLl0lT9+/fZ0640PMDBWJubn7r1i06CgAAACAKzgqKlJyc3KVLF3IMQhcAyD9ymMzHIeH48ePPnj1LRwGAHxzuvqVJmBCZiWJlZaWtrU1eLF++3MvL69ixY/v27TMyMurRowdTITIyUldXd+DAgbvLZGRkiKspKLtA/vvvv//xxx9HjhxZunRp7dq1yV6YKRI5VXZ29q+//jp58uSIiIhDhw65ubmxl7o3btxYr1490sjx48fd3d3r1KkTExPDzojl4uJibGzMvqWWcezYsa1bt2Zer1y5knlaEOnbkCFDGjdu/OTJE3EdKL/UpA8NGzZct27d4cOHzczMyGKyj2EiS92sWTNzc/OdO3eSRgTiO9+yZUt9ff2LFy9S9w559OgRGQmkh8JBwt/fn8SZx8+J/PgYe/fuJbNgs6kqh/MUEw6Hd6VJ871QKpx/yhIgkUgcS0tLDw8POsobHR2dtm3bCqd18gSJRNLiu31xqmu+AAAAINcyMzOZDBtyqMyk3bA3+wkODmayc1avXs1m7bBP9SJH3Wx+T/PmzamkH+F7/EyZMoWZlhw8sxk/zM1yiGPHjrEZP0yKDEEO0emOygbys5h077///iO9DQ8PJ/1fv349WRxXV1eygDY2NmR5u3btqq+vT9YG8/9Mw4YNI8GpU6eSCj4+PqTynj17yITkZxtp5OHDh2l4XhiUQ75feKYAAAAASAlnBcuLjY3V1tYOCwujCwDk35s3b9q2bUtHufDXX38dPXqUjgIAPzjcfUuTMCEyE2X27Nk///wzFWTyWv7991/mrYSHfFE1e/fura6unpuby7x1dnZmsh4p7FRxcXHkRVJSElUhJyfnl19+WbVqFRsZM2aMtbW1UJX/NWDAAHt7e/YtWUay9z9z5szJkycXLVpUq1atefPmCcoabNSokaenJ1ONvFVVVXVzcxPXAcGXS52dnV2/fv3169czb58/f964cWPhRKKOHTvm5eUxbyV0/sKFC61atSJzrFu3rqmpKZtldeXKFRI8cOAAOwnj2LFjJB4ZGSkQ8/ExyJok1a5fv04XVATnKSYcDu9Kk+Z7oVQ4/5QlQCKRskEikbT4bl+c6povAAAAfHsvXrxgEm5u3rzJpOCwd/0JCAhgMnUWLlzIpO+wD/kaOnQok+VjYGDA3u+nS5cuTHDIkCFMtYkTJzIT/v3332zeD9M4cf78eWaOZNZMH4iPHz/SXZQrxcXFZCmSkpLY9CCyyJ6enmQljB8/nqwTIyMj5iZJHTt2JOuKrEkSnD59uouLi2/Z3YzJJMePHyeT3717lzT17t07eh4AFYFEIgAAAJAezgpSyDGLlpZWZGQkXQCgEO7fv29iYkJHueDq6hoSEkJHAYAfHO6+pUmYEJmJ4uzs/Ntvv5EXqamps2fPJtsWTU1NDQ0NFRWVw4cPM3WoRCIJNXv37i2c1nPs2DFS+vz5c3FT5eTkdOrUSU1NjXQjPDz81atXzITXrl0ja2bSpEnu7u7z5s1zc3Pr168fmZBtmdW1a9cZM2awb8kyfv/9982aNSNtdu/efeXKlWQWJM4kDJFm2Zrjxo0bNGiQuA4IvlxqJlNH+MFA/fv3F04kmjx5MlskufN5eXnkE/fx8SFTkWozZ84kwZiYGPJ6z549bCOM0NBQNkNI5MfHIDsFUu306dN0QUVwnmLC4fCuNGm+F0qF809ZAiQSKRskEkmL7/bFqa75AgAAgPQKCgqYzJuEhAQmHefkyZNMgs7mzZuZlJ2///6byeNh7/3Tq1cvJtdHXV2dyf7R1dVlIszdbohp06YxUzH3vCGCg4OZlk+dOsXM69atW8zcZfZ+P3zIycl5/PgxWXyyHpgMocWLFzuX3T1o0KBBZB2qlSEvTE1NrcpuHTR79mxSjXwipP7FixfJtGSlZWdn000D8Gbw4MFxcXF0FAAAAEAUnBUUduzYMR0dHfyUAgUWGRk5cuRIOsoFDw+PwMBAOgoA/OBw9y1NwoTITBRTU9Nu3bqRF126dBkwYEBYWFhMTExsbGzt2rX37t3L1KESiSTU7N27t5OTE1vz3LlzZAEfP34sYarMzEx/f/+hQ4c2aNBAXV09Pj6eBC9dukQmdHZ2XiJk7dq1bMusvn37Tpw4kX0rchmJ6Oho0iDTOMPR0dHExEQgpgOCL5eaSfS5e/fu56kFQ4YMEU4kcnFxYYuk7zxZV2Q95OTkkD7UrFlz0aJFVAUvL69atWplZGQIxC8acfv2bTLHq1ev0gUVwXmKCYfDu9Kk+V4oFc4/ZQmQSKRskEgkLb7bF6e65gsAAKA8BGWPtUoTegrYoUOHQkNDQ0JCmNydpUuXMtk8zG1siB49ehgaGjIPumoi9OSvwYMHMxXIQSMzCfl5zTTCPPeKiIyMZOaSmprKzLeoqIjuk3LLz88nq+X69eunT5/eu3cvWXvu7u5TpkwhK5YcXevq6jJJV+Q1iTg6Orq6upI6QUFBZPVGf757UHFxMd0uQHUbPnx4TEwMHQUAAAAQBWcFWQcPHiS//5OTk+kCAAWyf/9+Z2dnOsqFFStW+Pn50VEA4AeHu29pEibKZ6JERUXVrFnTx8cnJSWF9OTWrVtMnLwgb9n0IHNz8ylTpjCvJdfsXYZ5Taxbt+7HH3/86lSMzMzM9u3bk40bef3kyZMaNWqUv0NPeQ4ODmZmZuzb8svIyMjIUFFR2bdvHxsxNjYWvnmS4MsOCL5c6qysrFq1au3evZt5+/r16xYtWohLJJK+8+vXrye9IvMVlD2jTVVVVfiWSDk5Oa1atSLdYN6KWzTi+PHj5HNMT0+nCyqC8xQTDod3pUnzvVAqnH/KEiCRSNkgkUhafLcvTnXNFwAAQI4UFRUxGTnx8fFMjg6TsrNt2zYmicfV1ZUcMTo6OjJZPiYmJoaGhkw+CqGjo8OkAQ0fPpyU2traMjlA8+fPZybfvn27cA5QTEwMM7sXL17QXQEpfPjwgaw9siaPHTsWHBxM1jA5MifH+RYWFoZl92ciR/hGRkZMkpCbmxupEBIScvLkSTIJOW4nh9x0iwByYsqUKWTY01EAAAAAUXBWkLFnz54uXbqkpqbSBQCKZe3atStWrKCjXAgICPD29qajAMAPDnff0iRMjB49Wl9fPy4u7tatW2fPnl2wYEGDBg169uyZnZ39/Pnz2rVr+/n5kWrp6en9+vVTUVFhE32cnJy6dev24MGDzMzMrKwsCTV79+5ds2ZN5m1iYmKrVq2mT59OXotrPyEh4ejRo7m5uYKy/BtSf+nSpUxTo0aNUldXj4mJYd7GxsaGh4czr4Xt2rXrp59+YloQSMy2sba21tLSSklJIa+3bdtGOnDp0iUJHRBe6ry8vAkTJpDS8+fPk+UiRXXr1hWXSCQQ0/mXL1+OHDmStPDixQsSvHHjhoaGhqGhIVOHvK1Xr56FhUVycrKgLPXK0tLyxx9/ZJ+nRhaN/Mj5V0hSUhJTtHDhQvLJMq8rjfMUEw6Hd6VJ871QKpx/yhIgkUjZIJFIWny3L051zRcAAODbY7Jz7ty5Ex0dHRkZyeTuBAQE+Pr6enp6Msk95NjMyspq8ODBTOpPy5YtmzRp0qFDB+YtORgjpWPHjmUqM3cD8vf3Z5oih9PCaUDkeJLuAXDkzZs3qampZG0fPnx406ZN5HB9+vTpzJ2c2pchL8hbEly8eDHzAZFfO3FxceRzKSkpoZsDUBR4pgAAAABID2cFiW3btnXt2vXJkyd0AYDCmTNnzu7du+koF7Zv3z5//nw6CgD84HD3LU3CxOjRo78rU7NmzcaNG5uYmPj5+eXk5DClq1ev/v7773///fd69ep5e3vXrVuXTQ+Kj483MjKqU6cOmfbff/+VULN3797jx4/v3Lkzab9GjRpkFuxtckROFRMT89tvv5F48+bNf/jhh6FDhz5//pypn5WVNXbs2Fq1av3000+kMvnr7+/PFAkj9UnR8ePHmbcSEokePnxIikivGjZsSJbFx8dHUPbMMnEdoJY6MzPTzs6OdJ7MzsXFhdScMWMGU7N8IpHIzpNVPWDAANIg6QPTbN++fYUfl3b58mVDQ0MVFZX69euTv5qamtevX2dL2Y+PZWpqyhTp6OisWbOGrVk5nKeYcDi8K02a74VS4fxTlgCJRMoGiUTS4rt9caprvgAAAJX25s2btLQ0Jo+EvTnQxo0bfX19ly1b5uzsPHPmTObOQL169SKHUp06dWrSpEm7du2YZCCmaNKkSaQm88gqYufOnaSRsLAwps2UlBQyC3KwR88bvqHs7Ow7d+6cOXOGfDrkQJ35WLt3766urq6trd2vX7+RI0eSD5EUBQUFhYeHMylcHz58oBsCUBobNmzw8vKiowAAAACi4Kzgpk2byPFFeno6XQCgiMaMGXP+/Hk6yoUDBw448/PQNAAoj8PdNycJE8+ePbt27Zo0T8j6as3bt2/Hx8dTQXFTJSUlxcTEPHnyhIoLyh5JRooSEhJev35Nl302b948S0tLOioGMy82W0g4KLIDIpHOtGzZkrnBkgQiO//y5UuyZm7cuFF+PTAePHhw9epVe3v7xo0b37x5ky4uJyoq6tdffyXzogsqiPMUEw6Hd6Vx8r1QJJx/yhIgkUjZIJFIWny3L051zRcAAICRlZWVlpZGDhSjo6NPnToVGhoaFBTE3iJo2rRpTN6PkZGRoaFh69atmzRpoq+vT14PHjyYxMkBknA+UEhICGnh9OnTpLXY2FjmzkBFRUX0XEFmkKPiO3fukI+MfO7kQ586dSr5WMnn26JFCwMDAwsLC0dHx0WLFm3evDksLOz69eu4pRCABEePHiVfGToKAAAAIIqSnxUMDAzs0aMHOSClCwAUlKmpaUJCAh3lwokTJ/788086CgD84HD3rcwJE+QHgKGhYWJiIl3AqStXrgQEBFy7du3ixYsjR45s3Ljxs2fP6Ercyc3NHT9+vLm5OZXzVN7UqVM3btxIRyuO8xQTDod3pSnz90Ikzj9lCZBIpGyQSCQtvtsXp7rmCwAACqm4uJi9V1BUVFRoaOi+fft8fX3JDwLhGwUxdwZq1qxZ27ZtyYuePXuSoI2NDfO8MFKZTQm6cOECaerOnTukWZzhlWvZ2dm3bt0KCwtbv3793Llz7ezsTExMWrdu3blzZ3J8O2XKFE9Pz6CgoJMnT5JquBcUQOWkpKT06NGDjgIAAACIosxnBXfs2NGtWzccd4BS0dDQyMnJoaNcuHjx4ujRo+koAPCDw903Eib4duPGjX79+qmrq7dr187KyiouLo6uIec4TzHhcHhX2pYtW1JSUuhFVVZkVWzdupVeR7zx9vbOy8ujOwEKioyuwMBAehBUHN/bDZHtI5EIAADg/ysoKEhLS7t37150dHRERERoaOj69et9fX1dXV2dnZ1tbGzIUVDXrl0NDAyaNGmira1taGhobm5Ogk5OTqSCp6cnqRwcHEwmPHfuHGmENEUaJD8U6DmBQiADJjk5+ezZs+RX4IIFC8aOHWtiYkIOmMkIsbS0nD59+ooVK0JCQiIjI1NTUwsLC+npAaAKSkpK2rdvz9PlAQAAAFAwSntWkByPkONWclhKFwAorg8fPrRs2bK0tJQu4ML169f/+OMPOgoA/OBw941EIqgihUwkKiwsnDdvHnKJBGWPzHN3d/+WJ/AvX758+PBhuh+giMjo+vvvvzkZXXxvN0S2j0QiAABQZGRXnZaWdvPmzatXr4aGhu7cudPX13fhwoXOzs6jRo1icoP09PSY54gZGRmRiJ2dHSldsGABqRkYGEimOnPmTHR0dGJiImnq/fv39DxA0RUUFJBP/9SpUxs2bHB1dbW0tOzcuXPHjh0HDhzo6Ojo7e0dEhJCfv0/ffqUp5OVAFDehAkTjh49SkcBAAAAylHOs4IHDx7s0qXL48eP6QIAhUYOzA0NDekoR+7evdu/f386CgD84HD3jUQiqCKFTCQiioqKtm7d6qv0yEogq4JeOzw7cuQI3Q9QRByOLr63GyLbRyIRAADIpefPnz969Cg6Ovr06dOhoaH+/v7e3t7Ozs7jx49n0oN0dHTU1NQMDQ1NTU1JZMqUKaR09erV69evJ/XJVGTa5OTktLQ0rnbkoBhevHgRFRUVHBy8cOFCOzs7AwODjh07DhkyZOrUqWvWrDl69GhcXFxeXh49GQB8WyEhIWTDTkcBAAAAylHCs4LHjx/X1dVNTU2lCwAUXWxsrIWFBR3lCPlO4QnLAN8Mh7tvJBJBFSlqIhEAyBG+txsi20ciEQAAyJy0tLQ7d+4w9xAKDAz09fV1cXGZNGmSlZVV9+7dNTU127dvb2hoOGzYsFGjRjk7Oy9evJjU2bdvX3h4OJsehHvDgDRevHhx6dIlMszmzJljbm5OhpaxsbG9vf3SpUv37NkTGxuLZycByCaBQNChQwdk9QEAAMBXKdtZwcuXL2tra9+7d48uAFACJ06cmDx5Mh3lSFZWlq6uLh0FAH5wuPtGIhFUERKJAKDa8b3dENk+EokAAOCbKigoSEtLu3btWkRExJ49e3x9fefOnfvnn38ySUIdO3bU1tbu2bMneTt16lQ3NzdSYefOnUeOHGEeLpaenk63CCC1wsLCO3fu7N2718PDw9raWkNDo0ePHhMnTvTx8Tl27FhCQsKHDx/oaQBAVs2YMSMgIICOAgAAAHxJqc4K/vfff1paWjdu3KALAJRDUFDQ/Pnz6ShH3rx5065dOzoKAPzgcPeNRCKoIiQSAUC143u7IbJ9JBIBAADHXr58ee/evcjIyNDQ0DVr1ri7uzN5QoaGhm3atCF/Bw0aNGbMGGdn51WrVm3btu3QoUPR0dFJSUlZWVl0WwBVU1BQ8O+//5Jh5uLiYmpq2rFjxz/++GPhwoV79uz577//3r9/T08AAPLj4cOHWlpaAoGALgAAAAAQojxnBVNTUzt37nz27Fm6AEBpeHt7r1u3jo5ypLi4uEWLFnQUAPjB4e4biURQRUgkAoBqx/d2Q2T7SCQCAIAKKywsfPLkSXR09KFDh9avXz9//vxJkyZZWFgYGhq2b9++R48eVlZW06dPX7Zs2ebNmw8fPkxqPnjw4PXr13RDADy4f//+vn375s2bZ2ZmpqGhYWtr6+npeeLEidTUVLoqAMi5uXPnzpkzh44CAAAACFGSs4JZWVldu3Y9cOAAXQCgTGbOnBkaGkpHuaOurl5QUEBHAYAHHO6+kUgEVYREIgCodnxvN0S2j0QiAAAQKyMjIzY29ujRowEBAe7u7uPGjTM1Ne3UqZOBgcHQoUMdHBw8PDw2btzIPHfs6dOn+fn5dBMA/CsqKiIDlYxSe3t7Mj7NzMwWLlx4+PDhlJQUuroDuWMAAIAASURBVCoAKJa3b98aGRmdPHmSLgAAAAD4TBnOCpIfRf369SOH53QBgJKxtbWNjIyko9zR1NR89eoVHQUAHnC4+0YiEVQRGUL0qKoaDoc3ACgJvrcbIttHIhEAAHzKzs6+efPm0aNH/f39Z8+ebW1tbWhoqKmpaWZmNmHChAULFmzatCk8PJzUyczMpCcGqA6lpaW3b98OCAiwtbXt1KmTjY3NmjVroqKi3r17R1cFAIUWHx+vpaV15coVugAAAACgjMKfFSwuLrazs3N3d6cLAJRPnz59EhMT6Sh3unbt+vTpUzoKADzgcPe9ZcuWlJQUOjcEQDpk8GzdupUeVVXD4fAGACXB93ZDZPtIJAIAUC4vX76MjY0NCQnx8vKaPHlyv379tLW1+/bta29v7+HhERgYeObMmcTERGRjgGzKyck5fPjw1KlTybgdNmzY6tWrY2JiCgsL6XoAoExu3LihpaW1YcOGN2/e0GUAAACg9BT+rOC8efNGjx5dXFxMFwAon06dOuXk5NBR7vTt2zcpKYmOAgAPONx9FxYWkn0lcomgEsiwcXd35/zkM4fDGwCUBN/bDZHtI5EIAECRpaWlnT9/fsuWLbNnzx48eLC2tna/fv0mTZrk5eUVEhJy/fr1Fy9e0NMAyJ6MjIygoKDhw4d37tzZxcUlPDycHMjRlQBAiT19+pRsHDQ0NCZMmLBjx467d+8WFRXRlQAAAEApKfZZwa1bt5LD/Ldv39IFAMqHHAKoqqqWlpbSBdwxNze/efMmHQUAHnC7+ybbB7LH9AWoIDJs+Di/xO3wBgBlwPd2Q2T7SCQCAFAcHz58uHPnTkhIyIIFCywsLLS1tQcNGjRz5syNGzeePXs2NTWVngBAtgkEAjKehw0bpq+v7+Hhce3atZKSEroSAMBn+fn5Fy9eXLJkyR9//KGhodGvX78///xzxYoV+/btu3LlytOnT8mOkp4GAAAAFJ0CnxU8ffq0np5eRkYGXQCglLKysnR1dekop0aOHBkVFUVHAYAHCrz7BsDwBoCK4nu7IbJ9JBIBAMi3x48fHzlyZOHChQMGDNDW1h47dqynp+fx48fv379PVwWQH3FxcdOmTdPU1HRxcYmOjqaLAQCk8OzZs/PnzwcFBXl4eEyYMIHsKHV0dDp06GBsbGxlZTVlypS5c+cy/14WGhpKapKtzb1799LS0nh9GgIAAAB8Y4p6VjAxMZEcMd25c4cuAFBW8fHx/fv3p6OcIocVp0+fpqMAwANF3X0DfMLwBoCK43u7IbJ9JBIBAMif58+fHzp0aObMmV26dOnfv//ChQuPHDny6NEjuh6AHDp79uyQIUN69+69c+fO/Px8uhgAoGpKSkrS0tL++++/yMjI0NDQzZs3+/r6zp49e8aMGVZlunbtamhoqKam1qRJk86dO5PX3bp1Y4qIadOmOZdhkpBYoV+6evVq9JcSEhLSxJDr+yTRCyPRw4cPqdUiTlhYGLVKRdqxY4fwpyDOqlWrmE/tq2xtbdnP+qt69uxpWGWqqqpNqkZfX59uVCKyh6WXpMyUKVOoteHt7c2uw4CAAHa1kz018zHFx8czn+y7d+/okQEAIEsU8qxgbm4u+YlC9ph0AYASu3DhwujRo+kop6ZOnXrkyBE6CgA8UMjdNwADwxsAKorv7YbI9pFIBAAgN549e7Zx48YhQ4Z069bN3d395MmTAoGArgQgt65evTpo0CAywi9dukSXAQBUh8LCQiZPIiEhgcmcOHv2LJtOsX79ejbNYv78+cIZGGPHjqWyNAYMGEAndHymp6dH54ZIoVmzZnRDUtDV1aUbqpo2bdrQ85DI0tKSWjMiOTg4CK9PccjPIfYjkGz//v3sByfBuXPn/i+b6Wtu3779f0lSVfD69Wt65EmHHZ8V8uDBA3pJypCDZWptbN++XXgdurq6Mqt92rRp7CfFJN4x40pNTY28NjIyInEbGxtSc8GCBWTCPXv2kF+tN27cIHPHI0oBoFoo3lnB4uJiW1vbZcuW0QUAyo385HNxcaGjnJo7d+7u3bvpKADwQPF23wAsDG8AqCi+txsi20ciEQCAHLh06dKoUaMMDAx8fHxw33JQPLm5uTNnzuzWrdvZs2fpMgAAKOfNmzd0ekgFFRQU0I0CVFl2dnZa2R2/oqOjjx8/Hhoa6uvru3jxYuaOXz179mzTpo2enp6FhcXs2bM3b95MfuIiLR4AvgHFOyvo6elpa2tbXFxMFwAot3Xr1nl7e9NRTi1ZsoT8hqGjAMADxdt9A7AwvAGgovjebohsH4lEAAAy7fHjxxYWFubm5idPnsRZQlBICQkJhoaGS5cuxVVtAAAAhScQCOLj448dO+bj4zNhwgQNDQ1TU9PVq1e/ePGCrgoAwBEFOytINqHdunXLzc2lCwCUnoeHR2BgIB3lFPnRsmbNGjoKADxQsN03gDAMbwCoKL63GyLbRyIRAIDsunnzppaWVnBwcGlpKV0GoBCuX79OBvmJEyfoAgAAAFAOd+/eXbx4cadOnQ4cOECXAQBwQZHOCj548EBTU/PevXt0AQB8+jRlypSwsDA6yqlNmzbhqYIA34Yi7b4BKBjeAFBRfG83RLaPRCIAABmVnJyso6ODDRcosFu3bmlpaV25coUuAAAAACVz//79Pn36TJ8+/d27d3QZAEDVKMxZwcLCQlNT05CQELoAAMqMGDHi6tWrdJRTO3funDdvHh0FAB4ozO4boDwMbwCoKL63GyLbRyIRAIAsysnJ0dfXP3bsGF0AoCji4+O1tbUvXbpEFwAAAIBSKigocHV1NTY2xp02AIBbCnNW0MPDw8HBgY4CwGe9e/dOTk6mo5w6dOjQ9OnT6SgA8EBhdt8A5WF4A0BF8b3dENk+EokAAGTRxIkTly9fTkcBFMW9e/d0dHTOnj1LFwAAAIByO3LkiKamJu63AQAcUoyzghcvXjQwMBAIBHQBAHxGfkK8fPmSjnLq1KlTEydOpKMAwAPF2H0DiIThDQAVxfd2Q2T7SCQCAJA5+/fvNzMzKyoqogsAFMKzZ890dXUjIiLoAgAAAIBPn1JTU01MTBYvXlxSUkKXAQBUnAKcFczOzu7cufONGzfoAgD4rLi4WFVVlfylCzgVGRlpa2tLRwGABwqw+wYQB8MbACqK7+2GyPaRSAQAIFtyc3O1tLT4vhUzQHV59+5dv379tm3bRhcAAAAAfCYQCEaMGDFx4sT8/Hy6DACgghTgrKCjo6OPjw8dBQAhr1690tTUpKNci42NtbCwoKMAwAMF2H0DiIPhDQAVxfd2Q2T7SCQCAJAtHh4eCxcupKMACqGkpMTe3n7u3Ll0AQAAAMCXioqKZsyYMXjw4OzsbLoMAKAi5P2s4Llz53r06PHhwwe6AACEJCcn9+rVi45y7d69e/369aOjAMADed99A0iA4Q0AFcX3dkNk+0gkAgCQIY8fP9bU1MzJyaELABTCsmXLrK2t8dg+AAAAkNKaNWu6du2amppKFwAASE2uzwq+e/fOwMDg6tWrdAEAfCk6OtrKyoqOcu3JkyfdunWjowDAA7nefQNIhuENABXF93ZDZPtIJAIAkCEzZsxYt24dHQVQCEeOHOnRo0dubi5dAAAAACDe/v379fT0kEsEAJUm12cFPTw8XFxc6CgAlBMeHv7nn3/SUa69fPlSW1ubjgIAD+R69w0gGYY3AFQU39sNke0jkQgAQFZkZWV16tTpzZs3dAGA/Hv06JGmpmZSUhJdAAAAAPA1Bw8e1NPTe/jwIV0AACAF+T0rGB8f37lzZ/wzBoA0goOD3d3d6SjX3r9/37p1azoKADyQ3903wFdheANARfG93RDZPhKJAABkhZeX1+LFi+kogPwrKioaPHhwcHAwXQAAAAAgnUOHDunq6j548IAuAAD4Gvk9K2hpablv3z46CgCirF692tfXl45yrbS0tHnz5iUlJXQBAHBNfnffAF+F4Q0AFcX3dkNk+0gkAgCQCe/fv9fU1Hz27BldACD/vL29x48fT0cBAAAAKuLIkSPIJQKASpDTs4KnT5/u168f8hUApOTu7r5jxw46yoO2bdu+ffuWjgIA1+R09w0gDQxvAKgovrcbIttHIhEAgEw4cODAxIkT6SiA/Lt69aqenl5OTg5dAAAAAFBBhw8fNjAwyMrKogsAAMSTx7OCHz9+NDY2joyMpAsAQIwpU6aEh4fTUR507tz5+fPndBQAuCaPu28AKWF4A0BF8b3dENk+EokAAGSClZXVmTNn6CiAnMvPzzc0NMTpbwAAAODKxo0bTU1N37x5QxcAAIghj2cFg4ODR40aRUcBQLyRI0devnyZjvKgR48eqampdBQAuCaPu28AKWF4A0BF8b3dENk+EokAAKrf06dPtbW1i4qK6AIAOefl5TVt2jQ6CgAAAFAFCxYssLGxwY9nAJCS3J0VfPv2rY6OTmJiIl0AAOL1798/ISGBjvLAzMzs28wIQMnJ3e4bQHoY3gBQUXxvN0S2j0QiAIDq5+vr6+HhQUcB5FxSUpKWltbLly/pAgAAAIAqKCkpmTRp0rRp00pLS+kyAIBy5O6sYEBAwNSpU+koAEhkYGCQmZlJR3kwbNiwGzdu0FEA4Jrc7b4BpIfhDQAVxfd2Q2T7SCQCAKh+ffr0uX37Nh0FkGelpaXDhg3bvXs3XQAAAABQZQUFBRYWFr6+vnQBAEA58nVWMD8/X0dH5/79+3QBAEjUpk2bDx8+0FEe2NnZXbp0iY4CANfka/cNUCEY3gBQUXxvN0S2j0QiAIBqlpqaqqenh3+nBgWzb9++oUOHlpSU0AUAAAAAXHj58mWXLl0uXLhAFwAAfEm+zgoGBgZOnjyZjgKARIWFhW3atKGj/HBwcDhx4gQdBQCuydfuG6BCMLwBoKL43m6IbB+JRAAA1Wzjxo1///03HQWQZwUFBbq6uvHx8XQBAAAAAHf+/fdfbW3tJ0+e0AUAAELk6KxgYWGhnp5eQkICXQAAEj1//tzAwICO8sPZ2Tk0NJSOAgDX5Gj3DVBRGN4AUFF8bzdEto9EIgCAajZ06NCoqCg6CiDPNmzY4OjoSEcBAAAAuBYcHGxqalpQUEAXAAB8JkdnBXft2jVu3Dg6CgBfk5SUNGDAADrKj7//H3v3HmdT9T9+fFxSofDVhTRhaNAMRqJySS4f+eRDLhO5lXShC/og0SdF7tXHJV2EEApTSrkk9DEqkoqUKD6KGBLNOOWSkZnf+s362t/TOvvsOfucfTn7nNfzjx5nv/c+a+3Z+73X2mu1zAwfLl4/1CgAq3mo+wbMIr0BmGV3u6FbPguJAMBNv/76a40aNXJzc9UdgGf5fL7U1NT//ve/6g4AAAAbPFxAjQLAOV6ZFczLy2vSpMmmTZvUHQAKs3Hjxq5du6pRe4wZM2batGlqFIDVvNJ9A2EgvQGYZXe7oVs+C4kAwE1Lly7t3bu3GgW8bPz48YMHD1ajAAAA9jh16lTz5s0zMjLUHQBQwCuzgpmZmS1btlSjAEKwcuXKBx54QI3aY/LkyRMmTFCjAKzmle4bCAPpDcAsu9sN3fJZSAQAbho0aBC/Dxmx5MiRI7Vq1Tp48KC6AwAAwDY7duxITU3dv3+/ugMAvDMreOedd77++utqFEAIFixYMHz4cDVqjxkzZowYMUKNArCaV7pvIAykNwCz7G43dMtnIREAuOm6667bs2ePGgU865lnnhk2bJgaBQAAsNnLL7/csWPHs2fPqjsAxD1PzAru27cvJSXl1KlT6g4AIZg2bdrEiRPVqD0WLFjAr2EGHOCJ7hsID+kNwCy72w3d8llIBACu2bNnT/369dUo4FmnTp2qXbs2a+MAAIDzzp4926lTpxdffFHdASDueWJWcNSoUaNHj1ajAEIjHp8ZM2aoUXu88847/fr1U6MArOaJ7hsID+kNwCy72w3d8llIBACuef311x9++GE1CnjW/Pnze/furUYBAAAcceDAgdTU1O3bt6s7AMS36J8VzM3NTUlJ2bdvn7oDQGgGDRqUkZGhRu2xevXqO++8U40CsFr0d99A2EhvAGbZ3W7ols9CIgBwzSOPPDJv3jw1CnhTXl5ekyZNNm7cqO4AAABwyuLFi2+55Rb+wBkAf9E/K/j+++936tRJjQIIWe/evVevXq1G7bFhw4bOnTurUQBWi/7uGwgb6Q3ALLvbDd3yWUgEAK5p1KjRzp071SjgTWvXrm3durUaBQAAcFZ6evrMmTPVKIA4Fv2zgnfffffChQvVKICQ3XbbbZs3b1aj9ti6dWubNm3UKACrRX/3DYSN9AZglt3thm75LCQCAHccOXKkRo0a/GtpxIzevXsz9w0AAFy3Z8+elJSUgwcPqjsAxKsonxXMzs5OTk7+/fff1R0AQtasWbNdu3apUXuIipo2bapGAVgtyrtvIBKkNwCz7G43dMtnIREAuOP999/v0aOHGgW86ddff61RowZz3wAAIBr8+9//vvvuu9UogHgV5bOCs2fPfvDBB9UoADPq1Knzyy+/qFF7ZGVlXXvttWoUgNWivPsGIkF6AzDL7nZDt3wWEgGAO8aPH//cc8+pUcCbZs2a9fDDD6tRAAAAN+Tm5jZp0mTVqlXqDgBxKcpnBdu2bZuZmalGAZiRmJgoen81ao9jx47VqFFDjQKwWpR330AkSG8AZtndbuiWz0IiAHBHt27dVq9erUYBb2rduvVHH32kRgEAAFzyySefNGzY8PTp0+qOkB05cmQdwvXpp5+qFxRwz7oonhU8ePDgNddcc+bMGXUHgJD9/vvv1apVU6O2yc3NTUxMVKMArBbN3TcQIdIbgFl2txu65bOQCADckZKS8vPPP6tRwIN27tx57bXXnj17Vt0BAADgnt69e7/44otqNDQbNmwoU6ZMAiLQsmXLU6dOqVcWcEM0zwq++uqrAwcOVKMAzDh48GC9evXUqJ2uuuoqx34BEhC3orn7BiJEegMwy+52Q7d8FhIBgAsOHDiQlpamRgFvmjhx4ujRo9UoAACAq/bs2ZOSkvLrr7+qO0JQr169pKSkFStWrENYpk+fXqxYsWHDhqlXFnDDuiieFUxPT+fvMAIR2rlzZ7NmzdSonWrWrJmTk6NGAVgqmrtvIEKkNwCz7G43dMtnIREAuGDlypW9evVSo4A3tWzZcvPmzWoUAADAbSNGjBg+fLgaLczevXsTEhKmT5+u7oAZ3bp1K1euXCR/XQ6wStTOCmZnZycnJ/O7u4AIffbZZ+3atVOjdqpfv/6BAwfUKABLRW33DUSO9AZglt3thm75LCQCABc899xzEyZMUKOABx04cCA1NZW/awYAAKJQTk6OeFHZtWuXusPQxx9/nJCQsHbtWnUHzFi5cqW4jMuXL1d3AI6L2lnBRYsW3XvvvWoUgEmiy+7Zs6catdNNN930/fffq1EAlora7huIHOkNwCy72w3d8llIBAAuuOeee5YuXapGAQ+aM2fOgAED1CgAAEB0eOWVV3r37q1GDTGBYInc3NxLLrmkR48e6g7AcVH7UN9///0ZGRlqFIBJS5YsefDBB9Wonf7+979v2bJFjQKwVNR230DkSG8AZtndbuiWz0IiAHBB48aNv/vuOzUKeFC3bt34h+YAACBq/fHHH/Xq1du2bZu6IzgmEKzSr1+/0qVLnzhxQt0BOCs6H+qzZ89ec801hw4dUncAMGnOnDnDhg1To3ZKT0//5JNP1CgAS0Vn9w1YgvQGYJbd7YZu+SwkAgCn/fHHH1WrVs3NzVV3AF5z8uTJ6tWrHz9+XN0BAAAQNebMmdOrVy81GhwTCGF4+umnU1JS2rVr5x9cv369uJILFy70DwLOi86HeuvWrTfffLMaBWDe1KlTx48fr0btdNddd33wwQdqFIClorP7BixBegMwy+52Q7d8FhIBgNO++eabFi1aqFHAgz7++GPlfxcBAABEm9zc3Pr162/dulXdEQQTCGHo27evuGg1atTwD+bl5SUmJrZv394/CDgvOh/qqVOnPvnkk2oUgHmjR49+4YUX1KidHnjggbfffluNArBUdHbfgCVIbwBm2d1u6JbPQiIAcNpbb73Vr18/NQp40DPPPOPwP/sDAAAIw7x587p3765GgwicQBg0aFDXrl1feumluXPn3nDDDTfddNN7772Xm5s7atSo+vXrt2nTZv369drBs2fPTk9PF4elpqY2bdr08ccfz87OlruGDBkiy1m6dGmLFi2uv/56UcKZM2cK/aI4Zty4ceJ48a3Fixe/8sorohxxVnKvsHLlys6dO9etW1d8fdiwYb/++qu2y9TJ5wcvyuDkH3vssWrVqomLdtFFF3UtkJmZqX2rRIkS2g8CuCLwoY4G4kH78MMP1SgA80RfM3/+fDVqp8GDBy9YsECNArBUdHbfgCVIbwBm2d1u6JbPQiIAcNrEiROfffZZNQp4UMeOHbX/SwQAABC1cnNzGzRo8MUXX6g79AROINSoUUNELr/88oRzihUr1qJFC22zZMmSBw8elAe3bNmyVKlStWrVSk1NLVq0qNhbv379vLw8sSslJUVsXnHFFdoXBTE6KPSLAwYMkAcXL15cK0H79T/jx4+Xe0WkXLly4kNycnJOTo7ca+rkDYoyOPm6dev6B4U5c+bIArds2SI2Z86cKTcBVwQ+1K77448/qlWrduLECXUHAPP69u27dOlSNWqnJ5988pVXXlGjACwVhd03YBXSG4BZdrcbuuWzkAgAnNa3b98lS5aoUcBr5Nz38ePH1R0AAADRZ+7cub1791ajegInEORanAsvvPCzzz7bvn17kSJFxGbZsmW//vrrDRs2KEtnNm/efPr0afn5/fffl3vFF/PPrcUpXrz4qlWrDh8+XLNmTbHZuHFj4y8eOHBArh9KT08XB3z11VclS5ZMOLeQ6ODBg+edd57YHDNmjNjMzs6Wa4a0P5kU+skbF2Vw8kePHr3zzjvFZvXq1Q8VOHnypKxdEEc2b95c2wScF/hQu04877fccosaBRCWO+64w+EHfOLEiZMmTVKjACwVhd03YBXSG4BZdrcbuuWzkAgAnNayZctt27apUcBrNm7c2LZtWzUKAAAQlU6dOlW7du09e/aoOwIETiDItTi33nqr3CxbtqzY7Nmzp9yUq3zGjRsnNz/77LP09PTk5OSKFStecsklCQXefPPN/HNrcVq3bi2P7NOnj9hMSkoy/uLy5cvlZ+1vkHXo0CHh3EIicYDc26ZNG/lnxeTqn2bNmsmDQz9546KMT75v377aKSlGjRpVrFixrKwsdQfglMCH2nUzZswYPny4GgUQlrZt24b4Swet8sILL4wePVqNArBUFHbfgFVIbwBm2d1u6JbPQiIAcFReXl61atV+//13dQfgNS+88IL2L90BAACi33PPPTd48GA1GiBwAkGuxbnrrrvkplxeoxVVrFgxsSn/h+L+/fsvuugisVm7du2BAwfee++9CQUWLlyYf24tjlaOXHxTuXJl4y++88478vOmTZvkF7t06ZJwbtXOvHnz5F4xyqjhp0OHDvLg0E/euCiDk9c2a+gtJNq1a5fYxW9ugIsCH2rX9evXT64vBBC5Jk2a7N69W43aac6cOcOGDVOjACwVhd03YBXSG4BZdrcbuuWzkAgAHHXw4MG0tDQ1CnjQfffdxx/pAwAAHpKdnV2zZs1ffvlF3fFXgRMIoa/FycjISCiwd+9esan9MqFCFxIZfHH37t3y82OPPSZ2HT58uHz58gnnVu188cUXcu/SpUtlsfkFv35p37598nPoJ29clMHJCwMGDPDfVDQooEYBpwQ+1K5r2LBhKL8gDUAo6tSp8/PPP6tRO4leu3///moUgKWisPsGrEJ6AzDL7nZDt3wWEgGAozZu3Ni+fXs1CngQc98AAMBzhg8fPn78eDX6V4ETCKGvxRFv+wkFOnXqJCJXXHGF3Cx0IZHxFzt37iw3xZmUKVOmZMmS8rMsp3nz5mKzXLlyQ4cOFT9dnz59ypcv/+yzz8q9oZ98vmFRBiefX/C7KuUZpqWlNWvWTFvGJE2aNEns2rVrl38QcEzgQ+2uI0eO1KxZMy8vT90BICxVqlQ5deqUGrXTihUrRBepRgFYKtq6b8BCpDcAs+xuN3TLZyERADhq0aJF/KMlxIDs7Ozk5GTmvgEAgLfs3bs3JSXF+H83Bk4gmFqL88gjjxQpUkREypQpM3Xq1P+/uCaEhUTGX8zJyenWrVvJkiUvvfTSESNGdO3aVeyqU6eO/KJ4MevZs+d5550nvyIKSUtLW716tdxr6uQNijI++ePHj6enp5ctW1Z+cefOnTIuZWVliYpGjRrlHwQcE/hQu+uDDz4QT7QaBRCW06dPJyYmqlGbZWZmir5YjQKwVLR134CFSG8AZtndbuiWz0IiAHDUM888o/3jYMC7MjMzO3furEYBAACiXs+ePRctWqRG/UQ+gXD06NFvvvnGeLmSrmBfPHjw4JkzZ+TnY8eOyd9XpCxEOHHixPbt27/77rvffvvNPx4GC4vSNG/evGbNmmoUcETkD7W1xo8fz7QAYJUjR46kpqaqUZtt3ry5Xbt2ahSApaKt+wYsRHoDMMvudkO3fBYSAYCjHnroocWLF6tRwGumTZvGvykHAABe9OGHH7Zp00aN+onCCYTJkydXqlQpPT29W7duFSpUEKdXsmTJbdu2qcdFsZkzZ4rT3rJli7oDsF+0PdRdunRZu3atGgUQlj179jRq1EiN2uzbb79t2bKlGgVgqWjrvgELkd4AzLK73dAtn4VEAOCodu3abdq0SY0CXtO/f3/5hzYAAAC85ezZszfccIPBipYonED44IMP6tWrV6pUqSJFilx66aXp6eneWkWUX/BH00qUKDFkyBB1B2C/qHqoRROUnJwsngh1B4CwiA7deH2wHfbu3SveJdQoAEtFVfcNWIv0BmCW3e2GbvksJAIAR6WlpWVlZalRwGvatGnzxRdfqFEAAAAveOmllwYMGKBGz2ECwSbt27dPTEzMy8tTdwA2i6qHeteuXTfeeKMaBRCuzMzMrl27qlGbHTlypHbt2moUgKWiqvsGrEV6AzDL7nZDt3wWEgGAc/7888/ExMQzZ86oOwBPycvLq169us/nU3cAAAB4QU5OTo0aNYL9RhAmEGyycOFCcWHXr1+v7gBsFlUP9Ztvvvnggw+qUQDhWrFiRZ8+fdSozU6ePJmUlKRGAVgqqrpvwFqkNwCz7G43dMtnIREAOOfQoUNpaWlqFPCarKwsMhkAAHjaQw89NGvWLDVagAkEm5w4caJ06dL9+vVTdwA2i6qHevz48ZMmTVKjAMK1ePFig98yaJO8vLxKlSqdPXtW3QHAOlHVfQPWIr0BmGV3u6FbPguJAMA5rvzhdsBymZmZt99+uxoFAADwjo8++qhVq1ZqtMCyZcsSEhImT568DlYT17xMmTLLly9XdyAOHDhwQH3YnLIummYF77vvvqVLl6pRAOF69dVXH3/8cTVqv6uvvvr3339XowCsE1XdN2At0huAWXa3G7rls5AIAJyzcuXK3r17q1HAa1577bVHH31UjQIAAHhHXl5egwYNtm/fru7Iz588eXICABukpaV98skn6iNnv6iaFWzZsuU333yjRgGEa+rUqePGjVOj9hMN2s8//6xGAVgnqrpvwFqkNwCz7G43dMtnIREAOOfVV18dPny4GgW8ZuzYsVOmTFGjAAAAnvLss8+OGDFCjebnL1++PCEhQbztZMJqa9euFReW30gUn1588cWqVauWKVPm2LFj6lNns3VRMyuYl5eXlJR0/PhxdQeAcI0fP96VCYpGjRrt2bNHjQKwTvR034DlSG8AZtndbuiWz0IiAHDO2LFjp06dqkYBr3nwwQffeustNQoAAOAp+/btS01Nzc3NVeJMIAA2WbFihXi4nP+lRNHzUGdlZaWlpalRABH417/+NWvWLDVqv1atWvHbxQBbRU/3DViO9AZglt3thm75LCQCAOc8/PDDGRkZahTwmvbt22/atEmNAgAAeE2nTp3ef/99JcgEAmATtx4ut+oN9NFHH3Xu3FmNAojAwIEDFy1apEbtd9tttzExAtgqerpvwHKkNwCz7G43dMtnIREAOCc9Pf2jjz5So4DX1K9ff//+/WoUAADAa+bOnfvQQw8pQSYQAJu49XC5VW8g0eY8+uijahRABO65557ly5erUft17979ww8/VKMArBM93TdgOdIbgFl2txu65bOQCACc07hx4927d6tRwFPy8vISExPPnDmj7gAAAPCaX375pUaNGqdPn/YPMoEA2MSth8utegM9+eSTL7/8shoFEIGuXbtmZmaqUfvdd9997733nhoFYJ3o6b4By5HeAMyyu93QLZ+FRADgnGrVqv3+++9qFPCUkydPJiUlqVEAAABv6tSp06pVq/wjTCAANnHr4XKr3kA9e/b84IMP1CiACLRr127z5s1q1H6PPPLIwoUL1SgA60RP9w1YjvQGYJbd7YZu+SwkAgBbnD59+s8///SP/Pbbb9WrV/ePAF509OjR1NRUNQoAAOBNc+bMefjhh/0jTCAANnHr4XKr3kCNGjX673//q0YBRKB58+Y7duxQo/b717/+NWvWLDUKwDrR030DliO9AZhld7uhWz4LiQDALosWLfLf3LNnz4033ugfAbxo//79DRo0UKMAAADedPjw4Zo1a/r/dTMmEACbuPVwuVWv4s8//7zqqqtyc3PVHQAi0KBBg59++kmN2m/cuHFTp05VowCsEyXdN2AH0huAWXa3G7rls5AIAOwyY8aMpUuXapuff/5527Zttc3du3drn4Eo55+uBw4cqF+/vt9OkhkAAHhbx44dV69erW0ygQDYxK2Hy616lYHSoUOH0tLStE2GUYAlatWqlZ2drUbtN2XKlPHjx6tRANZxq/sGHEB6AzDL7nZDt3wWEgGAXXJycmrVqvXtt9/KzQ8++KBXr17y88aNG6dPn/5/hwLRTaSrSFr5+ZdffqlTp462i2QGAABe9+qrrw4YMEDbZAIBsIlbD5db9foPo4StW7fecsst8jPDKMAqiYmJrvyir5kzZz7xxBNqFIB13Oq+AQeQ3gDMsrvd0C2fhUQAYKMHHnigbt26OTk5+QV/6WzgwIH5BTOGNWvWPHr0qHo0EK1EuiYnJ8tJ8GPHjtWoUUPG33nnnWuuuYZkBgAAnvbzzz+L93Ptf0MygQDYxK2Hy616xUBJDJfWrFkjN99///3evXvnF8wJMIwCLCH67sTERDXqiDfeeOOf//ynGgVgHbe6b8ABpDcAs+xuN3TLZyERANho06ZNFSpUaNu27Z9//vnSSy+NGjVq48aNiYmJd999t3ooEN169eolUlck8PHjx6tXr55fMGsmIoMHD1YPBQAA8JoOHTpo/7OfCQTAJm49XG7VK4jhkhg0ffjhh+LznDlzHnvsMTGkSkpK6tKli3ooAPOys7Nr1aqlRh3x7rvv3n///WoUgHVc7L4Bu5HeAMyyu93QLZ+FRABgr/r161esWPHRRx8dM2bM4MGDr7rqqgoVKuzatUs9DohuImlF6lapUiUzM7Nq1arz5s2rWIBkBgAAMWDWrFnyt4fm+00gnD179q9HAYiIW7NzbtWbXzCMEoOmK6+88qOPPho/fvygQYOuvvpqMbBau3ateigA83766acGDRqoUUeIp7hHjx5qFIB1XOy+AbuR3gDMsrvd0C2fhUQAYK/p06dXrlw5MTFR/PfKK6+sWLHibbfdph4EeMHNN99coUKFatWqXXHFFSKTGzRo0L17d/UgAAAADzp06FCtWrX+/PPP/HMTCGvWrFm/fr16HIAIuDU751a9Urdu3apWrVq5cuUqVaqIwVTNmjXT0tLUgwCEZceOHc2bN1ejjvj00087dOigRgFYx93uG7AV6Q3ALLvbDd3yWUgEAPbKycmpXLlyhXNq1KjB/5CAR61evbpSpUoVK1aUyXzjjTeSzAAAIGa0atVq8+bN+ecmEAYOHLh161b1IAARcGt2zq16JTFoSk1N1SYExHgqIyNDPQhAWETH3a5dOzXqiK+//vpvf/ubGgVgHXe7b8BWpDcAs+xuN3TLZyERANjuzjvvlJOGlSpVatKkibob8I6UlBSZzK1atXLrn/0BAABY4vTp0/6bY8eOfeaZZ/ILJhCKFSuWlJSkHAAgQm7NzrlVr6Zx48ZyGCXUrFlT3Q0gXJmZmXfccYcadcSePXsaNWqkRgFYx/XuG7AP6Q3ALLvbDd3yWUgEALbbtGlTlSpVKlSokJaWtnDhQnU34B0vvPCC/I1Ebdq0IZkBAICnnTx5csKECfv375ebGzZsuPXWW/MLJhDKli1bu3btvxwNIGJuzc65Va9GDJ1q1KghhlFiMPXSSy+puwGEa/ny5ffcc48adcShQ4f4M4WArVzvvgH7kN4AzLK73dAtn4VEAOCE2rVrV6hQISUlhX/WDE8TCSz/VF/dunVJZgAA4HXff/+9eEUfP358boHk5OTs7OwpU6aIt52///3v6tEAIuPW7Jxb9WrE0Ek0L6JhqVq1KsMowEIZGRn9+/dXo4747bffrr76ajUKwDqud9+AfUhvAGbZ3W7ols9CIgCw2JEjR9YFGDhwYMWKFfv376/ugJ5PP/1UvayIGgMGDKhQoQLJvHHjxry8PPXqAAAAr1m8eLFc8b9mzZq77rrrzTfflP8GYPDgweqhACKzzqXZObfqleQUQb9+/UTDcu+99/oNKeIXQ35Y5bXXXhs6dKgadcTZs2crVarEtABgn3Wudt+ArUhvAGbZ3W7ols9CIgCw0oYNG8qUKZMQoGjRopdddpn4r7oDQbRs2fLUqVPq9UUUWLly5eWXX04yC6mpqd988416gQAAgNcMHDgwKSnpqquuuuGGGypXrnz11VeLt51Zs2apxwGIjFuzc27Vm+83RcCcgIIhPyzx8ssvjxw5Uo06pWrVqidPnlSjACziYvcN2I30BmCW3e2GbvksJAIAK9WrVy8pKWnFihXrArzwwgtqCEFMnz69WLFiw4YNU68vooBI8ipVqugmeVx5/fXXExMTL774YtYSAQDgdSdPnmzatKl4yangZ82aNepxACKzzqXZObfqzf/rFIEY5/qNJ+IaQ35YZdKkSRMnTlSjTklNTT1y5IgaBWCRde5134DdSG8AZtndbuiWz0IiALDM3r17RVMzffp0dQfM69atW7ly5U6fPq3ugKtIcn9ZWVmJiYmpqan8MnMAALzu+++/r1mzZvXq1eUqossuu4wJBMBybs3OuVUvoycDDPlhibFjxz7//PNq1CnXX3+9eMzVKACLuNV9Aw4gvQGYZXe7oVs+C4kAwDIff/yxaGrWrl2r7oB5K1euFBdz+fLl6g64iiRXZGRkiAsi0lXdAQAAvGbx4sX169evWLFihQoVypcvzwQCYDm3ZufcqpfRkwGG/LDEv/71Lxf/FGmLFi2+/fZbNQrAIm5134ADSG8AZtndbuiWz0IiALAMTY2FcnNzL7nkkh49eqg74CqSXEGiAgAQSwYOHNiwYcMKFSpcdNFFvPAAlnNrNBFv9XoCIylYYtCgQa+//roadUq7du02b96sRgFYhG4UMYz0BmCW3e2GbvksJAIAy0RVUzNs2LAePXq88sor6g7v6NevX+nSpU+cOKHugHsiTHKH09KZ6khUAABixsmTJ5s2bVqhQoUSJUqE/cIDIJgIRxNhi7d6vYKRFCL3wAMPvP3222rUKV27ds3MzFSjACxCN4oYRnoDMMvudkO3fBYSAYBlApuap59+OiUlpV27dv93kFNEveJk7rrrLnVHALMnafb4sK1fv178CAsXLlR3wD2BSW5K6GkZhsDMtLU6DYkKAEAs+f7775OSkooUKRL2Cw+AYCIcTYQt3uq1SuAIy1qMpBA5Md5ftWqVGnVKnz59VqxYoUYBWMTr3ShggPQGYJbd7YZu+SwkAgDLBDY1ffv2FZEaNWr830FOCX0JhdmTNHt82PLy8hITE9u3b6/ugHsCk9yUZcuWzZ8/f+PGjeoOKwRmpq3VaUhUAABizCuvvBLJC0+Ejhw5si7uffrpp+p1QUxYF9loImzxVq9VAkdY1mIkhch16dJl/fr1atQpAwYMyMjIUKMALOL1bhQwQHoDMMvudkO3fBYSAYBllKbmscceq1atmohcdNFFXQtov/F45cqVnTt3rlu37g033DBs2LBff/1VxgcNGiQOe+mll+bOnSt23XTTTe+9915ubu6oUaPq16/fpk0b//mRIUOGyIMXL17crFmza6+9duTIkeJguVdZSDR79uz09HRRZmpqatOmTR9//PHs7Ox88ycZ7Phg5QtnzpwZN27c9ddf36JFC3Gqr7zyiviW+Enl3m3btvXu3VvsTUtLa926tfihtC/mF/yMJUqU8I/AXYH9aXhJm19YYmhHvvXWWyK927Ztm2+YZrqZ6V+dtGzZso4dO9apU6dhw4b9+/f/8ccftV3awUuXLhWnJE5M/AjiJOVeEhUAgPgR+MLjmA0bNpQpUyYBCQktW7Y8deqUeoHgcW49XNFTr6nRU37w8YvZcnRH9/mGgyDdEVZ+weoi8fm1116TJUydOlVsiqGZ3DR7YoykEKF27dp9/vnnatQpw4cPnzNnjhoFYJHAbhSIGaQ3ALPsbjd0y2chEQBYRmlq6tatKyfBNXJ+Yfz48XKzRo0a5cqVEx+Sk5NzcnLELhERm5dffrn2lWLFirVo0ULbLFmy5MGDB2X5cqlQxYoVxX+LFy8uD3jooYf892oLiVq2bFmqVKlatWqlpqYWLVpU7Kpfv35eXp7Zkwx2fLDy8wv+hZY8Up7kFVdckXDuHzVmZ2fLwitVqlSnTp2LL75YfN65c6c8Z2HLli0iMnPmTC0CdwX2p2EkrUxLg8TQjqxatWqRIkXEh2rVquUbppluZipPwejRo+WuCy64QBZbtmzZ7du3+9coT0MzceLEfBIVAIA4E/jC45h69eolJSWtWLFiXXybPn26eKUcNmyYeoHgcetceriip15ToyeD8YupcoKN7vMNB0G6IywRl5U+8sgjsvCuXbsmFIzL5KapE8tnJIWItWzZUhvUO2/MmDHTpk1TowAsEtiNAjGD9AZglt3thm75LCQCAMsoTc3Ro0fvvPNOEalevfqhAidPnjx48OB5550ngmPGjMkvWKAgp9iefPLJ/HOTbhdeeOFnn322fft2ba7w66+/3rBhw/+fdTs3eZd/bsrvggsu+PLLL3Nzc7t165ZQsCbjwIED2l5tCcXmzZtPnz4tP7///vuyKFGL2ZPUPd6gfHEycplIenq6OOCrr74qWbJkwrn1Ih9//HFCwY9w4sSJ/IJfbP7JJ5/ICU1NzZo1mzdv7h+BiwL70zCSVqSlcWJoRwpPPfWU2CtrDJZm+UEeN/+nICsrS9bYtWvXM2fO/PDDD5dcconYlL/rSKtRHLNq1arDhw+LxBObjRs3zidRAQCIM4EvPM7Yu3evqHf69OnqjrgkRjflypXT3v0QG9x6uKKn3tBHT8bjl9DLMRjd5xsOgnRHWPnnFhINHjxY/kS6C4lCOTENIylEolGjRnv27FGjTpk8efKECRPUKACLBHajQMwgvQGYZXe7oVs+C4kAwDKBTU3fvn0T/NZGCG+++aacO2vTpo389eByGq5Zs2b55ybdbr31Vnlw2bJlxWbPnj3lppxGHDdunNyUU37aMohPP/1Ulrx8+XJtr7aQ6LPPPktPT09OTq5YsaKcfxTEyeSbP8nA4/ODly9ORn7WfoF5hw4dtK8fOnTo/PPPF5viKzfddNPDDz8c2FCPGjWqWLFiWVlZShyuCEzyMJJWpKVxYmhHNmjQQG5KwdJM7g3MTP+nICMjQx7/8ccfy7333HOP2CxVqpT/wa1bt5abffr0EZtJSUn5JCoAAHEm8IXHGXLt8tq1a9UdcWnlypUJ54Y2iBluPVzRU2/ooyfj8Uvo5RiP7g0GQfl6I6z80BYShXJiGkZSiERaWpoYsKtRp8yYMWPEiBFqFIBFArtRIGaQ3gDMsrvd0C2fhUQAYJnApiZw3m3evHkJBapVq1bDT4cOHfLPTbppq3+UGbpixYqJzdGjR8tNOeXXpUsXublt2zZZ8uLFi7W9sqj9+/dfdNFFYrN27doDBw6899575ZELFy7MN3+SgccblP/OO+/Iz5s2bZIHixP2//qaNWtatWol/1aUtGTJEq1kYdeuXSI4adIk/yDcEpjkYSStOLjQxJBHajPO+YZpJg8IzEz/p0DL6i1btsi98m+rFS9ePPDg/HOlVa5cWW6SqAAAxI/AFx5nuFVvdMrNzb3kkkt69Oih7oCXuZXk0VNv6KMn4/FLGOXoju6NB0GBI6z8c3X985//lJv/+Mc/EgIWEoVyYhpGUohEcnKyz+dTo05ZsGCBlt4ALBfYjQIxg/QGYJbd7YZu+SwkAgDLBDY1cqZPm4YTvvjii4QCS5cu1YKnTp3at29fvslJNznld9VVV8lf+P/CCy/IkuU8o+7vYtm7d6/Y1H4ZjFyBYfYkA483KH/37t3y82OPPSZ2HT58uHz58gnn5iLPnDlz9uzZ/IK/FSW+W7t2bbHr7rvv1kqWGhRQgnBFYJKHkbTiYOPE8D9SbuYbppk8IDAz/Qv5/PPP5fHTpk3LL0i56667TmyKYwIPzv/rHDqJCgBAXAl84XGGW/U6b9asWT169Hj00UfVHX/Vr1+/0qVLy78ti9jgVpJHT72hj56Mxy+hl2M8ujcYBOXrjbDyz1XduXNn8TknJ+d//ud/EiJbSJTPSAoRSExMzM3NVaNOeeedd0RXpUYBWCSwGwViBukNwCy72w3d8llIBACWCWxqtMU9aWlpzZo1k1N1zZs3F5Fy5coNHTp0/Pjxffr0KV++/LPPPptvctJNTvkVKVJEFN69e3f5p5caNmzov1cWtXHjRnkanTp1El+/4oor5KZcgWH2JAOPNy6/c+fOclP8dGXKlClZsqT8LHbt3LmzUqVK/fr1mzBhwsiRI+WvPX/qqafkj6CZNGmSiO/atUuJw3mBSR5G0sqDDRJDOVIyTrN8vcxUCmnatKnYvOCCC+6++25xgDx49uzZcq/BHDqJCgBAXAl84XGGW/U6T/6FJuXXnARav359gt/LHmKAW0kePfWaGj0ZjF9MlWMwujcYBOXrjbBEsFu3bjL4t7/9LTExsUiRIgkRLyRiJIXwnDlzRiShGnXQ6tWre/XqpUYBWCSwGwViBukNwCy72w3d8llIBACWCWxqjh8/np6eLpcdCDt37hTB7Ozsnj17nnfeeTIoVwKtXr063+Skm5zyu/3229u2bSuLSk5OllVoe7WiHnnkETnBV6ZMmalTp8rj5aS82ZPUPd6g/JycnG7dupUsWfLSSy8dMWJE165dxa46deqIXT/99FNSUpI8WChatGjHjh1F+fKcNVlZWeJnHzVqlBKH8wKTPIyklQcbJIZypMYgzfL1MlMp5OjRo+J5kacklC9ffsqUKVrhBnPoJCoAAHEl8IXHGW7V67wQFxLl5eUlJia2b99e3QHPcivJo6deU6Mng/GLqXIMRvcGg6B8vRGWCO7evfvqq6+WkTvuuKNDhw4JES8kYiSF8Ph8vuTkZDXqoA0bNnTq1EmNArBIYDcKxAzSG4BZdrcbuuWzkAgALGOqqTlx4sT27du/++673377Td0XGv8pv59++mnHjh3yry8Fc/To0W+++ebUqVPqjuBMnWSw8g8ePHjmzBn5+dixY/IXyXTr1k07ICcnZ0cBgz9s37x585o1a6pROM5UkhsrNDF0BUuz0Ik027Zt2/fff//nn3+q+wyRqAAAxAkLX3hM0a137dq14gWpXr169evX7969u3g5l/Fly5Z17NixTp06DRs27N+//48//qh9ZdCgQV27dn3ppZfmzp17ww033HTTTe+9915ubu6oUaNEIW3atFm/fn0YB8+ePTs9PV0ck5qa2rRp08cffzw7O1srZ8iQIbKcpUuXtmjR4vrrrxclaC974sPTTz8tCmzWrNmiRYuUhUTi3ax3797iK2lpaa1btxZFaSWLzyVKlPCvCJ6mm+QO8HS9YY9fFKZG98bOnj27e/furKwsdUcEGEkhDD///LPoONSog7766qtbbrlFjQKwiCXdKBCdSG8AZtndbuiWz0IiALCMw02N7q9siUKTJ0+uVKlSenp6t27dKlSoIM65ZMmS27ZtU48zNHPmTPHFLVu2qDvgLAuT3JLEiDYkKgAAMcDCFx5TAuudOHFiQoEiRYqULl1afJg/f76Ijx49WsYvuOAC+fsay5Ytq60xkr8RRP4iEKlYsWItWrTQNsVL18GDB80e3LJly1KlStWqVSs1NbVo0aIJBb+DJC8vT5YjxybaH5+VxPnLvQMGDJCR4sWLi/9WrFgx4dxCouzs7HLlyolN8WZYp06diy++OOHcLz4RxGuV2BSvWHITXheY5M6It3q9iJEUwvDDDz/ceOONatRBu3fvbtKkiRoFYBG6UcQw0huAWXa3G7rls5AIACzjcFPTrFmzyy+/fMCAAeqOKPPBBx/Uq1evVKlSRYoUufTSS9PT08NYLJKdnV2iRIkhQ4aoO+AsC5PcksSINiQqAAAxwMIXHlOUeg8ePCj/FFHjxo0PHz4sItu3b//666+zsrLkcpyuXbueOXPmhx9+uOSSS8Rm27Zt5Rfl2qALL7zws88+E1/RVhqJ727YsCGhwJw5c8wevHnz5tOnT8tvvf/++3KX+JaMyIVE4sRWrVolzrZmzZoJBWee7/eD3H777aKEr776SlSXcG4h0ccff5xQsCLqxIkT+QV/zuyTTz7JycmRxQqiqObNm2ub8LQoebgc41a9XsRICmH49ttvW7RooUYddOjQoXr16qlRABahG0UMI70BmGV3u6FbPguJAMAyNDW2at++fWJiovaPnuEKkrxQJCoAAF7n1guPUu+bb76ZUGDNmjX+h2VkZMj4xx9/LCPyL4WVKlVKbsq1QbfeeqvcLFu2rNjs2bOn3JSLkMaNG2f24M8++yw9PT05OblixYpy6ZIgTlIeKRcStW7dWm726dNHbCYlJeX7rTrKzMyUe2+77baEcwuJDh06dP7554tNUeZNN9308MMPK1d+1KhRxYoVs/aPKMEtUfJwOcatej2KkRTM+vLLL7X+yxU+n090i2oUgEXoRhHDSG8AZtndbuiWz0IiALAMTY2tFi5cKC7v+vXr1R1wEEleKBIVAACvc+uFR6l33rx5CQU2b97sf5gW1/4GkPzDYcWLF5ebcm2Q9heQ5Z8tGzx4sNwsVqyY2Bw9erSpg/fv33/RRReJz7Vr1x44cOC9994rz0G8+cgjlT+73LdvX7FZuXJl8fmtt96SB2s/SLdu3RLOLSQS1qxZ06pVK/lHzaQlS5bIXcKuXbtEZNKkSVoE3hUlD5dj3KrXoxhJwayNGzd26tRJjTrozz//vPLKK9UoAIvQjSKGkd4AzLK73dAtn4VEAGAZmhpbnThxonTp0v369VN3wEEkeaFIVAAAvM6tFx6l3i+++CKhwOOPP64d8/vvv3/++ecyPm3atPyCvwV23XXXic2UlBR5TIhrg0wdrP0apL1794r48uXL5WYoC4m2bdsmD5aLgXJzc6tWrZpwbiHRmTNnzp49m1/wg4jCa9euLXbdfffdshypQQH/CDwqSh4ux7hVr0cxkoJZ4uG644471KizqlSpcurUKTUKwAp0o4hhpDcAs+xuN3TLZyERAFhm2bJloqmZPHnyOtijVatWZcqUWb58ubojzhw4cEBNPqeQ5KEgUQEAiJyLLzzrXJpACKy3ZcuWCQVuueWWfv361a9ff/78+SLetGlTEbzgggvuvvvuZs2ayWNmz54tvxXi2iBTB2/cuFHW0qlTJ7F5xRVXyM1QFhIJN954o9gsUaJE9+7dr7322iJFiiScW0i0c+fOSpUqiZ9uwoQJI0eOlH9b7amnnpJflCZNmiSCu3bt8g/CiwKT3Blu1cvoySxGUvEsjH7//fff7927txp1luj+jh49qkYBWGGdS9034ADSG4BZdrcbuuWzkAgALDN58uQEwBFpaWmffPKJmoL2I8kBAIBj3HrhcWsCIbDeY8eO9e7du0SJEvKCnH/++cuWLRPxo0eP3n777XKVj1C+fPkpU6Zo3wpxbZDZgx955BG5AKhMmTJTp06VVYe4kOj777+vWbOm/Mqtt956xx13JJxbSPTTTz8lJSXJXULRokU7dux4/Phx+UUpKytLnMmoUaP8g/CiwCR3hlv1MnoCTDHb77/zzjuiu1GjzmrYsOG+ffvUKAAruNV9Aw4gvQGYZXe7oVs+C4kAwDLyN/xPmTIlE/ZYu3atuLz888QXX3yxatWqZcqUOXbsmJqFNiPJQ0GiAgAQORdfeNa5NIEQrN6TJ09u3759586d4oN/3Ofzbdu27fvvv//zzz/94/Y5evToN998E97fcMnLyxM/QrD/25qTk7OjgPih1H0FmjdvXrNmTTUKrwmW5HZzq15GT2YxkopnYfT7ixYtGjhwoBp1luieROelRgFYYZ1L3TfgANIbgFl2txu65bOQCAAsQ1MDx6xYsUIkm6l/q2cJkhwAADgm3l543KrXE2bOnCkuzpYtW9Qd8BS3kjze6gU8ymy//9prrw0dOlSNOqtdu3abN29WowCsQDeKGEZ6AzDL7nZDt3wWEgGAZWhq4Bi3ks2tegEAQBxy68Uj3ur1hOzs7BIlSgwZMkTdAU9xK8njrV7Ao8w+MjNmzBgxYoQadVbXrl0zMzPVKAArmG0TAA8hvQGYZXe7oVs+C4kAwDI0NXCMW8nmVr0AACAOufXiEW/1ekX79u0TExPz8vLUHfAOt5I83uoFPMrsI/P888+PHTtWjTqrT58+K1asUKMArGC2TQA8hPQGYJbd7YZu+SwkAgDL0NTAMW4lm1v1AgCAOOTWi0e81esVCxcuFNdn/fr16g54h1tJHm/1Ah5l9pF55plnnnvuOTXqrP79+2dkZKhRAFYw2yYAHkJ6AzDL7nZDt3wWEgGAZWhq4Bi3ks2tegEAQBxy68Uj3ur1ihMnTpQuXbpfv37qDniHW0keb/UCHmX2kRk9evQLL7ygRp01bNiwOXPmqFEAVjDbJgAeQnoDMMvudkO3fBYSAYBlaGrgGLeSza16AQBAHHLrxcOtepctWybqnTx58joE0apVqzJlyixfvlzdASscOHBATUqrrXPp4Yq3egGPMvvIPPHEEzNnzlSjzhozZsy0adPUKAArmG0TAA8hvQGYZXe7oVs+C4kAwDI0NXCMW8nmVr0AACAOufXi4Va9kydPTgBclZaW9sknn6ipaR23Hq54qxfwKLOPzJAhQ+bPn69GnSX67gkTJqhRAFYw2yYAHkJ6AzDL7nZDt3wWEgGAZWhq4Bi3ks2tegEAQBxy68XDrXqXL18u6p0yZUomgli7dq24PvxGIpu8+OKLVatWLVOmzLFjx9TstMg6lx6ueKsX8Cizj0z//v0zMjLUqLNmzJgxYsQINQrACmbbBMBDSG8AZtndbuiWz0IiALAMTQ0c41ayuVUvAACIQ269eMRbvYBmxYoVIgnt+6VEbiV5vNULeJTZR+a+++5799131aizXn/99cGDB6tRAFYw2yYAHkJ6AzDL7nZDt3wWEgGAZWhq4Bi3ks2tegEAQBxy68Uj3uoFNHYnod3lBxNv9QIeZfaRufPOOz/44AM16qylS5f27dtXjQKwgtk2AfAQ0huAWXa3G7rls5AIACxDUwPHuJVsbtULAADikFsvHvFWL6CxOwntLj+YeKsX8Cizj0zXrl0zMzPVqLPWrFnTs2dPNQrACmbbBMBDSG8AZtndbuiWz0IiALAMTQ0c41ayuVUvAACIQ269eMRbvYDG7iS0u/xg4q1ewKPMPjIdOnTYtGmTGnXWxo0bO3bsqEYBWMFsmwB4COkNwCy72w3d8llIBACWoamBY9xKNrfqBQAAccitF494qxfQ2J2EdpcfTLzVC3iU2UemTZs2W7duVaPO2rZtW+vWrdUoACuYbRMADyG9AZhld7uhWz4LiQDAMjQ1cIxbyeZWvQAAIA659eIRb/UCGruT0O7yg4m3egGPMvvING/efOfOnWrUWXv27GncuLEaBWAFs20C4CGkNwCz7G43dMtnIREAWIamBo5xK9ncqhcAAMQht1484q1eQGN3EtpdfjDxVi/gUWYfmUaNGv3www9q1FmHDh1KS0tTowCsYLZNADyE9AZglt3thm75LCQCAMvQ1MAxbiWbW/UCAIA45NaLR7zVC2jsTkK7yw8m3uoFPMrsI3PttddmZWWpUWf99ttvV199tRoFYAWzbQLgIaQ3ALPsbjd0y2chEQBYhqYGjnEr2dyqFwAAxCG3XjzirV5AY3cS2l1+MPFWL+BRZh+Z2rVr//LLL2rUWWfPnq1UqVJeXp66A0DEzLYJgIeQ3gDMsrvd0C2fhUQAYBmaGjjGrWRzq14AABCH3HrxiLd6AY3dSWh3+cHEW72AR5l9ZGrUqOHz+dSo45KSkk6ePKlGAUTMbJsAeAjpDcAsu9sN3fJZSGRabm7uyy+//Eyc6dWrVzQMzPJj8fr37NkzSq6tsGjRorFjx6qn6GUOX14Lm5pIxN599BwH2ky3ks2tehWx1xe4y4GMDR0tGGKJw+8hxmg5YS1n0tutFw9v1RvNXaczeRKiWG0Grb3I4SVh6OwuP5h4q1cRq8kfuu7du1v4mETCu/fC2qYmGLOPTNWqVaNhBU80/GIkICaZbRMAD4mN9HZlKBpV89iAk+xuN3TLZyGROadPnx46dOiuXbt8cWbMmDFPPPGEz+3WOSav/8iRI998802f29dWyMzMzMjIUM/P45566qkPP/zQ59TltaqpiURM3kfPEW3miBEjfHYmnlvJ5la9/mKyL3DX6NGjJ0yY4LMzY0NEC4YYI95DPv74Y18UPFy0nLCcGMWIRttnc3q79eLhoXqjvOsUebJq1SqfzXkSihhuBkeNGjVz5kyfRRc5jCQ0xe7yg4m3ev3FcPKH7sknn/ziiy98Fj0mYfP0vRBNjexu1J/KUmYfmSuvvPLMmTNq1HE33HDDjz/+qEYBRMxsmwB4SAykt1tD0dGjR48bN85n8zsJEIXsbjd0y2chkTkvv/yyR8d7ERo7dmxOTo7ra4li8vqLayv+Gw1ricaMGXPs2DH1/DxOXl7H1hJZ1dREIibvo+eIxMvOzrZ1LZFbyeZWvf5isi9wl8hY0W5Ew1oiWjDEGPkeEg1riWg5YTmZ3navJXLrxcND9UZ51ynzJBrWEsVwMyhf5KxaSxRGEppid/nBxFu9/mI4+UMn2yLX1xJ5+l7Ia2j3WiJTj8zZs2evuOIKNeqGli1bbt++XY0CiJipNgHwlhhIb7eGonL4w1oixCG72w3d8llIZI5sm+KQHC66vpYoJq+/vLa+KFhLJDr+v5xZTNAurzNriaxqaiIRk/fRc2Ti2bqWyK1kc6tefzHZF7hLZmw0rCWiBUOM0d5DXF9LRMsJy2npbetaIrdePDxUb5R3nVqeuL6WKIabQe1FzpK1RGEkoSl2lx9MvNXrL4aTP3RaW+TuWiJP3wvtGtq6lsjUI/PHH39UrlxZjbqhffv2mzdvVqMAImaqTQC8JQbS262hqDb8YS0R4o3d7YZu+SwkMkf+D7Y4pA0X3V1LFJPXX7u2PrfXEvmfSczw/6EcWEtkVVMTiZi8j56j3QX71hK5lWxu1esvJvsCd2kZ6/paIlowxBj/lHZ3LREtJyznn972rSVy68XDQ/VGedfpf3ruriWK4WbQ/0Uu8rVEYSShKXaXH0y81esvhpM/dP5tkYtriTx9L/yvoX1riUw9Mr/99ltycrIadUO3bt1CPGcApphqEwBviYH0dmso6j/8YS0R4ord7YZu+SwkMsfTQ75I+HcJLq4lisnrr3S3Lq4lcqvjt5XyQ9m9lsiqpiYSMXkfPcf/Lti0lsitZHOrXn8x2Re4yz9j3V1LRAuGGKOktItriWg5YTklvW1aS+TWi4eH6o3yrlM5PRfXEsVwM6i8yEW4liiMJDTF7vKDibd6/cVw8odOaYvcWkvk6XuhXEOb1hKZemSOHj2akpKiRt1w7733Llu2TI0CiJipNgHwlhhIb7eGosrwh7VEiB92txu65bOQyBxPD/kioXQJbq0lisnrH9jdurWWKPBMYkDgD2XrWiKrmppIBP7IcJ5yF+xYS+RWsrlVr7+Y7AvcpWSsi2uJaMEQYwJT2q21RLScsFxgetuxlsitFw8P1Rt4I6JK4Om5tZYohpvBwBe5SNYShZGEpthdfjDxVq+/GE7+0AW2Ra6sJfL0vQi8hnasJTL1yBw6dCgtLU2NumHgwIGLFi1SowAiZqpNALwlBtI78N3AGYHDH9YSIU7Y3W7ols9CInM8PeSLRGCX4Mpaopi8/oHX1ufSWiLdM/E63R/KvrVEVjU1kdD9keGwwLtg+Voit5LNrXr9xWRf4K7AjHVrLVHgmQCeppvSrqwlouWE5XTT2/K1RG69eHioXt0bET10T8+VtUQx3AwGXuRI1hKFkYSm2F1+MPFWr78YTv7QBT4mPjfWEnn6XuheQ8vXEpl6ZPbt29ewYUM16obHH3/81VdfVaMAImaqTQC8JQbSW/fdwAGB9bKWCHHC7nZDt3wWEpnj6SFfJAKbZp8ba4li8vqPHDlSDRVwfi2R7l32umCX16a1RFY1NZGIyfvoObp3wdq1RG4lm1v1+ovJvsBduhnryloi3TMBvCvYe4jza4loOWG5YOlt7Voit148PFRvlHedwfLE+bVEMdwM6uZA2GuJwkhCU+wuP5h4q9dfDCd/6IK1RQ6vJfL0vQh2Da1dS2Tqkfnvf//buHFjNeqGcePGPf/882oUQMRMtQmAt8RAeusOQxygWy9riRAP7G43dMtnIZE5nh7yRWLixIn79+9Xo46vJYrJ6z937lw56g7k8Foi3Q7Y6wwurx1riaxqaiIRk/fRc4K1mRauJXIr2dyq119M9gXuCpaxzq8logVDjDF4D3F4LREtJyxnkN4WriVy68XDQ/VGeddpkCcOryWK4WbQ4EUujLVEYSShKXaXH0y81esvhpM/dAZtkZNriTx9LwyuoYVriUw9Mjt27GjRooUadcOUKVPGjx+vRgFEzFSbAHhLDKS3W0NRg+EPa4kQ2+xuN3TLZyGROZ4e8kXiwIED4mcXrfDYAE8//XSPHj3UK2WPWL3+H3zwwejRo9UrO3asCD744IPqVbDNWJc6frsZXN5//vOf6lWIjFVNTSTGxuh99BYH2ky3ks2tev3Fal/gIoOMFU1lr1691Htgm7G0YIg5Bu8hQ4YMUZ8B29Bywg4G6T1o0CA1C8Pi1ouHh+odG/Vdp0GeDBw4UP15bBPDzaDxi9w999yjXgtDYSShKXaXH0y81esvhpPfFIO2aPjw4epVs4fX74XBNXzggQfUnzYsph6Zr7766pZbblGjbpg5c+YTTzyhRgFEzFSbAHhLDKT3WJeGosbDHyfnsQGH2d1u6JbPQiJzvD7ks8lzzz2nXil7xOH1d/JftIx1qeN3kXjbUK9CZKxqaiIRh/fRc5599ln1tpnnVrK5Va+/OOwL3PXMM8+o98A2tGCIK5a/hxig5YTDrEpvt148PFSvp7tOq/IkFHHbDIofXL0WhsJIQlPsLj+YeKvXX9wmf+hEQ6peNXvE8L2wavbS1COzefPmdu3aqVE3vPHGG5b/S0UA+SbbBMBbYiC9o3Mo6uQ8NuAwu9sN3fJZSGRODA/5IsFCIvtYNRQPRXR2/LayfObaqqYmEnF4Hz2HhUQRisO+wF1ODsBowRBXLH8PMUDLCYdZld5uvXh4qF5Pd51W5Uko4rYZZCGRFG/1+ovb5A8dC4kiZ9XspalHZsOGDZ06dVKjbnjvvffuv/9+NQogYqbaBMBbYiC9o3Mo6uQ8NuAwu9sN3fJZSGSOK0O+SZMmTZs2TY3+lRiwTZ8+XY06xRMLidy9RGGzaigeilA6/mXLlvXt27dLly5ff/21us+DLJ+5tqqpiUQo99FztMQbOnSo9iB79KH2sZAoYiH2BceOHVu1atWMGTPE2YYSN94l7Ny5MzMzc+/eveqOACEmp8FhBrv8hXhYhJwcgIXSghncpvB2ff755/Pnz1+wYMH27duVXYCtLH8PMeB8y/nrr7+uX7/+tddemzNnzsaNG/13wSrGvYDxXrtZld5uvXh4qN5Cu84QMyHEw6xlVZ6EIsRmsNBxh9kL5T+fM3LkSNEk/nW/7VhIJMVbvf5CTH4LmX1MXBfbC4mcuR1WzV6aemTE8Lxr165q1A0ffvhh9+7d1SiAiJlqEwBviYH0LnQo6gon57EBh9ndbuiWz0Iic1wZ8nXp0uXOO+9Uo3/Vtm3b++67T406xRMLiTp37vzwww+r0ahn1VA8FIV2/Bs2bDjvvPOGDh06efLkPXv2qLs9yPKZa6uamkgUeh+tcu+9944aNUqN2sA/8f7xj39oD7J/u+fYyViChUQRCqUvOHr0aOvWrcuWLdusWbNSpUp169bt2LFjBnHjXTNnzrzssssSCsyYMUOrJZgQexz/w5QcDrEEZ3p/JwdghbZgBrcpvF3XXXdd0aJFk5KSqlevXrx48WHDhsk44pljfYrl7yEGnG85e/bsWbJkyZQC4ikTPbg4WKsLihCzzqCzCCzBmT4iGKvS260XDw/VW2jXGeJLhXE62cSqPAlFKM1gKOMOs0+W/3yOaCofeeSRv+63HQuJpHir118oyW9KYBNh0D15QmwvJHLmdlg1e2nqkVm9erVoYNWoGzZt2nTbbbepUQARM9UmAN4SA+ld6FDUFU7OYwMOs7vd0C2fhUTmuDLkYyGRxpXr7y6rhuKhKLTjF31wSkqKGvUyy2eurWpqIlHofbTKLbfc8sADD6hRGwRLPP92z7GTsQQLiSIUSl8gnu6yZcvu3LlTfN68efP5558/e/Zsg7jxrlWrVs2aNevLL79MCG0hURjCy2Fnen8nB2CFtmAGtym8XaKf3b17t/z8/PPPi1u8du1auYm4Fd7zGAbL30MMON9ybt++XVs5lJmZWbx48RdffFFuIlCIWWdwWOAuZ/qIYKxKb7dePDxUb6FdZxgC08kmVuVJKEJpBkMZd5h9slhIpLC7/GDirV5/oSS/KYFNRGDEW2J7IZEzrJq9NPXIrFix4p577lGjbvjmm29atWqlRgFEzFSbAHhLDKS3HUPRyDk5jw04zO52Q7d8FhKZE8qQb8SIEa+++uq///3vBg0a3HjjjYsXLz527JgYUNWvX//mm29evny5duSLL77YpEmT1NTUO+64Y+vWrVpcHD9mzJhrr71WfH369OnKQqKMjAwxRK9du3aHDh0++ugjGfSfzPr0009vv/32OnXqiBPo2bPnrl27tO9qxEnOmjVL/DjXXXfd9ddfr03rv/nmm/fff7//kc8///wTTzzhHwkUPQuJxNXu27evf2TatGmPP/64+CAuqf//vQi8jP/5z3+067xv375OnTq98sorcvP1119/7LHH5OdCL6+119aqoXgojDt+cSYpKSlly5YVV0abIdLNYXkFxCMgfvxevXrJSIgPRaGX12fpFbZ85tqqpiYSxvdReuutt/7+97+LG3rTTTdNmjRJBh955BFxa7RjJk6cOHXqVPk58L6Ib1WsWLF69eqdCnz33Xe+IPngM5MAgZTE83+QtXZP92R8eo+5Ty8/A386eaQ/C7POx0KiiBXaFwh169b1/3887dq1E8lgEDfepUkIbSGRf6LK/BdPU8OGDRs3buzfE2mHBeawfwmrVq3q3r27eF5E7vXv3/+nn37SSgj2v7KszVgnB2CFtmAGtym8Xf5ycnJKlCihNX26AtsQ3aZGHhl60xfYfhq80viCV6rLIIUM8jOwbQzxTSnYuQVeumB0O6nASyQFFhsYCXZKPr26Ap9H/+N9lj5flr+HGHCx5ZSuvPLK4cOHq1E/gTfOF+TeRfhw+Sx9voLlgy9I1T69h6vQrJMCDzPoR3wBfUQoP1ewH8fF9HbrxcND9RbadUb+WqIdI+nmSRhJ4rMuT0JRaDMYyrhD+azLYD5HLiQKfMQUulfYF+5FnsBCogLxVq+/QpPfp9c3yXhg3xHYRARGQmx2xLv3qFGj6tWrJx+W5557zmAKQvuWxsInJXoWEoXyvq17cQwupjIdqrHwAvqsm7009ci8/fbborlWo27Ys2dPo0aN1CiAiJlqEwBviYH0LnQoqgh8sZSCvS4aT90E4+Q8NuAwu9sN3fJZSGROoUM+X8Hc0BVXXNG9e/dFixY99NBDxYsX79Wr11133SU277nnnpIlS8q/CTVx4sQLL7xQDLSWLFly6623li9ffu/evbIEMfYrXbq0GIqLhrVJkyaXX365NowUbWipUqXEAe+9996wYcNECRs3bvT5TWb98ssvl156qaho+fLlYuw3dOjQLVu2/O+Z+REnKYq97bbbRO2itPPOO0+MHkV8x44dxYoVEwNXedjRo0dFaZMnT/7LlwNEz0Ii+esi5DXxFQykxb0QF9n31/k+3cu4c+dO8V1RgjhgwYIF4pqIfkseL26QuJW+0C6vtdfWqqF4KIw7/rVr13bp0qVKlSrz5s0TP5oveA7LR0Bc8Llz54qrpEUKfShCubw+S6+w5TPXVjU1kTC+j76COSBx0QYPHvzuu++KVzTtH8WmpqaOHj1aO6xTp06y5dG9L5mZmWlpaeLNb16BrKysYPngCzkBdCmJpzuJH3gyviCPuS8gP3V/Or/6/5eFWedjIVHECu0L5HIQkepa5F//+pe478HiBl/RNqWE0BYS+SeqSJ5KlSp17tx54cKFTz31VNGiRUVOKocF5rB/CaKlGjNmzNKlS994440bbrihUaNGMu5fgsLajHVyAGbcghncpvB2KT799FNxi1esWKHu8KO0IcGaGu3IUJo+3fbT4JXGoFJdBikULD9128ZQ3pQMzi3w9UCXbiele4nk8YHFhn6PdOsKfB7/98zOsfD5svw9xIBbLeevv/76008//fvf/xY5b5yogbcy2L2L8OHyGQ4ZglUaTLB8CFa17sNVaNZJgYcZ9CO+EIY//oVLwX4cF9PbrRcPD9Vr3HX6rHgt0YqSdPMkjCTxWZcnoSi0GQxl3KF81jUq+HyO7qX767eNDgvvIrOQSIq3ev0Vmvy6fZMvSN8R2EQERkJsdkSZZcqUmTp16ltvvdWqVSvtYQl2PgoLn5ToWUhU6Pt2sIsT7GL6grdaFl5An3Wzl6YemcWLFw8YMECNuuHw4cN169ZVowAiZqpNALwlBtK70KGoP90XS7kr2OuiwdSNASfnsQGH2d1u6JbPQiJzCh3y+Qpavfr168vPx44dE01b48aN5WZ2dna5cuVmz57966+/li1bVvt/9mIzMTFRDP98BSM0seu5556Tuw4cOHDxxRfL4Z847JJLLhHtoNwl9OjRIz093ec3LNy6dav4SeXfFzAgTrJKlSqi5ZWbAwcOTE5Olp/F0FQbbb722muicQ+cOlREz0IiQYyxtT/+/c4774iRsPx/CdolMriMV199tfzH6Pfee2/v3r1LlCghfnZx18QtyMjI8IV2ea29tlYNxUNRaMc/cuTItLQ0+dkgh8UVqFmzpkh+7YuhPBS+0C6vz9IrbPnMtVVNTSSM76NoYcQF1124HWwhUbD7covfby83yAdfyAkQjH/iBZvE9z8Zn+FjruRnsJ9OYWHW+VhIFLFC+4L9+/eLk5w/f74WEddcjE+CxQ2+om1KCWEtJBIJrKVcy5YtQ8nhYLO9P/zwgziHzz//XG4GO8zajHVyAGbcghncpvB2+fvll1+uu+66Jk2a+PdfgfzbEIOmRh4ZStNn0H7qvtIYV1ooJYWC5WewttH4Tcn43AJfDwLpdlIGl8inV2yI90i3Lkl5HhUWPl+Wv4cYcKXllIvzBBGcN2+eFtel3EqDexf5w+Wz7vnSzQeDqoM9XMZZpzHoLAJLCGX4o9D9ceRnt9LbrRcPD9Vr3HX6rHgtUQTLE7NJ4rMuT0JRaDPoC23cEeztSzKYz/EFv3QKg8PCuMgsJJLirV5/hSa/bt9k0HcENhEG3VOwZke8e5cuXVpbjvzzzz+XL1/eeApCYeGTEj0LiXyFvW/rXhyDi+kL3mpZeAF91s1emnpkFixYMHjwYDXqhuPHj1erVk2NAoiYqTYB8JYYSO9Ch6IagxdLX/DXRV+QqRu5GYyT89iAw+xuN3TLZyGROaEM+USr5z9+Fi2d9gs/hJSUlHHjxsmB36effqrFe/Xq1aZNG/Fhy5YtYtcXX3yh7WrRooUcv8m5+D59+gwbNuyxxx4bOnSo2CUK9P11mviaa6656qqrxAjw3XffPXr0qFaOP3GSd911l7a5dOnSIkWKiKGm+LxkyZKSJUvKIeLNN98sRq3aYcFE1UKiKVOmXHbZZeI6iM+33367uDIyrl0ig8soRunt2rXzFYzb33vvvbp16y5atGjt2rXFixeXFySUy2vttbVqKB6KQjt+/3lVgxwWV+Cee+7R4jJS6EPhC+3y+iy9wpbPXFvV1ETC+D5u3LgxwW8dt79gC4mC3Rf/uUKDfPCFnADBhDKhr0xcGjzmSn4G++kUFmadj4VEESu0LxC3Q5yk//+0FkMIeZt04wZf0TalhLAWEvknp0g/2dEohxlMvosB0qBBg5o2bSpyuFatWiL33nrrrcDD/FmbsU4OwIxbMIPbFN4ujWgKxH1JTk4udDjq34YYNDXyyFCaPoP2U/eVxrhSXQYpFCw/g7WNxm9KxucW+HoQSLeTMrhEPr1iQ7xHunVJgf97zJ+Fz5fl7yEGXGk5RSLt3LlT3AVx5UuUKKH9BgJdyq00uHeRP1w+654v3XyQ5ehWHezhMs46jUFnEVhCKMMfhe6P4256u/Xi4aF6jbtOnxWvJYpgeWI2SXzW5UkoCm0GfaGNO4K9fUkG8zm+4JdOi0gGh4VxkVlIJMVbvf4KTX7dvsmg7whsIgy6p2DNzueffy7K9/9VQ3/729+MpyAUFj4pUbWQyPh9W/fiGFxMX/BWy8IL6LNu9tLUIzN37lyRn2rUDXl5eZUqVRL/VXcAiIypNgHwlhhI70KHohqDF0tf8NdFX5CpG2NOzmMDDrO73dAtn4VE5oQy5GtW8Gfvtc0bbrhBNI7apvxf9Rs2bBDns23bNi1+//33N23aVHyQu3bs2KHtEo2mHP795z//EbvEWHGkH/nvVPyHhQcPHhTN6z/+8Y+LLrqoSpUq/rVoxEn269dP21y9erUo+ccff/QV/Lte8a3JkyeLL4ox5Pr16//va0FE1UKi/fv3X3DBBRkZGQcOHLjwwgtff/11GdcukcFlXLBgQdmyZcXFFyUcPnxYHCOu0ogRI66//nqt/EIvr7XX1qqheCgK7fhH+s2rGuSw8ggERnQfCvm50Mvrs/QKWz5zbVVTEwnj+yjPcOvWreqOgIVEHTt21CaedO+L/1yhQT74zCSALv/ECzaJr0xcGjzmgfmp+9MpLMw6HwuJIlZoXyBuSsmSJbV/Cy4MGTJE3KZgcYOvaJtSQlgLifxTTsS1MY9BDvvvuvbaa1u3bv3OO+9s3Lhx8+bN5513XmDXprA2Y50cgBm3YAa3KbxdUnZ2tmjxqlat+t1332nBYPxvqEFToxzpC970GbSfuq80xpXqMkghg/zUbRuN35SMzy2w+Q2k20kZXCKfXrEh3iPduqTA/z3mz8Lny/L3EAMutpxSq1atbr31VjXqR7mVBvcu8ofLZ93zpZsPK1euNKha9+EyzjqNQWcRWEIowx+F7o/jbnq79eLhoXqNu06fFa8limB5YjZJfNblSSgKbQZ9oY07gr19SQbzOb7gl06LSAaHhXGRWUgkxVu9/kJJ/sC+yaDvCGwiDLqnYM2OXNL9zTffaLv8fwtO4Ploh2ksfFKiaiGR8fu2T+/iGF/MYK2WhRfQZ93spalHZtasWeLKqFGXVKtW7fjx42oUQGRMtQmAt8RAehc6FNUYvFj6gr8u+oJM3Rhzch4bcJjd7YZu+SwkMieUIV8oU9tZWVliJPbGG29o8caNG8t/CCIaRLFryZIl2q7q1avL4d/evXuLFi3q/+cDNLrDQjG2TE5OFq2zEvcVnKSgbU6dOvXiiy/WNkeNGlW7dm3xU9SrV08LGoiqhURC586db7vttueff/6SSy7R/umSdokMLuO+ffvErvvvv19enLfffrtWrVpNmzbV/giCv2CX19pra9VQPBSFdvwj/eZVDXJYeQQCI7oPhbYpBbu8PkuvsOUz11Y1NZEwvo8yyefOnavu8PmaNGkyZMgQbVNcQG3iSeN/X8Qz1bdvXxk3yAdfWAngzz/xgk3i+5+Mz/AxD8xPjTNZ52MhUcRC6QtEPnft2lXbFLdPdA0GceNdmgTbFhIpOazt2rVrl6j0yy+/lHH5x6FDWUhkYcY6OQAzbsF8hrcpvF05OTm33357YmLi9u3btQMM+N9Qg6bGF3DrgzV9xu1n4CuNcaWBjFPIID81/m2j8ZuS8bkpdenS7aSML1FgsSHeI926JOV5VFj4fFn+HmLAxZZTEle1efPmatSPcisN7p0lD5fPiufLFyQfCq1aCvZaZSBYZxG4y39v6D+X7o+jbbqS3m69eHio3kK7zshfSxQGeWIqSXzW5UkoQmkGQxx36L59SQbzOT7DS+fP+DCzF5mFRFK81esvlOTXaH2TQd8R2EQYdE/Bmp1Dhw4VL15c+72G2dnZV155pfEUhMLCJyWqFhIZv2/70y6O8cUM1mpZeAF91s1emnpkxNhctNtq1CV16tQ5fPiwGgUQGVNtAuAtMZDehQ5FNQYvlr7gr4tS4NSNMSfnsQGH2d1u6JbPQiJzQhnyKa1esKnt9PR08XnXrl3i88yZM4sUKfKf//xHHtOhQ4f69euLoaP4PHHiRNHCasO/O+64o0qVKtpfYdi8efO7777r8xsWbt++XQwy5Z+4Fq1z1apVxdhPfJ4+fbp/4ytOslixYvJ/I+3YsUMcpv2lSeGHH344//zzL7zwQu0PbBuLtoVES5YsEecvRrzB/kVUsMsopKWllShR4qmnnvIV/Flx8fm8885bsWKF3BvK5bX22lo1FA9FoR2//7yqL3gOK49AYCTYQxHK5fVZeoUtn7m2qqmJRKH38fbbbxcXbdOmTb6C3xm+atUqGe/fv3/16tXlPyYWV09cZNnyBLsv/fr1u/7663fv3n3w4EHxlWD54As5AYIJZUJfORlf8MdcOZlgP519WedjIVHEQukLXn31VXFTVq9eLT4vXrxY9KTLly83iBvvEt3B5wXEz/7000+LDzLVgwll6lw5TMlhbZeoWnRDkydP9hX8r6kWLVqIh0t3IZF9PZGTA7BCWzCD2xTerh49epQqVerNN9+Ut1gQ10fu0qXc0GBNTeCRBk2fQfup+0pjUGkg4xQKlp/B2kZfYW9KBucW+HqgS7eTMrhEgcWGfo906/IFPI/29QiWv4cYcL7lFE3Htm3bsrOzs7Kypk6dKi6a/+8uChR4K4PdO0seLp8Vz5cveD4EqzrYwxX4JqMrWGcRuMsX2vAn+tPbrRcPD9VbaNcZ+WtJ6HliKkl81uVJKEJpBkMZd/h/1mUwn2Nw6ex7kWMhkRRv9forNPmD9U3B+o7AHsegezJodnr37i3qWrNmjchzUULJkiWNpyBCb4t8Jp+UqFpI5DN83w52cYJdTJ9TY0arZi9NPTIvvfTSmDFj1KhLGjVqJC6aGgUQGVNtAuAtMZDehQ5F/V88gr1Y+gxfF31Bpm4MODmPDTjs/7F353FSFHfjx+XSeKKPJpFLFkRQuUUEAUPEKyoiXgQBhccDDdGgD6ioKKILBGM4VJ4sisZ4IcjGSERJAiKHgKAoQpAAy7kciwS2NURdFX/1Y16ZZ6ztnq2erqnq4/P+w9fut2e7Zrurvt+ama9svvOG6/lpJPJH5SWf4lvbGzZs6NKlS/Xq1WvXri1emIlXXOnHrF27VqRF8Srx2GOPFWfL/Kewd+7c2a9fv5o1ax533HHiZaH474QJE5yMl4UiEf/oRz8SLzLr1asn0mv37t1Tf99aPIfM/7NEnFacs3Xr1scff7x4Duecc05paWn6qHPwk5Wjjz5aDJcZ9BK2RqK9e/fWqVNH3PFFixalg5mvnL0uoyDuXWqqpL7t3LmzuDuffvpp6luVy6v32up6Ka6iysIvNRJ5zeHKnwMpLgqVy+tovcLa37nWlWqCqPI+bt++/YorrqhWrZq4gOJq/+xnP0vF169fL+6FWBdHHnlkjx490pnH676sXLlS3Epx68WvvHz5cq/54ChPAC8qb+hLT8bxXubSk/H67fI36xwaiQJTrAXiRotKKm6ZuLOFhYVVxrMcEi9sDvm+yv+zbCbFt86zzOHMQ2LCiCn64x//WKxNscDFfHZtJMpfJTL5AqzKDOZ436bcDolvpZubmaAqk26oV6qp/MgsqS9L/nTd0mQZ1FWWKeQ1P71yo1PVTinLc6u8PXDlWqSyXKLKp1W/R65jOZXWY/4qgvZ9SBbmM6e4huLaikskLqN4UTNixIgs/TFOpRvneN87LYvL0bS+vOaD19Bei6vyTsZVlmJR+QwqL3/CP71tbTwiNG6VpTP4tsTXPFGfJI6+eaJCJQ2qvO7I/NpVlvdzsly6/G3kaCRKSdq4maqc/F61yat2VK44WcpTlrSzY8eOa6+9VmxQxZnFY8S4t99+u+P9fHzlIsfPSglbI1GW/bbXxfG6mI6p14y63r30tWQef/xxvykuf84///zVq1fLUQDB+MoJQLTEYHpX+VI0c+PhtbF0sm4XHY+3brIw+T42YFi+84br+Wkk8kfxJZ+6Tz75RLwITH82k1ZeXv7+++9//PHHUjxl+/bt4qfE6xORQ+VjB6VOu3nzZvnAf6RT84oVK8QLfvmw44gXkDfddJMc9RC2RiJFVV5GL9kvr95rq+uluIoqC78rrzmcs+yX19F6hbW/c60r1QSheB83bdokrrP0r6qIzCMu6Zo1azKDKVXelxTt8yEgxWVe5W+ncdY5NBIFpl4LxD0Vd1Z6PzRLPPshi7Zt27ZkyRL1Z6V3xpp8AaaYwbLcptwOBaSYarLzmz99Dep3CqVUmRu9+HpurlyLlN9LlCnLU3IdKwuN60v7PiQLK5lz69atS5cu/fvf/175sqvLcu8U5TBz1AfNPh+8hs55cQVU5e+V/ddxbExvWxuPCI2rWDo1yj5P1CeJo2+eqFBPg8Flfz/H8bh0admvsOPzIvv9lD2HSehLvs/vJWnjZlKc/F61qcraoYU4ecOGDVP/iGaK1/NJ07hSwtZIVKXsF6fyxXSl8QI6+t699LVkJkyYYOwd6SpdfvnlYt8rRwEE4ysnANESg+mdw0tRAxtLk+9jA4blO2+4np9GIn90veSzTurxzLRq1aqJEyfWrFlTvJKUj3kw9rItEtdf77XV9VJcRQ6F3wqNV1j7O9e6Uk0QUbmP0aJx1jk0EgUWiVpgl94Za/IFGBkM4adxfWnfh2RB5syTLPMhirL8Oramt62NR4TGNV86veaJ30ni6JsnKiKUBr2usJPTRaaRKCVp42YK7eRfuHDhE088sWTJkrlz5/bq1ev444/ftm2b/CBvGldK5BqJKsvhYmq8gI6+dy99LZnHHntswoQJctSSPn36vP3223IUQDC+cgIQLTGY3uZfiqow+T42YFi+84br+Wkk8id/L/kM69mz5wMPPCBHD2rVqlWTJk0mTZokH/BGI1EmvddW10txFeEs/JVpvMLa37nWlWqCiMp9lKxbt66HG/V/IiKvNM46h0aiwEJSC8I8afXOWJMvwEKSwcJ8c71E6zlH69lKNK4v7fuQLMicQWR52lnmQ86yDCc/VLcsv46t6W1r4xGhcbOXzkN0kM7pNU/8ThJH3zxRoTcN5nWdel1hJ6eLTCNRStLGzaR38mv03nvvdevWraCg4JRTTrnyyis//PBD+RFZaVwpMWgkyuFiaryAjr53L30tmbFjxz755JNy1JKbb7555syZchRAML5yAhAtMZje2V+K2mLyfWzAsHznDdfz00jkT/5e8kUajUT5o+uluIpwFv680v7Ota5UE0RE7+OuXbumuan810BigEaigEJSC5IzaU2+AAtJBovizY3Wc47Ws80f7fuQLMicQRh+2oaHyxNd09vWxiNC44akdOZG1zxRoTcNRmid0kiUkrRxM+md/LEUg0Yi63S9e+lryYgiUlRUJEctueOOO6ZOnSpHAQTjKycA0RKD6R3Ol6Im38cGDMt33nA9P41E/sT4JV8QNBLlj66X4irCWfjzSvs717pSTRAJvI+RQyNRQAmsBXaZfAFGBkOiaN+HZEHmhGG6pretjUeExo106dQ1T1QkNg3SSJSStHEzJXbyq6ORKDhd7176WjKPPPLIlClT5Kgl999/f3ieDBAbvnICEC0xmN7hfClq8n1swLB85w3X89NI5E+MX/IFQSNR/uh6Ka4inIU/r7S/c60r1QSRwPsYOTQSBZTAWmCXyRdgZDAkivZ9SBZkThima3rb2nhEaNxIl05d80RFYtMgjUQpSRs3U2InvzoaiYLT9e6lryUzYsSI5557To5aIiraxIkT5SiAYHzlBCBaYjC9w/lS1OT72IBh+c4bruenkcifGL/kC4JGovzR9VJcRTgLf15pf+daV6oJIoH3MXJoJAoogbXALpMvwMhgSBTt+5AsyJwwTNf0trXxiNC4kS6duuaJisSmQRqJUpI2bqbETn51NBIFp+vdS19L5oEHHnjxxRflqCUTJkzQdREApPnKCUC0xGB6h/OlqMn3sQHD8p03XM9PI5E/MX7JFwSNRPlj8lVoOAt/Xml/51pXqgkigfcxcmgkCiiBtcAuky/AyGBIFO37kCzInDBM1/S2tfGI0LiRLp265omKxKZBGolSkjZupsROfnU0EgWn691LX0vm3nvvfeWVV+SoJU8//fTw4cPlKIBgfOUEIFpiML3D+VLU5PvYgGH5zhuu56eRyJ8Yv+QLgkai/NH1UlxFOAt/Xml/51pXqgkigfcxcmgkCiiBtcAuky/AyGBIFO37kCzInDBM1/S2tfGI0LiRLp265omKxKZBGolSkjZupsROfnU0EgWn691LX0vmrrvumjFjhhy1ZOrUqXfeeaccBRCMr5wAREsMpnc4X4qafB8bMCzfecP1/DQS+RPjl3xB0EiUP7peiqsIZ+HPK+3vXOtKNUEk8D5GDo1EASWwFthl8gUYGQyJon0fkgWZE4bpmt62Nh4RGjfSpVPXPFGR2DRII1FK0sbNlNjJr45GouB0vXvpa8kMGTLkT3/6kxy1ZObMmQMHDpSjAILxlROAaInB9A7nS1GT72MDhuU7b7ien0Yif2L8ki8ILR+Kq0jg9df1UlxFOAt/Xml/51pXqgkigfcxcrTkTFuTzda4mRJYC+wy+QKMDIZE0b4PyYLMCcN0TW9bG48IjRvp0mny1W5i0yCNRClJGzdTYie/OhqJgtOVz30tmcGDB7/xxhty1JK5c+f26dNHjgIIxldOAKIlBtM7nC9FTb6PDRiW77zhen4aifwpKipat26dnJmSraSk5KmnnpKvVH4k7fqXl5f7fdcvCFH4xYjyk4gv8cvq+oQjTVeqCSJp9zFyNmzYoCVn2ppstsbNlLRaYJe41JMnT5bvQd6QwZAc+diHZEHmhEkap7etjUeExo1u6RRPW9cHzyqSmQbFryx+cflaZJXDJPQl3+f3krRxMyVz8qsTuchYI1Fc74XGdy99LZnbbrtt9uzZctSSpUuX9uzZU44CCMZXTgCiJQbTO4QvRcVGS8snL0A45TtvuJ6fRiJ/vvrqq3vuuSeWr/pys2HDhnvvvVdcFvlK5Ueirv9nn332xz/+ceHChfJVyJsFCxbMmDFDfh4xJS5vcXGx+JXlqxCMrlQTRKLuY+RozJm2JputcTMlqhbYtX79+mHDhmmZsYrIYEgOMdW170OyIHPCJI3bbFsbjwiNG9HSmXo5ZvLVbgLToPhlxa/sdyOXwyT0Jd/n95K0cTMlcPL7YnJLFst7offdS19L5he/+MWcOXPkqCWrVq06//zz5SiAYHzlBCBaYjC9w/ZSdP369bo+eQHCKd95w/X8NBL5VlFRMXny5MdwkLgU4oLI1yifknP9R48ePW3aNPn3z7Pi4mL5ecRUni6vxlQTRHLuY+RozJm2JputcSXJqQV2aZyx6shgSII87UOyI3PCDL3T29bGI1rjRrF06p0nipKWBnPbyOU2CdXl+/xekjauJGmTX535XBS/e6H3GvpaMgMHDnznnXfkqCUlJSWdOnWSowCC8ZUTgGiJx/QO1UvR3F7+ABGS77zhen4aiQBAG1INjLE12WyNCwAAEsjWxiNp4wJp+Z6E+T6/l6SNC0SUryVzww03LFq0SI5asmvXrtatW8tRAMH4yglAtDC9AfiV77zhen4aiQBAG1INjLE12WyNCwAAEsjWxiNp4wJp+Z6E+T6/l6SNC0SUryUzYMCApUuXylFLPv/88yZNmshRAMH4yglAtDC9AfiV77zhen4aiQBAG1INjLE12WyNCwAAEsjWxiNp4wJp+Z6E+T6/l6SNC0SUryXTr1+/5cuXy1FLvv3223r16h04cEA+ACAAXzkBiBamNwC/8p03XM9PIxEAaEOqgTG2JputcQEAQALZ2ngkbVwgLd+TMN/n95K0cYGI8rVkevfuvWLFCjlqT+PGjffv3y9HAQTgKycA0cL0BuBXvvOG6/lpJAIAbUg1MMbWZLM1LgAASCBbG4+kjQuk5XsS5vv8XpI2LhBRvpZMr169PvroIzlqT6tWrXbv3i1HAQTgKycA0cL0BuBXvvOG6/lpJAIAbUg1MMbWZLM1LgAASCBbG4+kjQuk5XsS5vv8XpI2LhBRvpbMlVdeuWrVKjlqz9lnn71x40Y5CiAAXzkBiBamNwC/8p03XM9PIxEAaEOqgTG2JputcQEAQALZ2ngkbVwgLd+TMN/n95K0cYGI8rVkLr/88r///e9y1J7zzjtv9erVchRAAL5yAhAtTG8AfuU7b7ien0YiANCGVANjbE02W+MCAIAEsrXxSNq4QFq+J2G+z+8laeMCEeVryXTv3n3t2rVy1J4ePXq89957chRAAL5yAhAtTG8AfuU7b7ien0YiANCGVANjbE02W+MCAIAEsrXxSNq4QFq+J2G+z+8laeMCEeVryVx88cXr1q2To/b07t1b8ZkDUOQrJwDRwvQG4Fe+84br+WkkAgBtSDUwxtZkszUuAABIIFsbj6SNC6TlexLm+/xekjYuEFG+lswFF1xQUlIiR+258cYb33jjDTkKIABfOQGIFqY3AL/ynTdcz08jEQBoQ6qBMbYmm61xAQBAAtnaeCRtXCAt35Mw3+f3krRxgYjytWTOO++8TZs2yVF7fvWrX02bNk2OAgjAV04AooXpDcCvfOcN1/PTSAQA2pBqYIytyWZrXAAAkEC2Nh5JGxdIy/ckzPf5vSRtXCCifC2Zrl27bt26VY7ac++99/7+97+XowAC8JUTgGhhegPwK995w/X8NBIBgDakGhhja7LZGhcAACSQrY2HrXEXLVokxp0zZ458ADBl1qxZYhKKqSgf0MTW4krauEBE+VoynTt3Li0tlaP2PPLII08++aQcBRCAr5wARAvTG4Bf+c4bruenkQgAtCHVwBhbk83WuAAAIIFsbTxsjbtr164aNWr069dvHmDDpEmTGjVqVLt27fLycnl2ajLP0uJK2rhARPlaMmefffbOnTvlqD3jxo0bO3asHAUQgK+cAEQL0xuAX/nOG67np5EIALQh1cAYW5PN1rgAACCBbG08bI0rFBYW1qhR4xDAkjZt2uTvnyP6zt7iStq4QET5WjLt27cvKyuTo/ZMnjz5wQcflKMAAvCVE4BoYXoD8CvfecP1/DQSAYA2pBoYY2uy2RoXAAAkkK2Nh61xU8rKyhYsWDAPMM7AHwmaZ2lxJW1cIKJ8LZkzzjjj008/laP2vPjii0OHDpWjAALwlROAaGF6A/Ar33nD9fw0EgGANqQaGGNrstkaFwAAJJCtjYetcYHYs7W4kjYuEFG+lkzr1q337t0rR+0pLi4eNGiQHAUQgK+cAEQL0xuAX/nOG67np5EIALQh1cAYW5PN1rgAACCBbG08bI0LxJ6txZW0cYGI8rVkWrRo4TiOHLVn9uzZ/fv3l6MAAvCVE4BoYXoD8CvfecP1/DQSAYA2pBoYY2uy2RoXAAAkkK2Nh61xgdiztbiSNi4QUb6WzKmnnvr555/LUXsWLlx49dVXy1EAAfjKCUC0ML0B+JXvvOF6fhqJAEAbUg2MsTXZbI0LAAASyNbGw9a4QOzZWlxJGxeIKF9LpmnTpvv375ej9nzwwQeXXHKJHAUQgK+cAEQL0xuAX/nOG67np5EIALRZtGiRSDVz5syRDwC6zZo1S0w2MeXkA3lGPQUAAMbY2njYGheIPVuLK2njAhHla8k0btz4yy+/lKP2rF27tmvXrnIUQAC+cgIQLXyQBMCvfH8m6Fp2aSQCAG127dpVo0aNfv36zQPyadKkSY0aNapdu3Z5ebk8C/NsHvUUAACYYmvjYWtcIPZsLa6kjQtElK8lc9JJJ1VUVMhRe7Zt23bmmWfKUQAB+MoJQLTwQRIAXwx8JjjPrezSSAQAOhUWFoot4CFAnrVp0yZ/rcdZUE8BAIAxtjYetsYFYs/W4krauEBE+Voy9evX/+abb+SoPXv37j399NPlKIAAfOUEIHL4IAmAL/n+TNC17NJIBACalZWVLViwYB6QN6WlpfK0M2Ue9RQAAJhia+Nha1wg9mwtrqSNC0SUryVTp04dOWTVl19+2bBhQzkKIABfOQGIIj5IAqDIwGeC89zKLo1EAABAFfUUAAAYY2vjYWtcIPZsLa6kjQtElPqSOXDgQN26deWobfXr1//666/lKIBcqecEAAAQkGvZpZEIAACoop4CAABjbG08bI0LxJ6txZW0cYGIUl8y33zzTb169eSobU2bNnUcR44CyJV6TgAAAAG5ll0aiQAAgCrqKQAAMMbWxsPWuEDs2VpcSRsXiCj1JfP11183aNBAjtrWtm3bHTt2yFEAuVLPCQAAICDXsksjEQAAUEU9BQAAxtjaeNgaF4g9W4sraeMCEaW+ZCoqKkLYSNS5c+cNGzbIUQC5Us8JAAAgINeySyMRAABQRT0FAADG2Np42BoXiD1biytp4wIRpb5kvvrqq5NOOkmO2nbhhReuXLlSjgLIlXpOAAAAAbmWXRqJAACAKuopAAAwxtbGw9a4QOzZWlxJGxeIKPUl8+WXXxYUFMhR26644orFixfLUQC5Us8JAAAgINeySyMRAABQRT0FAADG2Np42BoXiD1biytp4wIRpb5k/v3vfzdq1EiO2ta3b985c+bIUQC5Us8JAAAgINeySyMRAABQRT0FAADG2Np42BoXiD1biytp4wIRpb5k9u/ff/LJJ8tR2wYOHPj666/LUQC5Us8JAAAgINeySyMRAABQRT0FAADG2Np42BoXiD1biytp4wIRpb5kPv/88yZNmshR2+68886XX35ZjgLIlXpOAAAAAbmWXRqJ91qU3wAAgABJREFUAACAKuopAAAwxtbGw9a4QOzZWlxJGxeIKPUl89lnnzVt2lSO2nb//fdPmTJFjgLIlXpOAAAAAbmWXRqJAACAKuopAAAwxtbGw9a4QOzZWlxJGxeIKPUl4zhOCBuJRo8ePXHiRDkKIFfqOQEAAATkWnZpJAIAAKqopwAAwBhbGw9b4wKxZ2txJW1cIKLUl0x5efmpp54qR22bMGHCmDFj5CiAXKnnBAAAEJBr2aWRCAAAqKKeAgAAY2xtPGyNC8SercWVtHGBiFJfMvv27TvttNPkqG1PPfXUAw88IEcB5Eo9JwAAgIBcyy6NRAAAQBX1FAAAGGNr42FrXCD2bC2upI0LRJT6kvnnP/95+umny1HbXnzxxSFDhshRALlSzwkAACAg17JLIxEAAFBFPQUAAMbY2njYGheIPVuLK2njAhGlvmT27NnTokULOWrba6+9duutt8pRALlSzwkAACAg17JLIxEAAFBFPQUAAMbY2njYGheIPVuLK2njAhGlvmR2797dsmVLOWrbX/7yl+uvv16OAsiVek4AAAABuZZdGokAAIAq6ikAADDG1sbD1rhA7NlaXEkbF4go9SVTVlbWunVrOWrbokWLrrrqKjkKIFfqOQEAAATkWnZpJAIAAKqopwAAwBhbGw9b4wKxZ2txJW1cIKLUl8zOnTvbtGkjR21bsWLFxRdfLEcB5Eo9JwAAgIBcyy6NRAAAQBX1FAAAGGNr42FrXCD2bC2upI0LRJT6ktm5c2fbtm3lqG3/+Mc/fvKTn8hRALlSzwkAACAg17JLIxEAAFBFPQUAAMbY2njYGheIPVuLK2njAhGlvmR27NhxxhlnyFHbtm3bduaZZ8pRALlSzwkAACAg17JLIxEAAFBFPQUAAMbY2ngsWrRIjDtnzhz5AIBgZs2aJRaXWGLygTyzlUxsjQtElPqSKS0tbdeunRy1be/evaeddpocBZAr9ZwAAAACci27NBIBAABV1FMAAGCMrY3Hrl27atSo0a9fv3kA9Jk0aVKjRo1q165dXl4ur7o8m2cpmdgaF4go9SUTzn/758svv2zYsKEcBZAr9ZwAAAACci27NBIBAABV1FMAAGCMxY1HYWFhjRo1DgGgVZs2bcz/c0Tf2UsmtsYFIkp9yYSzkUioX7/+119/LUcB5EQ9JwAAgIBcyy6NRAAAQBX1FAAAGGN341FWVrZgwYJ5ADQpLS2Vl5kp8ywlE1vjAhGlvmS2bt3avn17ORoCTZs2dRxHjgLIiXpOAAAAAbmWXRqJAACAKuopAAAwho0HAC1sJRNb4wIRpb5kQttI1KZNm507d8pRADlRzwkAACAg17JLIxEAAFBFPQUAAMaw8QCgha1kYmtcIKLUl8zWrVvPOussORoCnTp1KikpkaMAcqKeEwAAQECuZZdGIgAAoIp6CgAAjGHjAUALW8nE1rhARKkvmS1btoSzkeiCCy74+OOP5SiAnKjnBAAAEJBr2aWRCAAAqKKeAgAAY9h4ANDCVjKxNS4QUepLZsuWLR06dJCjIXD55ZcvXbpUjgLIiXpOAAAAAbmWXRqJAACAKuopAAAwho0HAC1sJRNb4wIRpb5kNm/eHM5Goj59+rz99ttyFEBO1HMCAAAIyLXs0kgEAABUUU8BAIAxbDwAaGErmdgaF4go9SWzefPmjh07ytEQuOmmm/785z/LUQA5Uc8JAAAgINeySyMRAABQRT0FAADGsPEAoIWtZGJrXCCi1JfMpk2bwtlINHjw4GnTpslRADlRzwkAACAg17JLIxEAAFBFPQUAAMaw8QCgha1kYmtcIKLUl0xoG4nuvffeZ599Vo4CyIl6TgAAAAG5ll0aiQAAgCrqKQAAMIaNBwAtbCUTW+MCEaW+ZDZu3Hj22WfL0RAoLCx88skn5SiAnKjnBAAAEJBr2aWRCAAAqKKeAgAAY9h4ANDCVjKxNS4QUepLJrSNROPGjRs7dqwcBZAT9ZwAAAACci27NBIBAABV1FMAAGAMGw8AWthKJrbGBSJKfcmUlJR06tRJjoZAUVHRiBEj5CiAnKjnBAAAEJBr2aWRCAAAqKKeAgAAY9h4ANDCVjKxNS4QUepLJrSNRC+88MJdd90lRwHkRD0nAACAgFzLLo1EAABAFfUUAAAYw8YDgBa2komtcYGIUl8yoW0kKi4uHjRokBwFkBP1nAAAAAJyLbs0EgEAAFXUUwAAYAwbDwBa2EomtsYFIkp9yYS2keitt94aMGCAHAWQE/WcAAAAAnItuzQSAQAAVdRTAABgDBsPAFrYSia2xgUiSn3JbNiwoXPnznI0BObPn9+rVy85CiAn6jkBAAAE5Fp2aSQCAACqqKcAAMAYNh4AtLCVTGyNC0SU+pIJbSPR8uXLu3fvLkcB5EQ9JwAAgIBcyy6NRAAAQBX1FAAAGMPGA4AWtpKJrXGBiFJfMhs2bOjSpYscDYE1a9Z069ZNjgLIiXpOAAAAAbmWXRqJAACAKuopAAAwho0HAC1sJRNb4wIRpb5kQttItHnz5g4dOshRADlRzwkAACAg17JLIxEAAFBFPQUAAMaw8QCgha1kYmtcIKLUl0xo/7TZ7t27W7ZsKUcB5EQ9JwAAgIBcyy6NRAAAQBX1FAAAGMPGA4AWtpKJrXGBiFJfMiUlJeFsJNq/f//JJ58sRwHkRD0nAACAgFzLLo1EAABAFfUUAAAYw8YDgBa2komtcYGIUl8yJSUlnTp1kqMhcODAgXr16on/ygcA+KeeEwAAQECuZZdGIgAAoIp6CgAAjGHjAUALW8nE1rhARKkvmdA2EgmNGzfev3+/HAXgn3pOAAAAAbmWXRqJAADIpqKi4ne/+92jode3b1/HceRnr1sM6ukrr7wyatQo+fIhn/r162dgciqKyopGOPXp0yc8k5lsFlehypnW6d14xLsEXHvttcwcwIveZKLO1rg5i9zu4rrrriP1xYn6kglzI1HLli0//fRTOQrAP/WcAAAAAnItuzQSAQDg6auvvrr77rvXrVvnhN6IESOWLVvm5Pld1KjX03feeWf69OnytUOeick5d+5cJ8+TU0WEVjTC6cEHH3z//fedEExmslmMjRw58tVXX3VCMM3CQOPGI/YlQCSojz76yGHmAG40JhNfbI2bmyjuLh5++OGxY8c6pL64UF8yYW4k6tChw+bNm+UoAP/UcwIAAAjItezSSAQAgKff/e53UfnAadSoUeK/+e4lino9LSwsLC8vl68d8iw1OcPQSxShFY1wSk3mMPQSkc1iLDXN6CVK0bjxiH0JSM0ceokAVxqTiS+2xs1NFHcXIvXt27ePXqLYUF8yGzduPPvss+VoOJx77rlr1qyRowD8U88JAAAgINeySyMRAACeRo8eLb9VGVapT4+cPPcSRb2eFhYWfu+qwYj05LTeSxShFY1wSk9m671EZLMYS08zeom+07rxiH0JSM8ceomAyjQmE19sjZubKO4uUqmPXqLYUF8yYW4k6t69+/Lly+UoAP/UcwIAAAjItezSSAQAgKdf//rX8luVYZX+9MjJZy9R1Otp5lWCMZmX3W4vUYRWNMIpczLb7SUim8VY5s2ll0jjxiP2JSBz5tBLBEg0JhNfbI2bmyjuLtLPmV6ieFBfMps2berYsaMcDYdevXrNnz9fjgLwTz0nAACAgFzLLo1EAAB4itBnTtLbvnnqJYp6PY3im+MxIF12i71EEVrRCCdpMlvsJSKbxZh0cxPeS6Rx4xH7EiDNHHqJgEwak4kvtsbNTRR3F5nPmV6iGFBfMmFuJBowYMBbb70lRwH4p54TAABAQK5ll0YiAAA8Regzp8pv++ajlyjq9bTyVYIBlS+7rV6iCK1ohFPlyWyrl6jyM0FsVL65Se4l0rjxiH0JqDxz6CUC0jQmE19sjZubymkk/KTnTC9R1Kkvmc2bN3fo0EGOhsOgQYOKi4vlKAD/1HMCAAAIyLXs0kgEAICnCH3m5Pq2r/ZeoqjXU9erhHxzvexWeokitKIRTq6T2UovkeszQTy43tzE9hJp3HjEvgS4zhx6iYAUjcnEF1vj5sY1jYRc5edML1GkqS+ZMDcSDR069IUXXpCjAPxTzwkAACAg17JLIxEAAJ4i9JnTQw89JIcO0ttLFPV6WvmNZhjgNTnN9xJFaEUjnLwms/leIrJZjHlNs2T2EmnceMS+BHjNHHqJgO+0JhNfbI2bmyjuLlyfM71E0aW+ZLZs2XLWWWfJ0XAYMWLE5MmT5SgA/9RzAgAACMi17NJIBACApwh95vTcc89Nnz5djh6ksZco6vXU9Y1m5FuWyWm4lyhCKxrhlGUyG+4lIpvFWJZplsBeIo0bj9iXgCwzh14iQGMy8cXWuLmJ4u5i7Nix27Ztk6P0EkWW+pIJcyORmHvjxo2TowD8U88JAAAgINeySyMRAACeovWZ01/+8pdHHnlkVCUiOGzYMPl3y0nU6+moCL45Hg9ZJuedd94p36e8idaKRjhlmcz33nuvPOfyZhTZLNayTLNBgwbJsyHWNG48klACssyc+++/X74iQJJoTCa+2Bo3N6MiuLsoLS0V6X306NFy4juY+vr16yf/kgg39SWzdevW9u3by9FweOKJJwoLC+UoAP/UcwIAAAjItezSSAQAgKfYfOY0atQo+XfLSdTr6agIvjkee6NHj5bvU97EZkUjnHRlWhVks8QaM2aMPBtiTePGI+ElwGSCAkJIYzLxxda4uYnf7uLRRx+Vf0mEm/qSCXMj0bPPPnvffffJUQD+qecEAAAQkGvZpZEIAABPsfnMSdenR1Gvp/F7czwGaCRCbOjKtCrIZolFI1HOEl4CTCYoIIQ0JhNfbI2bm/jtLmgkihz1JbNt27bQNhK98sorgwcPlqMA/FPPCQAAICDXsksjEQAAnvR+5jRmzJiioiI5aoSuT4+iXk9V3hwvLy+fPXv2U089JX5NLYdSdu/e/c4776xcuVI+YNCf//znW265pVevXh9//HHmbLQ4M51QNhJ53U2veJZD//jHP97JsGjRosyjvti9TUHkY+Ll45zB6cq0Kmxls61bt7788stTpkwRR/fu3SsfDuChhx76/e9/L0cDy3lK5PyD+UYjUc4US4CKcePGPfHEE3K0KnYnlckEBYSQxmTii61xc6Oyu9DFTEqkkShy1JfMtm3bzjzzTDkaDjNnzrz55pvlKAD/1HMCAAAIyLXs0kgEAIAnjZ85CZdeeunNN98sR43Q9elR1OtplW+O79mz58ILLzz22GO7du165JFHXnvtteXl5UEOpQ0ePFhcuh49ekjxPLnppptGjhyZGXn33Xdr1ap19913jx8/vqSk5KqrrrrttttShyzOTCd8jURed9Mrnv3Q8OHDq1evfsR/1K1bNz2QX5m3qfL9DYnKTywfEy8f59RCV6ZVYSWb/eEPfzj66KN/+MMftmzZUhx9+umn04eCEyPecccdcjSwzOmRReWpq/iD5tFIlDOVEqCoV69e119/vRytit1JZTJBASGkMZn4Ymvc3FS5u9DITEqkkShy1JdMaWlpaBuJ5s6d27dvXzkKwD/1nAAAAAJyLbs0EgEA4EnjZ06O1U+4dX16FPV6WuWb46NHjz722GM/+eQT8fWyZcsOO+ywZ599NsihFHHF6tat26FDB2ONRBdddNEvfvGLzMijjz7avHnzzEiaxZnphK+RyOtuesWzHxo+fPiZZ56Z+jqgzNtU+f6GROUnlo+Jl49zaqEr06own80WL15cs2bN9LhlZWUbN25Mfa1FnhqJFFWeuqFFI1HOVEqAotwaiewymaCAENKYTHyxNW5uqtxdRA6NRJGjvmS2b9/erl07ORoOS5Ys6dmzpxwF4J96TgAAAAG5ll0aiQAA8KTymdMdd9wxbdq09Ldjx46dOHGi+OKBBx6YMmXKb3/72w4dOlx33XXO9z/hXrJkyTXXXNOqVav27dv369dv3bp16TOkpc4gnsOZZ54pTjJp0qRU/NVXXx04cGDmIx9//PHhw4dnRiS6Pj2Kej2t8s3x1q1bZ3YhXHbZZRdddFGQQ87Bf+Hj9NNP/8Mf/iCCVTYSed30FPFtly5dWrRo0bt37w8//DAVrDyXxo0bV6dOnSZNmlx50Nq1a8eMGdO8efNjjz1WfJv6sLywsDB9cqn3Yvr06eKptmzZsmfPngsWLEjHM3k9zxwmZ9gaibzuplc8+yG/jUSzZ8/u06dPu3btxFW9/fbbt27dmj6Uvk2V76/jfdcqJ6LKvO5miuusc3RPPK/nX5n6OR2103r9+jlMZl2ZVoX5bCYmgK/JXHmGON4V0/lPI1HlG+F4nEqYMWPGxRdfLObDT37yEzH9UkFpzmdOD697XXnqOt+fV47HQhAnfOaZZ8SvcNZZZ3Xu3FlaO2le4+YwxxwaiQJQKQFeSbi8vFxMiTPOOOPss88uKirKbCRKTQMx5cT8FEfFDBcPFrdJnOSnP/3pG2+8kT55elIpzhxH6+QxmaCAENKYTHyxNW5uqtxdeCVJx6NY79u3b+TIkW3btk0lz8ceeyxd96U6m6Yx7zk0EkWQ+pLZsWOHmFpyNBxWrlx54YUXylEA/qnnBAAAEJBr2aWRCAAATyqfObVo0eKRRx5Jf3vllVemPlvq2rVr3bp1L7300ueee+7VV191Mj7h3r179w9/+MMbb7zxjTfeEIfuvvvuFStWpM+QJs7w4x//+PLLLy8uLh45cmStWrWmTJki4mvWrKlRo8bbb7+detiePXvE2caPH/+9H/4+XZ8eRb2eZn9zfN++fYceeujjjz+ejtx///2pv0WV26GUe+6555JLLnEO/osXVTYSed105+An7ocffviYMWPEIXHC448/fvPmza5z6Z133mnTpo0Y7vmDtm/fPmfOnF69ehUUFIhvxY873++3yPx60qRJRx55pBh65syZw4YNEyMuXrw4dSiT1/PMYXKGqpHI6256xbP8SOrr4cOH/+hHPxJXWFwrcaF27dqVfpgrcTUKCwv/9Kc/vfzyyx07duzUqVP6UPo2Vb6/We5a5URUmdfddDxmneORxCo/McWJl+X5V6Z4Tkf5tF6/fg6TWVemVWE+m4kv7rzzTlHvLrjgguuuu2727Nnph1XmOkMc74rpeN8Ir1OJ5ykeM2TIkNdff/2ZZ55J/2tG0pzPnBJeQ1Seus7355LXQhAnrFev3lVXXTV16tQRI0ZUr15dTLbUj2TyGjeHOebQSBRAlSXA8U7C4sYdddRR48aNmz59epcuXcQNzZy6Ysr16dPnlVde+eUvf1mzZk2xQPr37y++FfP2iCOOKCkpST0yPakUZ46jdfKYTFBACGlMJr7YGjc32XcXjneS9CrWYgNWu3btiRMnzpgx4/zzz89Mnpl1NpPGvOfQSBRB6ktm586dYv8mR8Nhw4YNnTt3lqMA/FPPCQAAICDXsksjEQAAnlQ+c/L6WLRr166nnnpqeXl5+lD63dIPP/xQVKXU347JQpyhoKBg3759qW8HDx7ctGnT1NeXXHJJ+k3YP/zhD0ceeWTqg08vuj49ino9zf7m+LZt28Rv98ILL6Qjv/nNbw4//PCcDzkH/xjQf/3Xf6XutWIjketN/+c//3nsscemZ5r4tkGDBnfffbfXXLqo0p/peeihh9q0aZP+1rX3Qpz2hBNOePTRR9MP69u379VXX53+Ns3reTr+J2eoGom87qZXPMuPpL4eP358//79H3744V/96lfHH398s2bNquwlStu4caM48/Lly1PfZt6yzPub/a5VTkSVed1Nr1nneCexHCZe9ufvqspzOlVdlkxev77jfzLryrQqzGezGjVqiEvarVu3xx9/fMCAAeLbl19+Of1IidcM8aqYjveNcD3Vnj17jjvuuPvuuy8zmCLNeamRyHUIx23qZs4lr4UgTiimYnqs8847z+szUa9x/c4xh0aiAKosAZJ0EhbzTcyBxx57LBUvLS095phjMqduu3btUl+LyVC3bt3OnTunvt27d6+YqOm/D5jZSKQycxytk8dkggJCSGMy8cXWuLnJvruQZO5UXYv17t27jzrqqHSDstgDi82wSiORrrzn0EgUQepLRsyo0DYShflfSwKiRT0nAACAgFzLLo1EAAB4UvnMyetj0a5du954443/97jvfyp5+umnn3TSSYMHD3799df37NmT+bA0cYb+/funv/3Tn/5UrVq1VBdCcXHxEUcckXrn9Kc//emAAQPSD3Ol69OjqNfT7G+Oi+spfrvnn38+HXn00UfFdc750N69e9u2bZv+gzuKjUSuNz317vySJUvSh6677rqf/exnXnOp8ofiKr0X4vxilBtuuGHYsGH33HPP3Xff3a1bt+bNm6d/Ks3reTr+J2eoGom87qZXPMuPpL9NW7VqlYgXFhbKBzKUlJT8z//8zznnnCMu+2mnnSau6owZM1KHvBqJst+1yomoMq+76TXrHO8klsPEy/78XVV5Tqeqy5LJ69d3/E9mXZlWheFsJlSvXr2goEDc+tS3P//5z12vZ4rXDPGqmI73jXA91eLFi8VT9fonpjLnvNRI5DqE4zZ10z+YZSGIE2b+lBj3sssuS3+blmVcv3PMoZEogCpLgOORhFesWCGew/vvv59+mMgnmVM3cxqcddZZ6X8fSxDnEWUu9XVmI5HKzHG0Th6TCQoIIY3JxBdb4+Ym++7C8UiSjkfdX758ufjdM//l3QsuuEClkUhX3nNoJIog9SVTVlbWqlUrORoO5eXlzZo1k6MA/FPPCQAAICDXsksjEQAAnlQ+c5I+Fr3iiivSjUSZnyQ533+3dMeOHRMmTOjevfvRRx9dUFCwcuXKzEemiDPceuut6W//+te/ilq2adMm5+D/8i5+avz48eIHq1WrNn/+/P/7MTe6Pj2Kej3N/ua4uKpHHHFE+p8cEIYOHSquc86HXn311UMPPVTcxF8c1LBhw8aNG4svUn8Tx5XXTX/33XfFF5nzZODAgeecc47jMZcqfyiu0nvx9ttvi1EGDx78UIZ0I1Qmr+fp+J+coWok8rqbXvEsP5L+NlOnTp1+/vOfy9EMZ5xxxoUXXvjaa68tXrx42bJltWrVeumll1KHvBqJst+1yomoMq+7mWXWOfomXvbn76rKczpVXZZMXr++438y68q0KgxnM6FOnTrXXHNN+tDEiRPF/Ez/kyqVuc4Qr4rpZL0RlU+VKkYffvhh+vFp0pyXGom8hqg8ddM/mGUhSGOJx4ufSn+blmVcv3PMoZEogCpLgOORhFNzYM2aNemHXXbZZZlTN3MadOzYcdiwYelvM+d8ZiORysxxtE4ekwkKCCGNycQXW+PmJvvuwvFIkqlDlYt1qut31apV6R/P/CeFsjQS6cp7Do1EEaS+ZD799NOWLVvK0XCoqKho0KCBHAXgn3pOAAAAAbmWXRqJAADwpPKZU5cuXYYOHZr+tm3btiqNRGk7duxo2rTp4MGDpbhz8AxC+tuJEycec8wx6W9HjhzZsmVLMYQYMR30ouvTo6jX0yrfHBd3M7PPQ1z/q666KudD77777n9nqF+/fkFBgfgi9Va4K6+bvn379mrVqmX+IaHOnTtn/t+6zvfnkphst9xyS+ZRld6LzZs3V69ePfMPG3nxep4pviZnqBqJHO+76RXPfihTeXl5o0aNxASQD/zHunXrxPr64IMPUt+KL8S3ro1Emfc3+13rWikRVeZ1N1VmnRN44mV//q6qPKdT1WXJ5PXrp/iazLoyrQrD2Uzo3r37ueeemz40fPjwE088Mf1tFpkzxKtiOlXdiJT0qbZs2SLu73PPPSc9wKk05zOnR5YhKk/d9A9mWQjSWF7tIFnGdXzOMYdGogCqLAFeSbi0tFTMgeLi4vQjmzRpYqyRSNfkMZmggBDSmEx8sTVubrLvLryS5Pcf9X/FeufOnTVr1kz/S4d79+4Vr4ZUGol05T2HRqIIUl8ye/bsad68uRwNjQYNGlRUVMhRAD6p5wQAABCQa9mlkQgAAE9VfuYk3H777U2aNNm0aVN5efnjjz9eo0aNKhuJVq9e/cc//nHfvn3OwU+7GzVqNHLkSPF1UVFR5idJ4gzibKk3Z9esWSMedtttt6WPbty48bDDDjv88MPFoOmgF12fHkW9nmZ/c1x45plnxFX961//Kr6eNm1a9erV33jjjSCHMin+aTOvm3711Ve3aNFi3bp14uunn366WrVqb7/9ttdcuvXWWzt06LB+/fodO3ak/skQld4LoXfv3gUFBek/GLRs2bLXX3/dyefkDFsjkdfd9IpnPzR+/PhVq1aJG1RSUjJw4ECxfFznRsquXbtq1aolfkR8XVpa2q1bN3GXXRuJpPvrddcct0RUWZa76TrrHO8kltvEy/L8Xamc0/E+bf4ms65Mq8J8NnvttdfEhUr9BZMVK1bUrVtX+id8MnnNEK+K6XjfCK9TXXPNNeLrpUuXOgf/osrs2bPT58nSSOQ6hOM2dTN/0GshSGNltoNkTrMs4zo+55hDI1EAVZaALEm4Z8+e7dq127Jli/h67NixYmnkqZEoHgkKCCGNycQXW+PmJvvuIkuS9CrWAwYMEF//7W9/ExlMlNojjjjCtZEof0WTRqLIUV8ye/fuPf300+VoaDRr1kxsKeUoAJ/UcwIAAAjItezSSAQAgKcqP3MS1q9f36JFi5o1ax555JE9evRI/7WLyp/fp98tXbx48Y9+9KNDDz20Xr16hx12WPfu3Xft2iXiw4YNy/wfLsUZxKlat259/PHHV69e/ZxzziktLU0fdQ5+jHr00Ufv3LkzM+hK16dHUa+n2d8cTxF3rVatWuKai1tTWFgY/FCaYiOR103fsGFDly5dRLB27dqHH374mDFjHO+5tHLlyo4dO4qHifu1fPlyR7n3Qkynfv36ifl83HHHHXHEEeK/EyZMcPI5OcPWSOR4302veJZDrVq1EregWrVq4r9169adMmVKxg+5+M1vfiPu5o9//GORT8R0FbfAtZFIur9ed81xS0SVZbmbrrPO0T3xsjx/VyrndLxPm7/JrCvTqrCSzcS3P/jBD8TVE1O6V69eWa6J1wzxqpiO943wOtX27duvuOIK8UzE48XRn/3sZ+nzZGkkch3CcZu6mT/otRCytINkTrMs46aozzGHRqIAVEqAVxJeu3Zty5YtxdI49thjxQ3N3582i0eCAkJIYzLxxda4ualyd+GVJL2K9Y4dO6699lrxYLENE3lPxG+//fbUqTLrbP6KJo1EkaO+ZPbt23fqqafK0dA444wzxGZVjgLwST0nAACAgFzLLo1EAAB4UvnMyTn4F4tWrly5Zs0a+UBWn3zyyeLFizdv3iwf+I/050wrVqwQ55cPO84555xz0003yVE3uj49ino9rfLN8RRxU8Stkd6zDnJIXZU3PTVtUm/NS8Esc8mv7du3ixOuXr1679698rGDqnye6pMzhI1Ejvfd9IpnOVRSUrJkyZK1a9em/pmTKm3btk08vvJ5qlTlXfNS5d10nXXpuK6Jl/Pzz67K01b566tPZl2ZVoWtbLZjxw71+ek6Q6qsmK43wvVUwqZNm0Q89W8FVanKe52d10KoUpXjqs8xh0aiABRLgFcSFlP3/fff//jjj6V4XmmcPCYTFBBCGpOJL7bGzY3K7sIrSTrexTpF7MQaNmyY+geNstCY9xwaiSJIfcmI+9usWTM5GhpdunRZv369HAXgk3pOAAAAAbmWXRqJAADwpPiZU55I/8N6plWrVk2cOLFmzZorVqyQj7nR9elR1OupypvjdmW56aGS5Xn6nZzhbCRKlCx3Mwmy/Pp+J7OuTKsi/NkshLLc67zKMq7fOebQSBRAFEuAxsljMkEBIaQxmfhia9zcaN9dLFy48IknnliyZMncuXN79ep1/PHHb9u2TX7Q92nMew6NRBGkvmTE/W3atKkcDY2LLrpo5cqVchSAT+o5AQAABORadmkkAgDAk93PnHr27PnAAw/I0YNatWrVpEmTSZMmyQc86Pr0KOr1VPub47lZt25dDzcinuWmh0qW5+l3ciawkSjLBJAfqk+WQbPcTYuyPGH5ocFk+fX9TmZdmVZF+LOZ/NAQyHKv8yrLuH7nmEMjUQAhKQG+aJw8JhMUEEIak4kvtsbNjfbdxXvvvdetW7eCgoJTTjnlyiuv/PDDD+VHVKIx7zk0EkWQ+pL57LPPxLySo6FxxRVXLF68WI4C8Ek9JwAAgIBcyy6NRAAAeIriZ06udH16FPV6qv3N8dzs2rVrmpsc/mJODCSwkcjKBLAyaBCRe8KOvkyrgmyWWDQS5SwkJcAWkwkKCCGNycQXW+PmJiS7C41oJIoc9SXzr3/9q0mTJnI0NPr27Ttnzhw5CsAn9ZwAAAACci27NBIBAOApNp856fr0KOr1NH5vjsdAAhuJEFe6Mq0Kslli0UiUs4SXAJMJCgghjcnEF1vj5iZ+uwsaiSJHfcns37+/cePGcjQ0Bg4cOHPmTDkKwCf1nAAAAAJyLbs0EgEA4Ck2nznp+vQo6vU0fm+OxwCNRIgNXZlWBdkssWgkylnCS4DJBAWEkMZk4outcXMTv90FjUSRo75kvvjii0aNGsnR0LjjjjumTp0qRwH4pJ4TAABAQK5ll0YiAAA8xeYzJ12fHkW9nsbvzfEYoJEIsaEr06ogmyUWjUQ5S3gJMJmggBDSmEx8sTVubuK3u6CRKHLUl8yXX35ZUFAgR0Pjvvvue+aZZ+QoAJ/UcwIAAAjItezSSAQAgKfYfOak69OjqNfT+L05HgM0EiE2dGVaFWSzxKKRKGcJLwEmExQQQhqTiS+2xs1N/HYXNBJFjvqSqaioOOmkk+RoaIjV9MQTT8hRAD6p5wQAABCQa9mlkQgAAE+x+cxJ16dHUa+n8XtzPAZoJEJs6Mq0KshmiUUjUc4SXgJMJigghDQmE19sjZub+O0uaCSKHPUlU1FR0aBBAzkaGuPHjxcbDzkKwCf1nAAAAAJyLbs0EgEA4Ck2nznp+vQo6vU0fm+OxwCNRIgNXZlWBdkssWgkylnCS4DJBAWEkMZk4outcXMTv90FjUSRo75kvv766/r168vR0HjqqacefPBBOQrAJ/WcAAAAAnItuzQSAQDgKTafOen69Cjq9TR+b47HAI1EiA1dmVYF2SyxaCTKWcJLgMkEBYSQxmTii61xcxO/3QWNRJGjvmS+/fbbevXqydHQePHFF4cMGSJHAfiknhMAAEBArmWXRiIAADwVFRWtW7dOfj8yasrLy3X1akS9no4aNUpcDfkCwR6Nk1NFPFY0wklMZpOf05PNkknc9KT9mQyNG48klwDDCQoIIY3JxBdb4+YmZrsLkfMnT54s/5IIN19Lpk6dOnIoNIqLiwcNGiRHAfjkKycAAIAgXMsujUQAAHj66quv7rnnnqh/7DRjxowFCxbIv1tOol5PxXUQV0O+QLDks88+Ky4u1jU5VcRjRSOcNGZaFWSzBBI5849//OPChQvl2RBrGjceSS4BhhMUEEIak4kvtsbNTZx2F+vXrx82bJjI/PIviXDztWTq1q377bffytFwmD17dv/+/eUoAJ985QQAABCEa9mlkQgAgGwqKiomT578WGSNHj162rRp8m+VqxjU0+LiYvkawRK9k1NR1Fc0wsnKZCabJY2VaWad3o1HMktAMmcOINGbTNTZGjdnsdldiGwvcr786yH0fC2Z+vXrf/3113I0HBYsWHDNNdfIUQA++coJAAAgCNeySyMRAABQRT0FAADGsPEAoIWtZGJrXCCifC2ZBg0ahPYfnfrggw8uueQSOQrAJ185AQAABOFadmkkAgAAqqinAADAGDYeALSwlUxsjQtElK8l07Bhwy+++EKOhsMnn3zy05/+VI4C8MlXTgAAAEG4ll0aiQAAgCrqKQAAMIaNBwAtbCUTW+MCEeVryTRq1Gj//v1yNBy2bt3avn17OQrAJ185AQAABOFadmkkAgAAqqinAADAGDYeALSwlUxsjQtElK8l06RJk88++0yOhsOePXuaN28uRwH45CsnAACAIFzLLo1EAABAFfUUAAAYw8YDgBa2komtcYGI8rVkmjZt6jiOHA2Hf//73wUFBXIUgE++cgIAAAjCtezSSAQAAFRRTwEAgDFsPABoYSuZ2BoXiChfS6ZZs2Z79+6Vo6FRr169b7/9Vo4C8MNXTgAAAEG4ll0aiQAAgCrqKQAAMIaNBwAtbCUTW+MCEeVryZx22ml79uyRo6HRpEmTzz//XI4C8MNXTgAAAEG4ll0aiQAAgCrqKQAAMIaNBwAtbCUTW+MCEeVrybRo0WL37t1yNDRat269a9cuOQrAD185AQAABOFadmkkAgAAqqinAADAGDYeALSwlUxsjQtElK8l07p16507d8rR0Dj77LM3btwoRwH44SsnAACAIFzLLo1EAABAFfUUAAAYw8YDgBa2komtcYGI8rVk2rRps2PHDjkaGuedd97q1avlKAA/fOUEAAAQhGvZpZEIAACoop4CAABj2HgA0MJWMrE1LhBRvpZMu3btSktL5Who9OjRY9myZXIUgB++cgIAAAjCtezSSAQAAFRRTwEAgDFsPABoYSuZ2BoXiChfS6Z9+/ZbtmyRo6HRu3dvxV8EgBdfOQEAAAThWnZpJAIAAKqopwAAwBg2HgC0sJVMbI0LRJSvJdOxY8dNmzbJ0dC44YYbZs2aJUcB+OErJwAAgCBcyy6NRAAAQBX1FAAAGMPGA4AWtpKJrXGBiPK1ZDp16lRSUiJHQ+P222+fPn26HAXgh6+cAAAAgnAtuzQSAQAAVdRTAABgDBsPAFrYSia2xgUiyteS6dKly/r16+VoaAwbNuy5556TowD88JUTAABAEK5ll0YiAACginoKAACMYeMBQAtbycTWuEBE+VoyXbt2Xbt2rRwNjYcffnjSpElyFIAfvnICAAAIwrXs0kgEAABUUU8BAIAxbDwAaGErmdgaF4goX0umW7duf//73+VoaPz2t7999NFH5SgAP3zlBAAAEIRr2aWRCAAAqKKeAgAAY9h4ANDCVjKxNS4QUb6WzPnnn79q1So5GhpFRUUPPfSQHAXgh6+cAAAAgnAtuzQSAQAAVdRTAABgDBsPAFrYSia2xgUiyteSueiiiz766CM5GhrPP//8XXfdJUcB+OErJwAAgCBcyy6NRAAAQBX1FAAAGMPGA4AWtpKJrXGBiPK1ZC655JIPPvhAjoZGcXHxoEGD5CgAP3zlBAAAEIRr2aWRCAAAqKKeAgAAY9h4ANDCVjJZtGiRGHfOnDnyAQBuZs2aJZaMWDjyATeXXXbZsmXL5GhovPXWWwMGDJCjAPywVb4BAEgg17JLIxEAAFBFPQUAAMaw8QCgha1ksmvXrho1avTr128egKpMmjSpUaNGtWvXLi8vl9eSm549ey5dulSOhsb8+fN79eolRwH4Mc9S+QYAIIFcyy6NRAAAQBX1FAAAGMPGA4AWFpNJYWFhjRo1DgGgoE2bNor/HJFw1VVXvfvuu3I0NN5///3u3bvLUQB+WCzfAAAkjWvZpZEIAACoop4CAABj2HgA0MJuMikrK1uwYME8AFmVlpbKiyerXr16iZUlR0NjzZo15557rhwF4Mc8q+UbAIBEcS27NBIBAABV1FMAAGAMGw8AWpBMgPjp3bt3mBf1li1bzjrrLDkKwA/KNwAAxriWXRqJAACAKuopAAAwho0HAC1IJkD89OvXb86cOXI0NPbs2dO8eXM5CsAPyjcAAMa4ll0aiQAAgCrqKQAAMIaNBwAtSCZA/PTv33/27NlyNDS++OKLgoICOQrAD8o3AADGuJZdGokAAIAq6ikAADCGjQcALUgmQPzccMMNb775phwNk/r163/zzTdyFIAyyjcAAMa4ll0aiQAAgCrqKQAAMIaNBwAtSCZA/Nx8880zZ86Uo2FyyimnfPbZZ3IUgDLKNwAAxriWXRqJAACAKuopAAAwho0HAC1IJkD8/OIXv3jttdfkaJi0adNm586dchSAMso3AADGuJZdGokAAIAq6ikAADCGjQcALUgmQPz88pe/nDFjhhwNk06dOpWUlMhRAMoo3wAAGONadmkkAgAAqqinAADAGDYeALQgmQDxM3jw4FdeeUWOhskFF1zw8ccfy1EAyijfAAAY41p2aSQCAACqqKcAAMAYNh4AtCCZAPEzZMiQl156SY6GSc+ePZcsWSJHASijfAMAYIxr2aWRCAAAqKKeAgAAY9h4ANCCZALEz9133/3888/L0TDp06fP3Llz5SgAZZRvAACMcS27NBIBAABV1FMAAGAMGw8AWpBMgPi57777nn32WTkaJjfffPPMmTPlKABllG8AAIxxLbs0EgEAAFXUUwAAYAwbDwBakEyA+HnggQeeeuopORomd9xxx9SpU+UoAGWUbwAAjHEtuzQSAQAAVdRTAABgDBsPAFqQTID4GTly5O9+9zs5Gib333//lClT5CgAZZRvAACMcS27NBIBAABV1FMAAGAMGw8AWpBMgPgZNWrU448/LkfDZPTo0RMnTpSjAJRRvgEAMMa17NJIBAAAVFFPAQCAMWw8AGhBMgHi59e//vX48ePlaJhMmDBhzJgxchSAMso3AADGuJZdGokAAIAq6ikAADCGjQcALUgmQPw89thjv/nNb+RomEyZMmX48OFyFIAyyjcAAMa4ll0aiQAAgCrqKQAAMIaNBwAtSCZA/IT/3/uZOnXqnXfeKUcBKKN8AwBgjGvZpZEIAACoop4CAABj2HgA0IJkAsTPk08+WVhYKEfDZObMmTfffLMcBaCM8g0AgDGuZZdGIgAAoIp6CgAAjGHjAUALkgkQP0VFRSNGjJCjYTJ37tw+ffrIUQDKKN8AABjjWnZpJAIAAKqopwAAwBg2HgC0IJkA8TNlypThw4fL0TBZunTp5ZdfLkcBKKN8AwBgjGvZpZEIAACoop4CAABj2HgA0IJkAsTPc889d88998jRMFm1atX5558vRwEoo3wDAGCMa9mlkQgAAKiingIAAGPYeADQgmQCxM+LL744ZMgQORomJSUlnTp1kqMAlFG+AQAwxrXs0kgEAABUUU8BAIAxbDwAaEEyAeJn2rRpgwcPlqNhUlZW1rp1azkKQBnlGwAAY1zLLo1EAABAFfUUAAAYw8YDgBYkEyB+iouLBw0aJEfD5F//+tfJJ58sRwEoo3wDAGCMa9mlkQgAAKiingIAAGPYeADQgmQCxM/rr79+yy23yNEwOXDgQIMGDb755hv5AAA1lG8AAIxxLbs0EgEAAFXUUwAAYAwbDwBakEyA+HnzzTdvuOEGORoybdu23b59uxwFoIbyDQCAMa5ll0YiAACginoKAACMYeMBQAuSCRA/f/3rX6+//no5GjKXXnrp8uXLMyPr16/P/BZAFpRvAACMcS27NBIBAABV1FMAAGAMGw8AWpBMgPgRK7p3795yNAQy/5bZTTfdNHPmzPS3ixcvLioqSn8LIDvKNwAAxriWXRqJAACAKuopAAAwho0HAC1IJkD8LFy48Oqrr5ajIfDiiy/+4x//SH394IMPTp48OfX1okWLTj/99D179vzfQwFkRfkGAMAY17JLIxEAAFBFPQUAAMaw8QCgBckEiJ+lS5defvnlcjQEysrKTjnllJdeekl8XVRUNHz48O8O/ltEJ5100pAhQ+RHA/BG+QYAwBjXsksjEQAAUEU9BQAAxrDxAKAFyQSIn/fff//SSy+Vo+EwdOjQE088cdCgQa+++mrfvn0XL17csGHDOnXqrFu3Tn4oAG+UbwAAjHEtuzQSAQAAVdRTAABgDBsPAFqQTID4Wbly5YUXXihHw6GsrKx+/fpNmjRp165dvXr1xBd169YN5x9iA8KM8g0AgDGuZZdGIgAAoIp6CgAAjGHjAUALkgkQP2vWrOnWrZscDY2hQ4fWr1//1FNPPfHEE+vWrXvKKafMnz9ffhCArCjfAAAY41p2aSQCAACqqKcAAMAYNh4AtCCZAPGzfv36Ll26yNHQKCsra9iw4Yn/0b59e/kRAKpC+QYAwBjXsksjEQAAUEU9BQAAxrDxAKAFyQSIn82bN3fs2FGOhsldd91Vv379E088sWHDhi+99JJ8GEBVKN8AABjjWnZpJAIAAKqopwAAwBg2HgC0IJkA8bNjx44zzjhDjoZJWVlZQUHBiSeeePLJJ3/11VfyYQBVoXwDAGCMa9mlkQgAAKiingIAAGPYeADQgmQCxM/u3btbtmwpR0PmrrvuqlOnzoMPPigfAKCA8g0AgDGuZZdGIgAAoIp6CgAAjGHjAUALkgkQP+Xl5c2aNZOjofHpp5+KnPPaa68VFBS8/vrr8+xZvHjxgQMH5OcHRME8yjcAAKa4ll0aiQAAgCrqKQAAMIaNBwAtSCZA/Ozfv//kk0+Wo+Hw7rvv1q5d+5CDatWqlfrCohYtWqxatUp+lkDoUb4BADDGtezSSAQAAFRRTwEAgDFsPABoQTIB4qeioqJBgwZyNBzatm3buHHjWbNmzQuBl156SVyoY445hl4iRM48yjcAAKa4ll0aiQAAgCrqKQAAMIaNBwAtSCZALDVo0KCiokKO2rZ582aRcIqKiuQD9mzfvl1cqxYtWvA3zhAtlG8AAIxxLbs0EgEAAFXUUwAAYAwbDwBakEyAWDr33HM/+ugjOWrbwoULRcKZM2eOfMCq6dOni2f15ptvygeAEKN8AwBgjGvZpZEIAACoop4CAABj2HgA0IJkAsTSqFGjxowZI0dtC2fCqaioOOGEE/r27SsfAEIsnKsJAIBYci27NBIBAABV1FMAAGAMGw8AWpBMgFj68MMPu3XrJkdtM5xwhg0b1rdv38mTJ8sHKrn11luPOuqo/fv3yweAsDK8mgAASDLXsksjEQAAUEU9BQAAxrDxAKAFyQSIpYqKigYNGshR29QTzsMPP9y8efPLLrtMPuDB9fEiIobr379/ZtDV/PnzxSOnTp0qHwDCSn01AQCAgFzLLo1EAABAFfUUAAAYw8YDgBYkEyCW9u/f37hxYzlqm3rCueWWW8QjmzVrJh/w4Pr4P//5zy+88MLixYszg64OHDjQoEGDHj16yAeAsFJfTQAAICDXsksjEQAAUEU9BQAAxrDxAKCF3WTy6aefzkueJUuWyBcC0G3Xrl2tW7eWo7bNq5RwVq5cOWDAgA4dOrRp0+bCCy8cOnTo3r1777nnnpNPPlk88uijj/75Qe+884548LPPPnv11Vd37NixRYsW55xzzn333SceLOJejxdnE1//7//+b3q4OXPmXHvttW3btm3Xrl2fPn1Wr16dPiQefOihh6ZOCIRf5dUEAADyxLXs0kgEAABUUU8BAIAxbDwAaGExmbz77ru1a9c+JJHOO++8L774Qr4igD4bNmzo3LmzHLVNSjh79+497rjjRKRevXqtWrU65phjxNeffPJJ69atpSXz+9//XjxeLJwjjzzytNNOa9GiRfXq1UW8Xbt2Bw4c8Hq89KfNxo4dmzparVq1o446SnzxwgsvpA4JK1asEJGnn346HQHCzGL5BgAgaVzLLo1EAABAFfUUAAAYw8YDgBYWk0nbtm0bN248a9aseQlTVFRUo0aNYcOGyVcE0GfFihUXX3yxHLVt3vcTzsKFC8W3P/jBD/bv3//dwb8vtmjRon379u3Zs+f6668Xh5o0abLzoH//+9/iAcuWLfvqq69SP/vWW28dbAo65L333vN6fGYj0Y4dO2rVqiW+7dy5c1lZmYisXr36448/Tp0t5dRTTz333HMzI0BoSasJAADkj2vZpZEIAACoop4CAABj2HgA0MJWMtm8ebMYt6ioSD6QDNdee+1xxx2XbokAtJs/f36vXr3kqG1Swtm5c+dhhx0mIieccMJPfvKT2267LX3olltuEfFmzZr950f/v/fee+/qq69u2rRpnTp1xI8cctCrr77q9fjMRiLxsNTj//a3v2U+JtPIkSNr1Kixfft2+QAQPrbKNwAACeRadmkkAgAAqqinAADAGDYeALSwlUxS/xLJnDlz5APJ8Oabb4pf/4033pAPAJqI2XXjjTfKUdsqJ5y//e1v559/fuqPmqUUFxd/59YYtG3btqOPPloEW7ZsOXjw4Jtuuin1+KlTp7o+/rvvNxI9//zzqccvW7Ys8zGZ1q1bJx4wbtw4+QAQPpVXEwAAyBPXsksjEQAAUEU9BQAAxrDxAKCFrWRia9yQqKioOOGEE/r27SsfADR5+eWX77zzTjlqm7Twv/7662+//fa7g3/UbPPmzS1bthRH//u//1tEfvWrX4mvGzZsmP7Z6dOnH2wEOkQ88ruDnVKpb1ONRP+PvXsPs6OsE8RPEgLLNWFRGYIoIBsvBIhkuDiAUWQBERzugxguKyr4iBNWeULGVUnMjWsCjCwBBFlUSELCAIYZRJa7iQKGBfMQnsTILYmRDUkfZhiX7C79q+3z88yhurq7OtQ530rX5/MHzzlvVZ9vnbfet75Vb750d9+/852FRE8//XR9/29/+9uNHf75n/+58bruwC6pRiihiqdRAGinzLSrkAgAyEs+BQDaxo0HUIioi0lU3EwTJ0784he/eMMNN6Q3tNL555+//fbbv/nmm+kNUIRkPH/ve99Lt0ZLTfxly5bttttuyVy49NJLJ02aNHz48GTrJZdckmz6wQ9+UK/7GT169NixY19++eVFixbVW0466aQpU6aMGDGi/rZeSNR9/853FhIlPvOZz9T3Ofroo5OgY8aM+fGPf1zf1DBz5sxkh+XLl6faoWxKlUYBYGDLTLsKiQCAvORTAKBt3HgAhYi6mHSP+/3vf3+fffY5/vjj/22ndklVG/SiwIN89NFHt/hzDQQU7sou6dZoqYn/yiuv7LXXXl21Pf/P4MGDTzzxxH/5l39JNiX/PeWUU+qlRYlly5YljRdeeOGgQYOSt8OGDbvmmmvqm+qTKHP/1NTu6Og455xzttpqq/o+W2+99c9+9rP6pobVq1cPGTJk8uTJqXYom+5pFABokcy0q5AIAMhLPgUA2saNB1CIqItJ97jnnXde0vLhD3/433Zql/yFRAUe5Ntvv7377rt//vOfT2+AInzve99r8y/ZyqP7xE9s2LDh+S61Wq25PdO6det++9vf/ulPf0pvyO1f//Vfly5dumzZsuRFeluXT3/60x/5yEfSrVAymbMJAGiFzLSrkAgAyEs+BQDaxo0HUIioi0kq7sUXX/yhD30oadlhhx3+pssjjzxS3/SP//iPJ5988v7773/IIYdMnDjx9ddfr7d/85vfTHb7r//1v956663Jpk9+8pP33nvvxo0bJ0+ePGbMmGOOOebRRx+t75m46KKL6jvPnTt37NixBxxwwKRJk5Kd61tThUS33HLLKaecknzmqFGjDj/88G9/+9vr16/v3KSDfPbZZ88555yDDz549OjRRx11VHIY9Y+qS95utdVWzS1QlP/8n//z7bffnm6NFnXB6ZebbropOcglS5akN0CZbBazCQAGhsy0q5AIAMhLPgUA2saNB1CIqItJKu7++++/xTv96Ec/StpnzJhRf/vhD394p512Sl6MHDlyw4YNyaakJXm7yy67NH5kyJAhRxxxROPttttuu2bNmvrn10uFdt111+S/W265ZX2Hr3/9681bG4VEn/nMZ7bbbruPfvSjo0aNGjx4cLJpzJgxb7/9dn8Pcv369fW3u+2223777bfjjjtu8ee/uFS3ZMmSpOWmm25qtMCm+V//63+lWs4999yFCxemGsNFXXD6JZm5W2211UUXXZTeAGWyWcwmABgYMtOuQiIAIC/5FABoGzceQCGiLiapuOvWrTvrrLOSlr333vsPXf71X/91zZo1Q4cOTRqnTp3a2fWv+/Wyoe9973udfy4k2mabbX79618vXbp00KBBydvhw4c/99xzv/zlL7foUi/06fxzqdC/+3f/7je/+c3GjRu/8IUvbNFVUbRq1arG1kYh0ZNPPvnWW2/VX//TP/1T/aOSKP09yMcff7we9M033+zs+ltmTzzxRL0KquEjH/nIpz/96eYW2AQrV6781a9+1dxy2mmnNf9Srp7+jFebRV1w+uvzn//87rvvnszZ9AYojc1lNgHAAJCZdhUSAQB5yacAQNu48QAKEXUx6R73vPPO26Lrl/o0Wu68884tuhxzzDH1PyVWr9EZO3Zs558LiY499tj6zsOHD0/ejhs3rv62/muHpk+fXn9bLxX63Oc+V3+7ePHi+ifXf2VLqpDo17/+9SmnnDJy5Mhdd931Pe95T33P5GA6+3mQf/jDH7beeuvkdfIhn/zkJy+44ILu/Tx58uQhQ4asXr061Q79NXHixEWLFjXefvazn238ca6k/R//8R8bmwJ1n/jldMcddyTH2VyJBWWzucwmABgAMtOuQiIAIC/5FABoGzceQCGiLibd43av0bntttv+X4XOFlt86EMf+nCTE044ofPPhUSN6p96+c63vvWt+tshQ4Ykb6dMmVJ/Wy8VOu200+pvn3322fonz507t7G1/lGvvvrqDjvskLzdd999x48f/+Uvf7m+5x133NHZ/4P8xS9+ceSRR9b/qFndggULGj+bWL58edI4c+bM5kbYBGvWrElG8s9//vP620MPPfR3v/tdZ1cV0ciRI99444137B2k+8QvpzfffHP77bc///zz0xugNDaX2QQAA0Bm2lVIBADkJZ8CAG3jxgMoRNTFpHvcv/3bv01aPvjBDzZann766Xrxzd13391o/NOf/vTyyy93blIh0Qc+8IH63yz7wQ9+UP/k+q9saS4kmjdvXn3TSy+9lLxduHBh/W29kKhfB/m///f//r//9/92dv1Rs+TT9t1332S3//Sf/lNjt7oDu6QaYRNceumlu++++7333pu83n///deuXbto0aJk2H/2s59N7xrkZz/7WTILZs2a9XDpHXnkkcOGDUuuAOkN0KT+9zFDPNwtjQIALZKZdhUSAQB5yacAQNu48QAKEXUx6R63UdwzevTosWPH1quFPv3pTyctO+2004QJE2bMmPGlL31p5513vuKKKzo3qZBo0KBByYefccYZ9b84dtBBBzVvrX/UokWL6odx0kknJT8+YsSI+tt6IVG/DnLZsmW77bbb+eeff+mll06aNKn+x9cuueSSetCGmTNnJu3Lly9PtUN//fM///NHP/rRXXfd9a677tprr70eeuihkSNHJoOw/pu3ymDWrFn1GQQDRpIOnnjiifRYb73uaRQAaJHMtKuQCADISz4FANrGjQdQiKiLSfe4//Iv/3LKKafUq20Sy5YtSxrXr18/bty4oUOH1hvrlUAPPPBA5yYVEp166qmf+9zn6h81cuTIeojG1sZHXXjhhUmgpGXYsGHXXHNNff96IVG/DvKVV17Za6+96o2JwYMHn3jiickn1KM0rF69OjnayZMnp9phE9x222277bbbiBEjdt1112SQv//97//gBz9Ykr9r1vnnX/F19dVXP1J6Dz74YHKcfiMRvbvuuuv23HPPJFl0dHSkh3uLPdwtjQIALZKZdhUSAQB5yacAQNu48QAKEXUx6VfcN998c+nSpS+88MIm10M0lwq98sorzz//fP2PjvVk3bp1v/3tb//0pz+lN/Ssp4PcsGHD811qtVpze7NPf/rTH/nIR9Kt0H//5//8nwMPPPAv/uIvRowY8cEPfvD973//6aefnt4pTr8mPmwW7rvvvmRUt/+XEplNANA2mWlXIREAkJd8CgC0jRsPoBBRF5M2x039zqGyuemmm5LDW7JkSXoD9N8vfvGLvfba6y+6jB49ev78+ek94rR54kMbRI3qqLgAUEGZaVchEQCQl3wKALSNGw+gEFEXkzbHHTt27C677PK3f/u36Q3lsH79+q222uqiiy5Kb4BNcuSRR9YLiT70oQ9t8u/xaoU2T3xog6hRHRUXACooM+0qJAIA8pJPAYC2ceMBFCLqYhIVt7Q+//nP77777m+//XZ6A/Tf0qVLk+G03377le23cJn4DDxRozoqLgBUUGbaVUgEAOQlnwIAbePGAyhE1MUkKm5p3XHHHUmHPProo+kNsElOOumk97///aX6u2adJj4DUdSojooLABWUmXYVEgEAecmnAEDbuPEAChF1MYmKW1pvvvnm9ttvf/7556c3wCZZtWrVyJEjS/V3zTpNfAaiqFEdFRcAKigz7SokAgDykk8BgLZx4wEUIupi8rOf/SyJO2vWrIf5syOPPHLYsGELFy5Mb4BNcv3116ebuqxatSo9Idvl4aALDrRO1KiOigsAFZSZdhUSAQB5yacAQNu48QAKEXUxmTVr1hZAkNGjRz/xxBPpadl6URccaJ2oUR0VFwAqKDPtKiQCAPKSTwGAtnHjARQi6mKycOHCJO7VV1/9CH/24IMPJh3iNxLRatddd92ee+45bNiwjo6O9MxssYeDLjjQOlGjOiouAFRQZtpVSAQA5CWfAgBt48YDKETUxSQqLpC47777kgnY/l9KZOIz8ESN6qi4AFBBmWlXIREAkJd8CgC0jRsPoBBRF5OouEBn3ASMigutEzWqo+ICQAVlpl2FRABAXvIpANA2bjyAQkRdTKLiAp1xEzAqLrRO1KiOigsAFZSZdhUSAQB5yacAQNu48QAKEXUxiYoLdMZNwKi40DpRozoqLgBUUGbaVUgEAOQlnwIAbePGAyhE1MUkKi7QGTcBo+JC60SN6qi4AFBBmWlXIREAkJd8CgC0jRsPoBBRF5OouEBn3ASMigutEzWqo+ICQAVlpl2FRABAXvIpANA2bjyAQkRdTKLiAp1xEzAqLrRO1KiOigsAFZSZdhUSAQB5yacAQNu48QAKEXUxiYoLdMZNwKi40DpRozoqLgBUUGbaVUgEAOQlnwIAbePGAyhE1MUkKi7QGTcBo+JC60SN6qi4AFBBmWlXIREAkJd8CgC0jRsPoBBRF5OouEBn3ASMipsyZ86cadOmXR4kCf3444+nj2kzoeu6ixrVUXEBoIIy065CIgAgL/kUAGgbNx5AIaIuJlFxgc64CRgVt9kjjzwyb968Wqg5c+bcdttt6SMrPV2XKWpUR8UFgArKTLsKiQCAvORTAKBt3HgAhYi6mETFBTrjJmBU3GZTp07t6OhI16e03dy5c0v4y3V6p+syRY3qqLgAUEGZaVchEQCQl3wKALSNGw+gEFEXk6i4QGfcBIyK22zatGnpypQgkydPTh9cuem6TFGjOiouAFRQZtpVSAQA5CWfAgBt48YDKETUxSQqLtAZNwGj4jYrTzXMT37ykxUrVqSPr8R0XaaoUR0VFwAqKDPtKiQCAPKSTwGAtnHjARQi6mISFRfojJuAUXGblaca5rXXXps5c2b6+EpM12WKGtVRcQGggjLTrkIiACAv+RQAaBs3HkAhoi4mUXGBzrgJGBW3WXmqYRIzZszYuHFj+hDLStdlihrVUXEBoIIy065CIgAgL/kUAGgbNx5AIaIuJlFxgc64CRgVt1mpqmEWL1583333pQ+xrHRdpqhRHRUXACooM+0qJAIA8pJPAYC2ceMBFCLqYhIVF+iMm4BRcZuVqhrmjTfemDJlSvoQy0rXZYoa1VFxAaCCMtOuQiIAIK+S5NONGzdef/31l0PLjBs3rlarpUceAO1VkhsPYHMXdTEpNm6VH4LKc3Ne5bPQXXnOS6ZiJ2B+UXGblaoaJnHjjTeuXr06fZSlpOsyRY3qqLgAUEGZaVchEQCQVxny6VtvvTVhwoTly5en11egOJdccsnjjz9eK/GyOEAVlOHGAxgAoi4mBcat+EPQ97///WuvvbYWfXNe8bPQXXJerr766lr0eelJgROwX6LiNitbNcyqVat+8IMfpI+ylHRdpqhRHRUXACooM+0qJAIA8ipDPr3++ust3dJq9dVDtUQAscpw4wEMAFEXkwLjVvwhqH5zHl5LVPGz0F1yXjo6OkpbS1TgBOyXqLjNylYNk5g6derbb7+dPtDy0XWZokZ1VFwAqKDMtKuQCADIqwz5dPr06ellFShaY/VQLRFAoDLceAADQNTFpMC4FX8Iatycx9YSVfwsdFc/L6WtJSpwAvZLVNxmJayGefDBBx999NH0gZaPrssUNaqj4gJABWWmXYVEAEBeZcinl156aXpZBYrWvHqolgggShluPIABIOpiUmDcij8ENd+cB9YSVfwsdNc4L+WsJSpwAvZLVNxmJayGeeONN5KjSh9o+ei6TFGjOiouAFRQZtpVSAQA5FWGfGr1ljZIrR6qJQIIUYYbD2AAiLqYFBi34g9BqZvzqFqiip+F7prPSwlriQqcgP0SFbdZCathal0zd/369eljLRldlylqVEfFBYAKyky7CokAgLzKkE+t3tIG3VcP1RIBtF8ZbjyAASDqYlJg3Io/BHW/OQ+pJar4WegudV7KVktU4ATsl6i4zbpPmTJYuXLlzTffnD7WktF1maJGdVRcAKigzLSrkAgAyKsM+dTqLW2QuXqolgigzcpw4wEMAFEXkwLjVvwhKPPmvP21RBU/C911Py+lqiUqcAL2S1TcZt1PTUlMmTIlfawlo+syRY3qqLgAUEGZaVchEQCQVxnyqdVb2mDSpEnppi5qiQDaqQw3HsAAEHUxKTBuxR+Cevqn/TbXElX8LHSXeV7KU0tU4ATsl6i4zTJPTRncc889S5YsSR9umei6TFGjOiouAFRQZtpVSAQA5FWGfGr1lja49dZb582bl27topYIoG3KcOMBDABRF5MC41b8Ieiyyy579dVX061d2llLVPGz0F1P56UktUQFTsB+iYrbrLTVMBs2bEjmUfpwy0TXZYoa1VFxAaCCMtOuQiIAIK8y5FOrt7THz3/+8ylTpkzrJmm86KKL0uMSgBYow40HMABEXUwKjFvxh6BVq1YlPTB9+vT0rXnXzfk555yT7q/WqPhZ6K4k56UnBU7AfomK22xaWathElddddWbb76ZPuLS0HWZokZ1VFwAqKDMtKuQCADIqwz51Oot4aZPn54elwC0QBluPIABIOpiUmBcD0G9uOyyy9L91RrOQr+07bz0pMAJ2C9RcZuVuRpm6dKlc+bMSR9xaei6TFGjOiouAFRQZtpVSAQA5FWGfGr1lnAKiQDaoww3HsAAEHUxKTCuh6BetK1gxVnol7adl54UOAH7JSpus3Hjxr3zV0SVS3J4l+c2e/bsjRs3pr9hy+i6TFGjOiouAFRQZtpVSAQA5FWGfJpz9bajo+P++++/8cYbk6PN097Lpl/96lePvNOSJUuad6D9Zs6c+fd///fp1nZRSATQHmW48QAGgKiLSYFx8zwEzZgxY/bs2enWXhV4Uz1p0qQf/ehH6dZ3J+c3alvBSp6zUJSf/exn55133mmnnfbcc88190POPmmownnpSYETsF+i4jabVuJfq9Nfy5cvnzhx4ltvvZX+kq2h6zJFjeqouABQQZlpVyERAJBXGfJpntXbdevWHXXUUcOHDx87dux22233hS98oaOjo5f23jftv//+2zZJeuC0005rxGqpL3/5y5MnT063Uqslp+Css85Kt7aLQiKA9ijDjQcwAERdTAqMm+ch6OSTT77gggvSrb0q8KY6eYy68MIL061dNvmh5nOf+9xXvvKVdGs3bStYyXMWCvHLX/5y6NChEyZMmDVr1sqVK5vPbM4+aajCeelJgROwX6LiNhtI1TCJFStW3Hjjjekv2Rq6LlPUqI6KCwAVlJl2FRIBAHmVIZ/mWb2dPn368OHDly1blrx+8sknt95661tuuaWX9t43Nfv1r3+d9MCCBQvSG1rj6KOP/trXvpZupdB/89gECokA2qMMNx7AABB1MSkwbp6HoE1Q4E11LwUrm/xQU7aClRadhe4uv/zyffbZJ93aJWefNFThvPSkwAnYL1Fxmw2wapjEFVdckf6SraHrMkWN6qi4AFBBmWlXIREAkFcZ8mme1dv999+/eWXz+OOPP/roo3tp731TswsuuGDEiBEbNmxIb2jy3e9+94c//GFynH/5l3958MEHX3fddc1bk7eHHXbYqFGjTj/99GeeeabRvnjx4lNPPXW//fY78MADx40bt3z58pkzZ+6666577733SV1eeOGFpo/5N/fff/8ZZ5wxZsyYJNY3vvGNV155pXnr/PnzP/vZz+6zzz6f/OQnkw/svX3evHnJt953331POOGExx57rLFz92PrqbEnSZ/cfPPNV111VbLzJz7xiblz53Z0dMyYMSM57E996lMLFy5s7NlT/yT7T5069YADDkh+fPbs2al/8+jpyJv1dF7uvPPOr371q817Xnvttd/5zneaW1IUEgG0RxluPIABIOpiUmDcPA9Byd1y/Ra3fu99zTXXHHTQQYceemjz88gm3FT//ve/T3a777776m9Xr16dPH0kt9CNn6qrF6x0D5r5UJPz6aBsBSt5zkJPDx319uQrJ41nnnlmvTHz2Sfph+Qxbfjw4Ul31Qt9Gme29s4+yTxfKVU4Lz0pcAL2S1TcZgOvGubKK69Mf8nW0HWZokZ1VFwAqKDMtKuQCADIqwz5tM/V2w0bNmy11VbXXntto+W//Jf/Uq/+yWzv5Ucab+vWrVv33ve+d8KECan2lLFjx+6yyy5//dd/vWDBgsmTJw8dOvSHP/xhfdNll122zTbbzJgxI9l07LHH7rzzzi+99FLS/tprryWffO655y5cuPDOO+9MQixZsuSRRx4ZPXr00UcffVuX1atXvyPMn02fPn3q1Kl333337bfffsghh/zVX/1VY1PyjZLo3/rWt+65556bb7658b+iZrZfd9112223XXLA995778SJE5PjXLRoUa2HY8tsbMTtLumTpD/POOOMOXPmfP3rX99yyy3PPPPMs88+O3mbfMi22267cuXKWs/9k0gObPvtt585c+a8efMOO+ywpIcb/+bR05Gn9HRenn/++SFDhjz00EP13epnedasWe/44XdSSATQHmW48QAGgKiLSYFx+3wIqjWVdyT3vbvtttvJJ598xx13XHLJJYMHD07uk+v7bNpN9Xe+851kzxUrVtS6/oBa8pDyP//n/6xvaugpaOZDTc6ng7IVrOQ5Cz09dNS/cvKNbr311noZVk/PPg8++OBpp522xx57JN1V/1W4zf3QeN3L+WpWhfPSkwInYL9ExW2mGmaT6bpMUaM6Ki4AVFBm2lVIBADkVYZ82ufq7auvvpoc5I9//ONGyxVXXLHNNtv01N7LjzTe1v3kJz8ZNGjQc889l2pPGTt27B577NH4rUXjx48fOXJk8uL1118fPnz4lClT6u3J2913371elvTMM88kB1D/w2rN+vvb5n//+98nn/PUU0/Vugpidtppp29/+9upfTLbk4N5z3vec/nllzdavvjFL55yyim1Ho4ts7EXSZ+MGTOm/rqjo2PEiBGHHnpo/e369euT47nlllt66Z/kmJNNV155ZX3TqlWrdtxxx/q/efRy5Ck9nZfEscce2/gXlP/23/7bdttt11PZVp1CIoD2KMONBzAARF1MCozb50NQ7Z2FRKNHj07uuuvtn/nMZ+rtm3xTndxCf6rLrFmzdthhh//xP/5HY7eGnoLWsh5q8jwd1MpXsJLnLPT00JG0f+QjH2n0Ty/PPolJkyYlnVl/XcsqJOr9fDWrwnnpSYETsF+i4jZTDbPJdF2mqFEdFRcAKigz7SokAgDyKkM+7XP1dvXq1clB3nbbbY2Wyy+/fNttt+2pvZcfabytO+qoo8aOHZtq7C7Z5+yzz268vfvuuwcNGrR27dp68c3ixYsbm84888xjjjmm1rVw/LGPfewDH/jA+PHj77nnnnXr1tV36L62293KlSu/+c1vHn744fvss89HP/rRJNb8+fOT9kWLFiXhuv9vqZntyVEljV/60pcmTpx48cUXT5gw4Ygjjkg+sNbDsWU29iLpk+YvctBBBzV+PVIiCTR9+vRe+mfJkiXJpqeffrqxKTm8+r959HLkKT2dl+T1ggUL6iMkef2pT33qnHPOaeyWSSERQHuU4cYDGACiLiYFxu3zIaj2zkKi5nvvc8899/jjj6+9u5vqFStW7LLLLsn9849+9KNGY7OegtayHmryPB3Uylewkucs9PTQkbQnfdJo7+XZp5ajkKjP89VQhfPSkwInYL9ExW2mGmaT6bpMUaM6Ki4AVFBm2lVIBADkVYZ82ufqbUdHx7bbbtv4H20TF1100R577NFTey8/0nibeOGFF4YMGXLzzTc3N2YaO3bs+eef33j7wAMPJJ324osv/vKXv0xePPvss41NX/3qVw8//PD66zVr1lx99dXHHXfcDjvskISu79Z9bbe7Aw444KijjvqHf/iHRYsWPfnkk0OHDv3pT3+atNdP1jPPPJPaP7P9oYceShrHjx8/qcnMmTPrWzOPLbOxJ0mfNK9BH3LIIRMnTmy8HTVq1JQpU3rpn/qm559/vrHp+OOPr/+bR+9H3qyn81LrGgDJV5g1a1YSfdCgQY8++ui//VgWhUQA7VGGGw9gAIi6mBQYt8+HoNo7C4ma772TxmRT7d3dVNcLiQYPHrxw4cJGY7OegtayHmryPB3Uylewkucs9PTQkfrKvTz71HIUEvV5vhqqcF56UuAE7JeouM1Uw2wyXZcpalRHxQWACspMuwqJAIC8ypBP86zeHnbYYX/zN3/TeDt27NiTTz65l/beN9V973vfGz58+B//+MfmxkxjuzTeXnPNNTvuuGOt6/ceDRo06Pbbb29sOvTQQ5v/d9W6NWvWjBw5cvz48bWuJdrzzjsvtUOz5cuXJ2fkN7/5Tf1t8iJ5Wy8kevnllwcPHnzrrbe+4wd6aH/ppZeSxuY/7pap+dh6b0zJsyTdS/+sWrUq2bRgwYLGpr333rv+bx45j7zW83mpmzx58r777psc5Mc//vFGY08UEgG0RxluPIABIOpiUmDcPA9BfRYSbfJNdf1Pmx1xxBEXXXTRX/zFX6xcuTK9R89Ba1kPNXmeDmrlK1jJcxZ6euhIfeVenn1qOQqJej9fzapwXnpS4ATsl6i4zVTDbDJdlylqVEfFBYAKyky7CokAgLzKkE/zrN7efPPNW2+99QMPPJC8njt3buN/nO2pvfdNdXvttddXv/rV5paejB07dsiQIfVqnueff37PPfe84IIL6ptOOeWUUaNGLV++PHl90003DRo06KGHHkpeL1269K677tqwYUOtaxE/+ZHJkycnr88///yDDz54xYoVa9as6ejoaIRoWLt27dChQ2fNmlXr+oeBI444IvnMeujEqaeemnzUr371q1rXHyO7//77e2k//fTT99hjj8afPHvyySfvueeeWg/HltlY/8FMOZeke+qfxAknnDBmzJiXX3651rUknZyg+r951Ho+8tmzZzdWyWu9npfE73//+2QAbLPNNtdee22jsScKiQDaoww3HsAAEHUxKTBunoegPguJapt0U534zne+s8suu/zud79bv379oYceeuSRR9afTZrvt3sJ2v2hJufTQdkKVvKchZ4eOlJfudbrs0+fhUS1Xs9X1c5LTwqcgP0SFbeZaphN1mfXzZgxI5li6dYSK6TrokZ1VFwAqKDMtKuQCADIqwz5NM/qbeLCCy8cOnTozjvvvPXWW0+dOrXP9t433XfffckXf/zxx5sbezJ27Nizzjpr//33Tz5q8ODBhx9++KpVq+qbfve73x122GFJ47Bhw7bZZpsZM2bU2xctWvS+971vq6222m233ZLoxx133Nq1a5P2Z5999pBDDkn2TKI/9dRTjRDNrrjiiuQHd9lll+22227atGnbbrtto5Bo9erVJ5544qBBg5IjSfY55phjemn/wx/+MG7cuC233HKnnXZKPiT579VXX13r4dgyG/98RBlyLkn31D+1rj8tt++++yYnaPjw4cmnNf4KQ63nI09CNP/OoV7OS92pp566ww47JJ/W3JhJIRFAe5ThxgMYAKIuJgXGzfMQlKeQaBNuqu+///5k/0aRyrJly5Lb6e9///u1d95v9xK0+0NNzqeDshWs5DkLPT10dC8k6uXZJ08hUU/nq1a989KTAidgv0TFbdZnNcxmp5BqmDz67LqTTz65+X9JKr9Cui5qVEfFBYAKyky7CokAgLzKkE/zrN7WvfTSS4sWLUoVi/TS3vum/BrLr0uWLHn22WfTm7sW35Mo3Stv6u3JMaTa+/Tqq68uXry4p8N+8cUXk4+t/6+ufbavXr06aVy6dOn69eub2zOPLbPx3eupfzo6Op5++unnnnsu1V7X05E39HleDj/88C9/+cvp1iwKiQDaoww3HsAAEHUxKTBu/oegPr3Lm+oSalvBSp6z0OdDR0pPzz45lfl8te289KTACdgvUXGb9VkNs9kppBomD12XKWpUR8UFgArKTLsKiQCAvMqQT/Os3sbq/j+bUga9nJff/va311xzzZZbbrlkyZL0tiwKiQDaoww3HsAAEHUxKTBu+R+CArWtYCXPWejloaNq2nZeelLgBOyXqLjN8lTDzJ8//7Of/ew+++zzyU9+cubMmfXGxYsXn3rqqfvtt9+BBx44bty4+v93lNnYZoVUw+TRZ9dNnTr1uuuuq78uQ8/0qZCuixrVUXEBoIIy065CIgAgrzLk0zyrt22wfPnyz2dJ2k844YTvfve76R94d3oJl941TskPspfzst9+++29996N1cA+KSQCaI8y3HgAA0DUxaTAuCV5CCqnthWs5DkLvTx0VE3bzktPCpyA/RIVt1mf1TDXXnvt0KFDv/Wtb91zzz0333xzvfrttddee+9733vuuecuXLjwzjvvnDBhwpIlSzIb0x/XeoVUw+TRZ9c1/rRfSXqmT4V0XdSojooLABWUmXYVEgEAeZUhn+ZZvW2DtWvXzs2yyb+UvndtDrdpNouDLIRCIoD2KMONBzAARF1MCoxbkoegcmpbwYqz0C9tOy89KXAC9ktU3Ga9V8OsW7dup512+va3v51qf+aZZ5IjX7ZsWZ+N7VdINUwevXddramQqCQ906dCui5qVEfFBYAKyky7CokAgLzKkE+t3hJOIRFAe5ThxgMYAKIuJgXG9RDUi7YVrDgL/dK289KTAidgv0TFbdZ7NcyiRYuSI0z+m2p//fXXP/axj33gAx8YP378Pffcs27dup4a26+Qapg8eu+6WlMhUUl6pk+FdF3UqI6KCwAVlJl2FRIBAHmVIZ9avSWcQiKA9ijDjQcwAERdTAqM6yGoF20rWHEW+qVt56UnBU7AfomK26z3apj6ET7zzDPpDbXamjVrrr766uOOO26HHXbYY489nn322Z4a26yQapg8eu+6WlMhUa0cPdOnQroualRHxQWACspMuwqJAIC8ypBPrd4STiERQHuU4cYDGACiLiYFxvUQ1Iu2Faw4C/3StvPSkwInYL9ExW3WezXMyy+/PHjw4FtvvTW9ocmaNWtGjhw5fvz4Phvbo5BqmDx677raOwuJGgJ7pk+FdF3UqI6KCwAVlJl2FRIBAHmVIZ9avSWcQiKA9ijDjQcwAERdTAqM6yGoF20rWHEW+qVt56UnBU7AfomK26zPaphTTz11zz33/NWvflXr+hNd999/f/Ji6dKld91114YNG5LXL730UrLD5MmTMxvf+WHtUEg1TB59dl2jkKgkPdOnQroualRHxQWACspMuwqJAIC8ypBPrd4STiERQHuU4cYDGACiLiYFxvUQ1Iu2Faw4C/3StvPSkwInYL9ExW3WZzXM6tWrTzzxxEGDBu28885bbbXVMccckzQuWrTofe97X/J2t91223rrrY877ri1a9dmNqY/rvUKqYbJo8+uaxQSlaRn+lRI10WN6qi4AFBBmWlXIREAkFcZ8qnVW8IpJAJojzLceAADQNTFpMC4HoJ60baCFWehX9p2XnpS4ATsl6i4zfqshql78cUXFy1atHz58ubGZcuWJY0vvfRSn43tVEg1TB59dt2RRx554YUXNt6G90yfCum6qFEdFRcAKigz7SokAgDyKkM+tXpLOIVEAO1RhhsPYACIupgUGNdDUC/aVrDiLPRL285LTwqcgP0SFbdZn9Uwm51CqmHy6KXr1q5d+0//9E///t//+x/+8IfpbSVWSNdFjeqouABQQZlpVyERAJBXGfLp7NmzU//DHLRTR0eHQiKA9ijDjQcwAERdTAqM6yGoJ0m33HDDDen+ag1nIb92npeeFDgB+yUqbrNeqmE2U4VUw+TRS9c98MADe+6551e+8pXXX389va3ECum6qFEdFRcAKigz7SokAgDyKkM+feutty6++GILuESZP3/+Y489lh6XALRAGW48gAEg6mJSYFwPQZmSDpk4cWLSOen+ag1nIacVK1a087z0pMAJ2C9RcZv1Ug2zmSqkGiYPXZcpalRHxQWACspMuwqJAIC8SpJPN27ceMMNN1wJbTd9+vS5c+emRyQArVGSGw9gcxd1MSk2roeg7pIOSbol3VOt5Czk0f7zkqnYCZhfVNxmqmE2ma7LFDWqo+ICQAVlpl2FRABAXvIpANA2bjyAQkRdTKLiAp1xEzAqbjPVMJtM12WKGtVRcQGggjLTrkIiACAv+RQAaBs3HkAhoi4mUXGBzrgJGBW3mWqYTabrMkWN6qi4AFBBmWlXIREAkJd8CgC0jRsPoBBRF5OouEBn3ASMittMNcwm03WZokZ1VFwAqKDMtKuQCADISz4FANrGjQdQiKiLSVRcoDNuAkbFbaYaZpPpukxRozoqLgBUUGbaVUgEAOQlnwIAbePGAyhE1MUkKi7QGTcBo+I2Uw2zyXRdpqhRHRUXACooM+0qJAIA8pJPAYC2ceMBFCLqYhIVF+iMm4BRcZsNvGqYK664Iv0lW0PXZYoa1VFxAaCCMtOuQiIAIC/5FABoGzceQCGiLiZRcYHOuAkYFbfZtGnTOjo60hUlm62VK1feeOON6S/ZGrouU9SojooLABWUmXYVEgEAecmnAEDbuPEAChF1MYmKC3TGTcCouM0ee+yx+fPnp4tKNk8rV678u7/7u7feeiv9JVtD12WKGtVRcQGggjLTrkIiACAv+RQAaBs3HkAhoi4mUXGBzrgJGBU3ZcGCBVcOCDfccMPGjRvTX6+VdF13UaM6Ki4AVFBm2lVIBADkJZ8CAG3jxgMoRNTFJCou0Bk3AaPiQutEjeqouABQQZlpVyERAJCXfAoAtI0bD6AQUReTqLhAZ9wEjIoLrRM1qqPiAkAFZaZdhUQAQF7yKQDQNm48gEJEXUyi4gKdcRMwKi60TtSojooLABWUmXYVEgEAecmnAEDbuPEAChF1MYmKC3TGTcCouNA6UaM6Ki4AVFBm2lVIBADkJZ8CAG3jxgMoRNTFJCou0Bk3AaPiQutEjeqouABQQZlpVyERAJCXfAoAtI0bD6AQUReTqLhAZ9wEjIoLrRM1qqPiAkAFZaZdhUQAQF7yKQDQNm48gEJEXUyi4gKdcRMwKi60TtSojooLABWUmXYVEgEAecmnAEDbuPEAChF1MYmKC3TGTcCouNA6UaM6Ki4AVFBm2lVIBADkJZ8CAG3jxgMoRNTFJCou0Bk3AaPiQutEjeqouABQQZlpVyERAJCXfAoAtI0bD6AQUReTqLhAZ9wEjIoLrRM1qqPiAkAFZaZdhUQAQF7yKQDQNm48gEJEXUyi4gKdcRMwKi60TtSojooLABWUmXYVEgEAeT3xxBNJPn3wwQfTGwAAinbfffclNx7J7Ud6A0B/RK0KRsUFOuMmYFRcaJ2oUR0VFwAqKDPtKiQCAPJau3btkCFDxo0b9zAAQCtdd911e+6557Bhwzo6OtJ3JAD98XDQqmBUXKAzbgJGxYXWiRrVUXEBoIIy065CIgCgH6ZOnTpkyJAtAABabPTo0X4dEfDuRa0KRsUFOuMmYFRcaJ2oUR0VFwAqKDPtKiQCAPrnj3/842OPPfYwAEDLrFq1Kn0LArBJHg5aFYyKC3TGTcCouNA6UaM6Ki4AVFBm2lVIBAAAAAAMTFGrglFxgc64CRgVF1onalRHxQWACspMuwqJAAAAAICBKWpVMCou0Bk3AaPiQutEjeqouABQQZlpVyERAAAAADAwRa0KRsUFOuMmYFRcaJ2oUR0VFwAqKDPtKiQCAAAAAAamqFXBqLhAZ9wEjIoLrRM1qqPiAkAFZaZdhUQAAAAAwMAUtSoYFRfojJuAUXGhdaJGdVRcAKigzLSrkAgAAAAAGJiiVgWj4gKdcRMwKi60TtSojooLABWUmXYVEgEAAAAAA1PUqmBUXKAzbgJGxYXWiRrVUXEBoIIy065CIgAAAABgYIpaFYyKC3TGTcCouNA6UaM6Ki4AVFBm2lVIBAAAAAAMTFGrglFxgc64CRgVF1onalRHxQWACspMuwqJAAAAAICBKWpVMCou0Bk3AaPiQutEjeqouABQQZlpVyERAAAAADAwRa0KRsUFOuMmYFRcaJ2oUR0VFwAqKDPtKiQCAAAAAAamqFXBqLhAZ9wEjIoLrRM1qqPiAkAFZaZdhUQAAAAAwMAUtSoYFRfojJuAUXGhdaJGdVRcAKigzLSrkAgAAAAAGJiiVgWj4gKdcRMwKi60TtSojooLABWUmXYVEgEAAAAAA1PUqmBUXKAzbgJGxYXWiRrVUXEBoIIy065CIgAAAABgYIpaFYyKC3TGTcCouNA6UaM6Ki4AVFBm2lVIBAAAAAAMTFGrglFxgc64CRgVF1onalRHxQWACspMuwqJAAAAAICBKWpVMCou0Bk3AaPiQutEjeqouABQQZlpVyERAAAAADAwRa0KRsUFOuMmYFRcaJ2oUR0VFwAqKDPtKiQCAAAAAAamqFXBqLhAZ9wEjIoLrRM1qqPiAkAFZaZdhUQAAAAAwMAUtSoYFRfojJuAUXGhdaJGdVRcAKigzLSrkAgAAAAAGJiiVgWj4gKdcRMwKi60TtSojooLABWUmXYVEgEAAAAAA1PUqmBUXKAzbgJGxYXWiRrVUXEBoIIy065CIgAAAABgYIpaFYyKC3TGTcCouNA6UaM6Ki4AVFBm2lVIBAAAAAAMTFGrglFxgc64CRgVF1onalRHxQWACspMuwqJAAAAAICBKWpVMCou0Bk3AaPiQutEjeqouABQQZlpVyERAAAAADAwRa0KRsUFOuMmYFRcaJ2oUR0VFwAqKDPtKiQCAAAAAAamqFXBqLhAZ9wEjIoLrRM1qqPiAkAFZaZdhUQAAAAAwMAUtSoYFRfojJuAUXGhdaJGdVRcAKigzLSrkAgAAAAAGJiiVgWj4gKdcRMwKi60TtSojooLABWUmXYVEgEAAAAAA1PUqmBUXKAzbgJGxYXWiRrVUXEBoIIy065CIgAAAABgYIpaFYyKC3TGTcCouNA6UaM6Ki4AVFBm2lVIBAAAAAAMTFGrglFxgc64CRgVF1onalRHxQWACspMuwqJAAAAAICBKWpVMCou0Bk3AaPiQutEjeqouABQQZlpVyERAAAAADAwRa0KRsUFOuMmYFRcaJ2oUR0VFwAqKDPtKiQCAAAAAAamqFXBqLhAZ9wEjIoLrRM1qqPiAkAFZabdqhQSPfHEE0ncBx98ML0BAAAAABig7rvvvi222OKJJ55Ib2ixqFVQoDNuAkbFhdaJGtVRcQGggjLTblUKidauXTtkyJBx48Y9DAAAAABUwHXXXbfnnnsOGzaso6MjvVzYYg8HrYICnXETMCoutE7UqI6KCwAVlJl2q1JIlJg6deqQIUO2AAAAAACqYfTo0e3/dUSdoaugQNQEjIoLrRM1qqPiAkAFZabdChUSJf74xz8+9thjDwMAAAAAA92qVavS64Pt8nDoKihUXNQEjIoLrRM1qqPiAkAFZabdahUSAQAAAAC0mlVQCBQ1AaPiQutEjeqouABQQZlpVyERAAAAAECRrIJCoKgJGBUXWidqVEfFBYAKyky7CokAAAAAAIpkFRQCRU3AqLjQOlGjOiouAFRQZtpVSAQAAAAAUCSroBAoagJGxYXWiRrVUXEBoIIy065CIgAAAACAIlkFhUBREzAqLrRO1KiOigsAFZSZdhUSAQAAAAAUySooBIqagFFxoXWiRnVUXACooMy0q5AIAAAAAKBIVkEhUNQEjIoLrRM1qqPiAkAFZaZdhUQAAAAAAEWyCgqBoiZgVFxonahRHRUXACooM+0qJAIAAAAAKJJVUAgUNQGj4kLrRI3qqLgAUEGZaVchEQAAAABAkayCQqCoCRgVF1onalRHxQWACspMuwqJAAAAAACKZBUUAkVNwKi40DpRozoqLgBUUGbaVUgEAAAAAFAkq6AQKGoCRsWF1oka1VFxAaCCMtOuQiIAAAAAgCJZBYVAURMwKi60TtSojooLABWUmXYVEgEAAAAAFMkqKASKmoBRcaF1okZ1VFwAqKDMtKuQCAAAAACgSFZBIVDUBIyKC60TNaqj4gJABWWmXYVEAAAAAABFsgoKgaImYFRcaJ2oUR0VFwAqKDPtKiQCAAAAACiSVVAIFDUBo+JC60SN6qi4AFBBmWlXIREAAAAAQJGsgkKgqAkYFRdaJ2pUR8UFgArKTLsKiQAAAAAAimQVFAJFTcCouNA6UaM6Ki4AVFBm2lVIBAAAAABQJKugEChqAkbFhdaJGtVRcQGggjLTrkIiAAAAAIAiWQWFQFETMCoutE7UqI6KCwAVlJl2FRIBAAAAABTJKigEipqAUXGhdaJGdVRcAKigzLSrkAgAAAAAoEhWQSFQ1ASMipsyZ86cadOmXR4kCf3444+nj4nNVtSojooLABWUmXYVEgEAAAAAFMkqKASKmoBRcZs98sgj8+bNq4WaM2fObbfdlj4yNk9RozoqLgBUUGbaVUgEAAAAAFAkq6AQKGoCRsVtNnXq1I6OjnRpT9vNnTvX7yUaGKJGdVRcAKigzLSrkAgAAAAAoEhWQSFQ1ASMitts2rRp6aKeIJMnT04fHJuhqFEdFRcAKigz7SokAgAAAAAoklVQCBQ1AaPiNitPIdFPfvKTFStWpI+PzU3UqI6KCwAVlJl2FRIBAAAAABTJKigEipqAUXGblaeQ6LXXXps5c2b6+NjcRI3qqLgAUEGZaVchEQAAAABAkayCQqCoCRgVt1l5CokSM2bM2LhxY/oQ2axEjeqouABQQZlpVyERAAAAAECRrIJCoKgJGBW3WakKiRYvXnzfffelD5HNStSojooLABWUmXYVEgEAAAAAFMkqKASKmoBRcZuVqpDojTfemDJlSvoQ2axEjeqouABQQZlpVyERAAAAAECRil0F3bhx4/XXX385m2TcuHG1Wi3dp0HmzJkzbdq09CEORLHdXuwEzC8qbrNSFRIlbrzxxtWrV6ePks1H1KiOigsAFZSZdhUSAQAAAAAUqcBV0LfeemvChAnLly9P//s8+Xz/+9+/6qqranFFLQ2PPPLIvHnz0sc3QE2aNOnee++tBXV7gROwX6LiNitbIdGqVat+8IMfpI+SzUfUqI6KCwAVlJl2FRIBAAAAABSpwFXQ66+/XhXRuzFt2rSOjo4y1BJNnTo1OZL08Q1Q9XKWqFqiAidgv0TFbVa2QqJEMvLffvvt9IGymYga1VFxAaCCMtOuQiIAAAAAgCIVuAo6ffr09D/L0x/1uooy1BJNnTo1fXADV6OcJaSWqMAJ2C9RcZuVsJDowQcffPTRR9MHymYialRHxQWACspMuwqJAAAAAACKVOAq6KWXXpr+Z3n6o1FXEV5LVMIKj9Zp/rLtryUqcAL2S1TcZiUcZm+88UZyVOkDZTMRNaqj4gJABWWmXYVEAAAAAABFKnAVVCHRu9RcVxFbS1TCCo/WSX3ZNtcSFTgB+yUqbrNyDrNrr712/fr16WNlcxA1qqPiAkAFZaZdhUQAAAAAAEUqcBVUIdG7lKqrCKwlKmeFR4t0/7LtrCUqcAL2S1TcZt17vgxWrlx58803p4+VzUHUqI6KCwAVlJl2FRIBAAAAABSpwFVQhUTvUve6iqhaou5HMoBlftm21RIVOAH7JSpus8yeL4MpU6akj5XNQdSojooLABWUmXYVEgEAAAAAFKnAVVCFRO9SZl1FSC1R5pEMVJMmTUo3dWlPLVGBE7BfouI2K+0wu+eee5YsWZI+XEovalRHxQWACspMuwqJAAAAAACKVOAqqEKid+myyy579dVX060RtUSlrfBohVtvvXXevHnp1i5tqCUqcAL2S1TcZqUdZhs2bEiuZunDpfSiRnVUXACooMy0q5AIAAAAAKBIBa6CKiR6l1atWpX04fTp06d1M2XKlLPOOivd4y0zrawVHi3y85//POnhdKd3dfsFF1yQ7p1CFTgB+yUqbrNpJR5mV1111Ztvvpk+YsotalRHxQWACspMuwqJAAAAAACKVOAqqEKilrrsssvSPd4yZa7waLMZM2ake6dQBU7AfomK26zMw2zp0qVz5sxJHzHlFjWqo+ICQAVlpl2FRAAAAAAARSpwFVQhUUspJAqhkKh1xo0b987fAFUuyeFdntvs2bM3btyY/oa0V9SojooLABWUmXYVEgEAAAAAFKnAVdDSFhLNmDFj9uzZ6dZNMmnSpB/96Efp1ncn5+GVqpCoFf3Qu1ZEzNPzColap89hthlZvnz5xIkT33rrrfSXpI2iRnVUXACooMy0q5AIAAAAAKBIBa6ClqSQ6Mtf/vLkyZObW04++eQLLriguWWTjR079sILL0y3dukeN6fPfe5zX/nKV9Kt3ZSqkKiXfmiRXiK2tOcVErVOn8Ns87JixYobb7wx/SVpo6hRHRUXACooM+0qJAIAAAAAKFKBq6AlKSQ6+uijv/a1r6VbC9JLOcsmx81TzlJTSNRzxJb2vEKi1ulzmG12rrjiivSXpI2iRnVUXACooMy0q5AIAAAAAKBIBa6C5ikk6ujomDp16gEHHPCJT3xi9uzZV1555TXXXJO0X3jhhXPnzm3sdtlll9Xb6+bNm3f00Ufvu+++J5xwwmOPPdZoX7x48amnnrrffvsdeOCB48aNW758+cyZM3fddde99977pC4vvPBCslsS8brrrmv8VPL6sMMOGzVq1Omnn/7MM8/UG7/73e/efPPNSdCDDjro0EMPbd6/Wb2cpftumXHrn3nVVVclh5d83+QLJl9/xowZY8aM+dSnPrVw4cL6z+YpZ6mVspAoOeN/+Zd/efDBBzd31/3333/GGWck3zFp/8Y3vvHKK6/U27ufrMaP9HR+m+Xv+ZzdXsvX8wqJWqfPYbbZSS5o6S9JG0WN6qi4AFBBmWlXIREAAAAAQJEKXAXNU0g0efLk7bfffubMmfPmzTvssMN22WWXs846K2kfNWrUlClTGruddNJJ9fZaV93Pdtttl/zgvffeO3HixG222WbRokVJ+2uvvfbe97733HPPXbhw4Z133jlhwoQlS5Y88sgjo0ePPvroo2/rsnr16to760Uuu+yy5BNmzJixYMGCY489duedd37ppZdqXXUqu+2228knn3zHHXdccsklgwcPTsL9/0fTpKfdMuMmO48YMeKMM86YM2fO17/+9S233PLMM888++yzk7fJYW+77bYrV66s5StnqZWvkCg5d3/913+ddGNyaoYOHfrDH/6wvmn69OlTp069++67b7/99kMOOeSv/uqvaj2crPr+PZ3flPw9n7Pba/l6XiFR6/Q5zDY7ColiRY3qqLgAUEGZaVchEQAAAABAkQpcBe2zkGjdunXDhw+/8sor629XrVq144479l5I9Prrr7/nPe+5/PLLG5u++MUvnnLKKcmLZ555JjnyZcuWNTbVdf9DV416keTTkgNoBEre7r777hMmTKh11amMHj26o6Ojvukzn/lMZolJL7t1j5vsPGbMmPrr5EdGjBhx6KGH1t+uX79+p512uuWWW2r5yllq5Ssk2mOPPTZs2FB/O378+JEjR75zl//n97//fXKOnnrqqZ5OVi/nNyV/z+fs9lq+nldI1Dp9DrPNjkKiWFGjOiouAFRQZtpVSAQAAAAAUKQCV0H7LCRasmRJEuvpp59utBxxxBG9FxItXrw4+ZEvfelLEydOvPjiiydMmJD8yD777FPrqkH52Mc+9oEPfGD8+PH33HPPunXr6j/bvaCnUS9SL2dJPrOx6cwzzzzmmGNqXdUnzT917rnnHn/88Y23Db3s1j1uaueDDjrowgsvbLxNvsX06dNr+cpZauUrJDr77LMbb+++++5BgwatXbs2eb1y5cpvfvObhx9+ePIFP/rRjybt8+fP7+lk9XJ+U/L3fM5ur+XreYVErdPnMNvsKCSKFTWqo+ICQAVlpl2FRAAAAAAARSpwFbTPQqJf/vKXSaznn3++0XL88cdnFhKdeOKJ9faHHnoo+ZHx48dPajJz5sz6bmvWrLn66quPO+64HXbYYY899nj22Wdr3cpKak31IvUDqO9W99WvfvXwww+vdVWfNJebJPsnP9V429DLbt3jpnY+5JBDJk6c2Hjb+Mp5yllq5SskOv/88xtvH3jggaRjX3zxxeT1AQcccNRRR/3DP/zDokWLnnzyyaFDh/70pz+t9XCyej+/zfL3fM5ur+XreYVErdPnMNvsKCSKFTWqo+ICQAVlpl2FRAAAAAAARSpwFbTPQqJVq1YNGjRowYIFjZa99967XjB02GGHXXTRRY32j3/84/X2l156afDgwT/+8Y8bmzKtWbNm5MiR48ePr3VVh5x33nnNWxv1IqtXr04O4Pbbb29sOvTQQ+u/WaeXOpVmvezWPW7OipY85Sy18hUSJRpvr7nmmh133DF5sXz58mQ4/eY3v6m3Jy+St/VCoobmk5Xz/Na6dWYvPZ+z22v5el4hUev0Ocw2OwqJYkWN6qi4AFBBmWlXIREAAAAAQJEKXAXts5AoccIJJ4wZM+bll1+udVXGDB48uF4w9I1vfGPvvfd+8cUXOzo6rr322iFDhtTbE6effvoee+yxaNGi+tsnn3zynnvuSV4sXbr0rrvu2rBhQ62rHmXPPfecPHly8vr8888/+OCDV6xYsWbNmuTTau+sFznllFNGjRq1fPny5PVNN900aNCghx56qNat+qS5TmX27NmN173s1j1uzoqWPOUstfIVEiXnqF4h9Pzzzyedf8EFFySv165dO3To0FmzZtW66saOOOKIpIeT3Xo6WbWez29zt9e6dWYvPZ+z22v5el4hUev0OcySzk+GQbq1xBQSxYoa1VFxAaCCMtOuQiIAAAAAgCIVuAqap5DohRde2HfffYcOHTp8+PCxY8c2/rTZihUrRo0ateWWW2633Xaf//znG+2JP/zhD+PGjUs27bTTTttuu23y36uvvjppX7Ro0fve976tttpqt91223rrrY877ri1a9cm7c8+++whhxyyzTbbJN/rqaeeqr2zXuR3v/vdYYcdNnjw4GHDhiX7zJgxo97eS53KxIkT679up/fdusfNWdGSp5ylVr5CouQE7b///jvvvHPSmYcffviqVavqm6644orkpOyyyy7JqUw+JzllP/3pT3s6WbWez29zt9cj5uz5nN1ey9fzColap89hdvLJJ9cL1DYXColiRY3qqLgAUEGZaVchEQAAAABAkQpcBc1TSJTo6Oh4+umnn3vuueT1aaed1igYStqfffbZ559//h17/9nq1asXLVq0dOnS9evXN7cvW7YsaX/ppZeaG/tU/6lGLctmoVSFRA1LlixJzlqq8dVXX128eHGjtKihl5PV0/kNp5CodfIPs82FQqJYUaM6Ki5KxNnYAAAN4klEQVQAVFBm2lVIBAAAAABQpAJXQXMWEjVrLiSid+UsJBrwFBK1Tp/DbOrUqdddd1399Xe/+92bb775qquuOvDAAz/xiU/MnTu3o6MjOTtjxoz51Kc+tXDhwsZPbdiwYfLkyR//+MeT3WbPnn3llVdec801ja0tpZAoVtSojooLABWUmXYVEgEAAAAAFKnAVdBNKCT6yle+snn96aJAColCKCRqnT6HWfPfnhs7duyIESPOOOOMOXPmfP3rX99yyy3PPPPMs88+O3l77rnnbrvttitXrqzvOXHixGHDhl1zzTXz588/8sgjd9lll7ZVKyokihU1qqPiAkAFZaZdhUQAAAAAAEUqcBV0EwqJyE8hUQiFRK3T5zBLFRKNGTOm/rqjo2PEiBGHHnpo/e369et32mmnW265JXn92muvbb/99tdee21909q1a3feeWeFRBURNaqj4gJABWWmXYVEAAAAAABFKnAVVCFRSykkCqGQqHX6HGapQqKvfe1rjU0HHXTQhRde2Hi7zz77TJ8+PXnx1FNPJd9ryZIljU3/8T/+R4VEFRE1qqPiAkAFZaZdhUQAAAAAAEUqcBVUIVFLKSQKoZCodfocZqlCoubKoUMOOWTixImNt6NGjZoyZUryYtGiRcn3+u1vf9vYdOyxxyokqoioUR0VFwAqKDPtKiQCAAAAAChSgaugColaSiFRCIVErdPnMNuEQqI//OEPW2655W233VZvX79+/fvf/36FRBURNaqj4gJABWWmXYVEAAAAAABFKnAVVCFRSykkCqGQqHX6HGabUEiUOOecc/bcc89f/OIXzz///Pnnn7/tttsqJKqIqFEdFRcAKigz7SokAgAAAAAoUoGroAqJWkohUQiFRK3T5zDbtEKiNWvWfOELX9huu+122mmn5EeOO+64b3zjG409W0ohUayoUR0VFwAqKDPtKiQCAAAAAChSgaugColaSiFRCIVErdOGYbZ+/foPfvCDs2bNSm9oDYVEsaJGdVRcAKigzLSrkAgAAAAAoEgFroIqJGophUQhFBK1TouG2eOPP/73f//3ixcv/u///b+fdtppO++886uvvpreqTUUEsWKGtVRcQGggjLTrkIiAAAAAIAiFbgKOnv27OXLl6f/aZ0iJB17ww03pHu8ZaZNm9bR0ZE+iOpJOkEhUeu0qJDo17/+9RFHHLHHHnv8h//wH0466aRnnnkmvUfLKCSKFTWqo+ICQAVlpl2FRAAAAAAARSpwFfStt966+OKL1RIVbsWKFRMnTky6N93jLfPYY4/Nnz8/fRwV88Ybb9x1112PP/54uncKVeAE7JeouM1aVEgUSCFRrKhRHRUXACooM+0qJAIAAAAAKFKxq6AbN2684YYbrqRQSZcmHZvu6xZbsGBB+jgqZvr06XPnzk33S9GKnYD5RcVtppCIYkWN6qi4AFBBmWlXIREAAAAAQJGsgkKgqAkYFbeZQiKKFTWqo+ICQAVlpl2FRAAAAAAARbIKCoGiJmBU3GYKiShW1KiOigsAFZSZdhUSAQAAAAAUySooBIqagFFxmykkolhRozoqLgBUUGbaVUgEAAAAAFAkq6AQKGoCRsVtppCIYkWN6qi4AFBBmWlXIREAAAAAQJGsgkKgqAkYFbeZQiKKFTWqo+ICQAVlpl2FRAAAAAAARbIKCoGiJmBU3GYDr5DoiiuuSH9J2ihqVEfFBYAKyky7CokAAAAAAIpkFRQCRU3AqLjNpk2b1tHRkS7G2WytXLnyxhtvTH9J2ihqVEfFBYAKyky7CokAAAAAAIpkFRQCRU3AqLjNHnvssfnz56frcTZPK1eu/Lu/+7u33nor/SVpo6hRHRUXACooM+0qJAIAAAAAKJJVUAgUNQGj4qYsWLDgygHhhhtu2LhxY/rr0V5RozoqLgBUUGbaVUgEAAAAAFAkq6AQKGoCRsWF1oka1VFxAaCCMtOuQiIAAAAAgCJZBYVAURMwKi60TtSojooLABWUmXYVEgEAAAAAFMkqKASKmoBRcaF1okZ1VFwAqKDMtKuQCAAAAACgSFZBIVDUBIyKC60TNaqj4gJABWWmXYVEAAAAAABFsgoK/187d3DiOhIEYFigAByDM3BADscpOBTfDAajUHywb85g1uyyMIi6WarqUX/fcfR4fWlRoPpxoaoXsOpcWE/Vra46FwA6FI5dIREAAAAAwJJ8BYVCVS9g1bmwnqpbXXUuAHQoHLtCIgAAAACAJfkKCoWqXsCqc2E9Vbe66lwA6FA4doVEAAAAAABL8hUUClW9gFXnwnqqbnXVuQDQoXDsCokAAAAAAJbkKygUqnoBq86F9VTd6qpzAaBD4dgVEgEAAAAALMlXUChU9QJWnQvrqbrVVecCQIfCsSskAgAAAABYkq+gUKjqBaw6F9ZTdaurzgWADoVjV0gEAAAAALCkaZqGYbher/MHwPoul8vnBfy8hvMHK7P+YHuqbnXVuQDQoXDsCokAAAAAAJb0fD7HcTwejzcg1/l83u/3u93u/X7P38yV3aw/2JyqW111LgB0KBy7QiIAAAAAgIWdTqdxHAcg3eFwyP85oh/rD7ao6lZXnQsAHQrHrpAIAAAAAGB5r9frfr/fgESPx2P+Kma5WX+wOVW3uupcAOhQOHaFRAAAAAAAAF+x/mB7qm511bkA0KFw7AqJAAAAAAAAvmL9wfZU3eqqcwGgQ+HYFRIBAAAAAAB8xfqD7am61VXnAkCHwrErJAIAAAAAAPiK9QfbU3Wrq84FgA6FY1dIBAAAAAAA8BXrD7an6lZXnQsAHQrHrpAIAAAAAADgK9M0DcNwvV7nD+DPulwun1v9udvzByuzTASANOHYFRIBAAAAAAB85fl8juN4PB5vsAnn83m/3+92u/f7Pb/uK7tZJgJAlnDsCokAAAAAAAC+dTqdxnEcYCsOh0P+zxH9WCYCQKJw7AqJAAAAAAAAFvB6ve73+w3+vsfjMb/fWW6WiQCQJRy7QiIAAAAAAACgCZaJAJAmHLtCIgAAAAAAAKAJlokAkCYcu0IiAAAAAAAAoAmWiQCQJhy7QiIAAAAAAACgCZaJAJAmHLtCIgAAAAAAAKAJlokAkCYcu0IiAAAAAAAAoAmWiQCQJhy7QiIAAAAAAACgCZaJAJAmHLtCIgAAAAAAAKAJlokAkCYcu0IiAAAAAAAAoAmWiQCQJhy7QiIAAAAAAACgCZaJAJAmHLtCIgAAAAAAAKAJlokAkCYcu0IiAAAAAAAAoAmWiQCQJhy7QiIAAAAAAACgCZaJAJAmHLtCIgAAAAAAAKAJlokAkCYcu0IiAAAAAAAAoAmWiQCQJhy7QiIAAAAAAACgCZaJAJAmHLtCIgAAAAAAAKAJlokAkCYcu0IiAAAAAAAAoAmWiQCQJhy7QiIAAAAAAACgCZaJAJAmHLtCIgAAAAAAAKAJlokAkCYcu0IiAAAAAAAAoAmWiQCQJhy7QiIAAAAAAACgCZaJAJAmHLtCIgAAAAAAAKAJlokAkCYcu0IiAAAAAAAAoAmWiQCQJhy7QiIAAAAAAACgCZaJAJAmHLtCIgAAAAAAAKAJlokAkCYcu0IiAAAAAAAAoAmWiQCQJhy7QiIAAAAAAACgCZaJAJAmHLtCIgAAAAAAAKAJlokAkCYcu0IiAAAAAAAAoAmWiQCQJhy7QiIAAAAAAACgCZaJAJAmHLtCIgAAAAAAAKAJlokAkCYcu0IiAAAAAAAAoAmWiQCQJhy7QiIAAAAAAACgCZaJAJAmHLtCIgAAAAAAAKAJlokAkCYcu0IiAAAAAAAAoAmWiQCQJhy72SHRNE2f//96vc4fAAAAAAAAAH27XC7DMEzTNH8AACwtbISyQ6Ln8zmO4/F4vAEAAAAAAAD873w+7/f73W73fr/nW0YAYGm3qBHKDok+TqfTOI4DAAAAAAAAwC+Hw8HPEQFAjrARKgiJPl6v1/1+/68sBgAAAAAAAHg8HvO1IgCwmlvUCNWERAAAAAAAAAAAQJWwERISAQAAAAAAAABAX8JGSEgEAAAAAAAAAAB9CRshIREAAAAAAAAAAPQlbISERAAAAAAAAAAA0JewERISAQAAAAAAAABAX8JGSEgEAAAAAAAAAAB9CRshIREAAAAAAAAAAPQlbISERAAAAAAAAAAA0JewERISAQAAAAAAAABAX8JGSEgEAAAAAAAAAAB9CRshIREAAAAAAAAAAPQlbISERAAAAAAAAAAA0JewERISAQAAAAAAAABAX8JGSEgEAAAAAAAAAAB9CRshIREAAAAAAAAAAPQlbISERAAAAAAAAAAA0JewERISAQAAAAAAAABAX8JGSEgEAAAAAAAAAAB9CRshIREAAAAAAAAAAPQlbISERAAAAAAAAAAA0JewERISAQAAAAAAAABAX8JGSEgEAAAAAAAAAAB9CRshIREAAAAAAAAAAPQlbISERAAAAAAAAAAA0JewERISAQAAAAAAAABAX8JGSEgEAAAAAAAAAAB9CRshIREAAAAAAAAAAPQlbITmIdE0TZ9/dL1eZ38HAAAAAAAAAAC24XK5DMMwTdPvP85DoufzOY7j8Xi8AQAAAAAAAAAAm3M+n/f7/W63e7/fv8OheUj0cTqdxnEcAAAAAAAAAACALTocDrOfI/oJQ6KP1+t1v9/nMRIAAAAAAAAAAPDHPR6PeS30rzgkAgAAAAAAAAAAuiIkAgAAAAAAAAAAhEQAAAAAAAAAAICQCAAAAAAAAAAA+PgHG3lyzPGAZVEAAAAASUVORK5CYII=;" vertex="1" parent="1">
          <mxGeometry x="906.9970588235293" y="-15.003529411764646" width="3096" height="935" as="geometry" />
        </mxCell>
        <mxCell id="KGTOnmqjt0JSs_JX547H-2" value="" style="whiteSpace=wrap;html=1;shape=mxgraph.basic.document" vertex="1" parent="1">
          <mxGeometry x="2780" y="1292" width="100" height="100" as="geometry" />
        </mxCell>
      </root>
    </mxGraphModel>
  </diagram>
</mxfile>
